<svg xmlns="http://www.w3.org/2000/svg" width="1024" height="683" viewBox="0 0 1024 683" version="1.1"><path d="M 497.495 212.005 L 483.518 226.009 497.759 240.250 L 512 254.491 526.241 240.250 L 540.482 226.009 526.505 212.005 C 518.817 204.302, 512.290 198, 512 198 C 511.710 198, 505.183 204.302, 497.495 212.005 M 441.236 268.263 C 433.956 275.558, 428 281.965, 428 282.500 C 428 283.036, 434.182 289.668, 441.737 297.237 L 455.474 311.001 469.737 296.764 L 483.999 282.527 497.500 296 C 504.925 303.410, 511 309.923, 511 310.473 C 511 311.024, 504.817 317.669, 497.259 325.242 L 483.518 339.009 497.759 353.250 L 512 367.491 526.241 353.250 L 540.482 339.009 526.741 325.242 C 519.183 317.669, 513 311.024, 513 310.473 C 513 309.923, 519.075 303.410, 526.500 296 L 540.001 282.527 554.263 296.764 L 568.526 311.001 582.263 297.237 C 589.818 289.668, 596 283.024, 596 282.473 C 596 281.184, 569.790 255, 568.500 255 C 567.964 255, 561.333 261.181, 553.763 268.737 L 540 282.473 526 268.500 L 512 254.527 498 268.500 L 484 282.473 470.237 268.737 C 462.667 261.181, 456.024 255, 455.473 255 C 454.923 255, 448.516 260.969, 441.236 268.263 M 275.627 424.468 C 269.556 426.633, 264.760 431.071, 261.500 437.543 C 258.830 442.845, 258.500 444.490, 258.500 452.500 C 258.500 460.343, 258.862 462.236, 261.314 467.230 C 266.155 477.088, 274.519 482.005, 286.428 481.994 C 294.417 481.987, 299.023 480.618, 304.225 476.703 C 308.383 473.573, 312.135 467.472, 313.420 461.750 L 314.038 459 307.269 459.026 L 300.500 459.052 298.657 463.048 C 296.435 467.867, 292.423 470.167, 286.239 470.167 C 277.476 470.167, 272.667 463.906, 272.667 452.500 C 272.667 444.490, 274.417 440.262, 279.212 436.688 C 284.976 432.392, 295.632 435.064, 298.743 441.586 L 300.410 445.082 306.955 444.791 C 313.298 444.509, 313.489 444.423, 313.146 442.006 C 312.196 435.317, 306.465 428.460, 299 425.081 C 293.617 422.644, 281.627 422.330, 275.627 424.468 M 391.316 424.269 C 385.240 426.618, 379.550 431.530, 376.500 437.061 C 373.729 442.084, 373.500 443.264, 373.500 452.500 C 373.500 461.736, 373.729 462.916, 376.500 467.939 C 379.571 473.508, 385.349 478.474, 391.316 480.674 C 396.096 482.436, 407.896 482.255, 413.537 480.333 C 420.017 478.125, 427.125 471.017, 429.333 464.537 C 431.425 458.397, 431.493 446.803, 429.472 440.872 C 427.477 435.016, 422.977 429.657, 417.226 426.286 C 413.262 423.963, 411.302 423.536, 403.549 423.307 C 398.122 423.146, 393.226 423.531, 391.316 424.269 M 451.500 425.299 C 445.428 428.211, 440.740 432.863, 437.750 438.945 C 435.910 442.688, 435.523 445.104, 435.583 452.500 C 435.667 462.803, 437.068 466.856, 442.705 473.095 C 448.889 479.940, 452.934 481.500, 464.500 481.500 C 472.850 481.500, 475.160 481.143, 478.500 479.338 C 488.336 474.020, 493.361 464.946, 493.361 452.500 C 493.361 443.284, 490.991 436.684, 485.699 431.162 C 480.270 425.498, 475.606 423.675, 465.500 423.265 C 457.610 422.946, 455.883 423.197, 451.500 425.299 M 562.328 424.938 C 557.287 427.227, 554.895 430.610, 554.321 436.264 C 553.390 445.435, 559.037 450.440, 574.279 453.955 C 587.870 457.088, 591 459.322, 591 465.887 C 591 472.850, 586.578 476.778, 577.718 477.686 C 567.265 478.756, 559.002 474.153, 557.557 466.455 C 557.003 463.498, 556.505 462.930, 554.693 463.188 C 552.834 463.452, 552.553 464.030, 552.845 466.984 C 553.354 472.121, 555.557 475.678, 560.082 478.673 C 563.353 480.837, 565.598 481.423, 572.058 481.797 C 582.084 482.378, 587.791 480.842, 592.089 476.408 C 594.879 473.530, 595.426 472.158, 595.741 467.261 C 596.400 456.981, 591.746 452.811, 575.892 449.478 C 562.322 446.625, 557.732 442.592, 559.615 435.177 C 560.886 430.170, 564.537 427.879, 572.130 427.322 C 577.426 426.933, 579.259 427.246, 583 429.177 C 586.688 431.081, 587.746 432.277, 588.862 435.805 C 589.970 439.307, 590.623 440.053, 592.362 439.805 C 594.093 439.558, 594.438 438.929, 594.175 436.500 C 593.667 431.816, 590.323 427.335, 585.647 425.071 C 579.923 422.300, 568.284 422.234, 562.328 424.938 M 717.137 424.369 C 711.766 426.313, 706.377 431.530, 703.351 437.716 C 700.906 442.712, 700.545 444.613, 700.545 452.500 C 700.545 460.374, 700.908 462.291, 703.334 467.250 C 706.541 473.804, 712.270 479.165, 717.858 480.839 C 722.594 482.258, 731.258 482.334, 736.065 480.998 C 744.555 478.640, 751.555 468.709, 752.726 457.364 L 753.280 452 740.140 452 C 727.667 452, 727 452.101, 727 454 C 727 455.873, 727.667 456, 737.500 456 C 749.270 456, 748.882 455.668, 746.494 463.707 C 744.069 471.875, 735.723 477.989, 727 477.989 C 718.758 477.989, 710.348 472.096, 707.336 464.210 C 705.222 458.673, 705.008 447.291, 706.913 441.664 C 711.929 426.847, 731.179 422.179, 742.124 433.124 C 744.144 435.144, 746.103 438.192, 746.478 439.898 C 747.022 442.376, 747.671 443, 749.704 443 C 752.040 443, 752.198 442.732, 751.616 439.750 C 750.583 434.458, 745.959 428.844, 740.119 425.793 C 735.653 423.461, 733.595 423.013, 727.636 423.076 C 723.711 423.118, 718.987 423.700, 717.137 424.369 M 318 452.500 L 318 481 325 481 L 332 481 332 469.500 L 332 458 343.500 458 L 355 458 355 469.500 L 355 481 361.500 481 L 368 481 368 452.500 L 368 424 361.534 424 L 355.068 424 354.784 434.750 L 354.500 445.500 343.250 445.783 L 332 446.066 332 435.033 L 332 424 325 424 L 318 424 318 452.500 M 498 452.500 L 498 481 514.750 480.994 C 523.962 480.991, 533.265 480.499, 535.421 479.900 C 540.428 478.510, 544.487 474.444, 546.039 469.264 C 547.822 463.314, 546.575 458.575, 542.034 454.034 L 538.180 450.180 540.601 447.905 C 545.810 443.012, 545.644 433.827, 540.256 428.829 C 535.837 424.729, 531.924 424, 514.351 424 L 498 424 498 452.500 M 608.170 451.750 C 602.012 467.012, 596.979 479.837, 596.987 480.250 C 596.994 480.663, 598.061 481, 599.357 481 C 601.391 481, 602.166 479.831, 605.010 472.473 L 608.307 463.947 622.256 464.223 L 636.205 464.500 639.404 472.500 C 642.196 479.483, 642.946 480.540, 645.302 480.816 C 647.754 481.104, 647.919 480.921, 647.108 478.816 C 646.616 477.542, 641.620 465.250, 636.006 451.500 C 630.392 437.750, 625.571 425.938, 625.292 425.250 C 625.014 424.563, 623.567 424, 622.076 424 C 619.464 424, 618.964 424.998, 608.170 451.750 M 652 452.500 C 652 480.251, 652.052 481, 653.983 481 C 655.900 481, 655.975 480.171, 656.233 456.045 L 656.500 431.090 673 456.027 C 688.910 480.073, 689.616 480.965, 692.750 480.982 L 696 481 696 452.500 L 696 424 693.500 424 L 691 424 691 449.054 L 691 474.109 674.358 449.054 C 659.072 426.042, 657.483 424, 654.858 424 L 652 424 652 452.500 M 621.749 430.636 C 620.245 433.184, 610.865 458.198, 611.264 458.597 C 611.523 458.856, 616.650 458.940, 622.658 458.784 L 633.581 458.500 627.920 444.136 C 624.806 436.237, 622.029 430.162, 621.749 430.636 M 395.388 435.980 C 390.116 438.110, 386.376 447.038, 387.339 455.196 C 388.506 465.083, 393.589 469.990, 402.673 469.996 C 411.668 470.003, 417 463.492, 417 452.500 C 417 445.615, 415.234 441.216, 411.059 437.703 C 408.440 435.499, 406.891 435.012, 402.673 435.063 C 399.828 435.098, 396.550 435.511, 395.388 435.980 M 456.420 436.886 C 452.118 439.509, 449.645 445.209, 449.645 452.500 C 449.645 463.750, 454.887 469.989, 464.346 469.996 C 472.466 470.003, 477.358 465.742, 478.947 457.279 C 480.622 448.358, 477.589 439.390, 471.901 436.449 C 467.928 434.394, 460.145 434.614, 456.420 436.886 M 512 441 L 512 447 519.500 447 C 527.782 447, 531 445.224, 531 440.655 C 531 436.434, 528.127 435, 519.671 435 L 512 435 512 441 M 512 463.500 L 512 470 520.500 470 C 529.891 470, 533 468.401, 533 463.573 C 533 459.111, 528.782 457, 519.865 457 L 512 457 512 463.500 M 755.635 471.073 C 752.653 473.418, 752.270 476.512, 754.557 479.777 C 757.593 484.112, 766 481.303, 766 475.955 C 766 473.623, 761.799 469, 759.680 469 C 758.904 469, 757.084 469.933, 755.635 471.073 M 755.438 473.068 C 753.729 474.957, 753.697 475.370, 755.067 477.818 C 757.809 482.720, 764 481.513, 764 476.078 C 764 470.965, 758.949 469.189, 755.438 473.068 M 757.015 475.680 C 757.026 478.361, 757.301 479.072, 757.939 478.064 C 758.669 476.911, 759.141 476.872, 760.339 477.866 C 761.613 478.924, 761.806 478.623, 761.665 475.802 C 761.535 473.201, 761.023 472.432, 759.250 472.180 C 757.252 471.897, 757.002 472.288, 757.015 475.680" stroke="none" fill="#090909" fill-rule="evenodd"/><path d="M -0 341.501 L -0 683.002 512.250 682.751 L 1024.500 682.500 1024.751 341.250 L 1025.003 0 512.501 0 L 0 0 -0 341.501 M 0.494 342 C 0.494 529.825, 0.609 606.662, 0.750 512.750 C 0.891 418.837, 0.891 265.162, 0.750 171.250 C 0.609 77.337, 0.494 154.175, 0.494 342 M 497.495 212.005 L 483.518 226.009 497.759 240.250 L 512 254.491 526.241 240.250 L 540.482 226.009 526.505 212.005 C 518.817 204.302, 512.290 198, 512 198 C 511.710 198, 505.183 204.302, 497.495 212.005 M 441.236 268.263 C 433.956 275.558, 428 281.965, 428 282.500 C 428 283.036, 434.182 289.668, 441.737 297.237 L 455.474 311.001 469.737 296.764 L 483.999 282.527 497.500 296 C 504.925 303.410, 511 309.923, 511 310.473 C 511 311.024, 504.817 317.669, 497.259 325.242 L 483.518 339.009 497.759 353.250 L 512 367.491 526.241 353.250 L 540.482 339.009 526.741 325.242 C 519.183 317.669, 513 311.024, 513 310.473 C 513 309.923, 519.075 303.410, 526.500 296 L 540.001 282.527 554.263 296.764 L 568.526 311.001 582.263 297.237 C 589.818 289.668, 596 283.024, 596 282.473 C 596 281.184, 569.790 255, 568.500 255 C 567.964 255, 561.333 261.181, 553.763 268.737 L 540 282.473 526 268.500 L 512 254.527 498 268.500 L 484 282.473 470.237 268.737 C 462.667 261.181, 456.024 255, 455.473 255 C 454.923 255, 448.516 260.969, 441.236 268.263 M 275.627 424.468 C 269.556 426.633, 264.760 431.071, 261.500 437.543 C 258.830 442.845, 258.500 444.490, 258.500 452.500 C 258.500 460.343, 258.862 462.236, 261.314 467.230 C 266.155 477.088, 274.519 482.005, 286.428 481.994 C 294.417 481.987, 299.023 480.618, 304.225 476.703 C 308.383 473.573, 312.135 467.472, 313.420 461.750 L 314.038 459 307.269 459.026 L 300.500 459.052 298.657 463.048 C 296.435 467.867, 292.423 470.167, 286.239 470.167 C 277.476 470.167, 272.667 463.906, 272.667 452.500 C 272.667 444.490, 274.417 440.262, 279.212 436.688 C 284.976 432.392, 295.632 435.064, 298.743 441.586 L 300.410 445.082 306.955 444.791 C 313.298 444.509, 313.489 444.423, 313.146 442.006 C 312.196 435.317, 306.465 428.460, 299 425.081 C 293.617 422.644, 281.627 422.330, 275.627 424.468 M 391.316 424.269 C 385.240 426.618, 379.550 431.530, 376.500 437.061 C 373.729 442.084, 373.500 443.264, 373.500 452.500 C 373.500 461.736, 373.729 462.916, 376.500 467.939 C 379.571 473.508, 385.349 478.474, 391.316 480.674 C 396.096 482.436, 407.896 482.255, 413.537 480.333 C 420.017 478.125, 427.125 471.017, 429.333 464.537 C 431.425 458.397, 431.493 446.803, 429.472 440.872 C 427.477 435.016, 422.977 429.657, 417.226 426.286 C 413.262 423.963, 411.302 423.536, 403.549 423.307 C 398.122 423.146, 393.226 423.531, 391.316 424.269 M 451.500 425.299 C 445.428 428.211, 440.740 432.863, 437.750 438.945 C 435.910 442.688, 435.523 445.104, 435.583 452.500 C 435.667 462.803, 437.068 466.856, 442.705 473.095 C 448.889 479.940, 452.934 481.500, 464.500 481.500 C 472.850 481.500, 475.160 481.143, 478.500 479.338 C 488.336 474.020, 493.361 464.946, 493.361 452.500 C 493.361 443.284, 490.991 436.684, 485.699 431.162 C 480.270 425.498, 475.606 423.675, 465.500 423.265 C 457.610 422.946, 455.883 423.197, 451.500 425.299 M 562.328 424.938 C 557.287 427.227, 554.895 430.610, 554.321 436.264 C 553.390 445.435, 559.037 450.440, 574.279 453.955 C 587.870 457.088, 591 459.322, 591 465.887 C 591 472.850, 586.578 476.778, 577.718 477.686 C 567.265 478.756, 559.002 474.153, 557.557 466.455 C 557.003 463.498, 556.505 462.930, 554.693 463.188 C 552.834 463.452, 552.553 464.030, 552.845 466.984 C 553.354 472.121, 555.557 475.678, 560.082 478.673 C 563.353 480.837, 565.598 481.423, 572.058 481.797 C 582.084 482.378, 587.791 480.842, 592.089 476.408 C 594.879 473.530, 595.426 472.158, 595.741 467.261 C 596.400 456.981, 591.746 452.811, 575.892 449.478 C 562.322 446.625, 557.732 442.592, 559.615 435.177 C 560.886 430.170, 564.537 427.879, 572.130 427.322 C 577.426 426.933, 579.259 427.246, 583 429.177 C 586.688 431.081, 587.746 432.277, 588.862 435.805 C 589.970 439.307, 590.623 440.053, 592.362 439.805 C 594.093 439.558, 594.438 438.929, 594.175 436.500 C 593.667 431.816, 590.323 427.335, 585.647 425.071 C 579.923 422.300, 568.284 422.234, 562.328 424.938 M 717.137 424.369 C 711.766 426.313, 706.377 431.530, 703.351 437.716 C 700.906 442.712, 700.545 444.613, 700.545 452.500 C 700.545 460.374, 700.908 462.291, 703.334 467.250 C 706.541 473.804, 712.270 479.165, 717.858 480.839 C 722.594 482.258, 731.258 482.334, 736.065 480.998 C 744.555 478.640, 751.555 468.709, 752.726 457.364 L 753.280 452 740.140 452 C 727.667 452, 727 452.101, 727 454 C 727 455.873, 727.667 456, 737.500 456 C 749.270 456, 748.882 455.668, 746.494 463.707 C 744.069 471.875, 735.723 477.989, 727 477.989 C 718.758 477.989, 710.348 472.096, 707.336 464.210 C 705.222 458.673, 705.008 447.291, 706.913 441.664 C 711.929 426.847, 731.179 422.179, 742.124 433.124 C 744.144 435.144, 746.103 438.192, 746.478 439.898 C 747.022 442.376, 747.671 443, 749.704 443 C 752.040 443, 752.198 442.732, 751.616 439.750 C 750.583 434.458, 745.959 428.844, 740.119 425.793 C 735.653 423.461, 733.595 423.013, 727.636 423.076 C 723.711 423.118, 718.987 423.700, 717.137 424.369 M 318 452.500 L 318 481 325 481 L 332 481 332 469.500 L 332 458 343.500 458 L 355 458 355 469.500 L 355 481 361.500 481 L 368 481 368 452.500 L 368 424 361.534 424 L 355.068 424 354.784 434.750 L 354.500 445.500 343.250 445.783 L 332 446.066 332 435.033 L 332 424 325 424 L 318 424 318 452.500 M 498 452.500 L 498 481 514.750 480.994 C 523.962 480.991, 533.265 480.499, 535.421 479.900 C 540.428 478.510, 544.487 474.444, 546.039 469.264 C 547.822 463.314, 546.575 458.575, 542.034 454.034 L 538.180 450.180 540.601 447.905 C 545.810 443.012, 545.644 433.827, 540.256 428.829 C 535.837 424.729, 531.924 424, 514.351 424 L 498 424 498 452.500 M 608.170 451.750 C 602.012 467.012, 596.979 479.837, 596.987 480.250 C 596.994 480.663, 598.061 481, 599.357 481 C 601.391 481, 602.166 479.831, 605.010 472.473 L 608.307 463.947 622.256 464.223 L 636.205 464.500 639.404 472.500 C 642.196 479.483, 642.946 480.540, 645.302 480.816 C 647.754 481.104, 647.919 480.921, 647.108 478.816 C 646.616 477.542, 641.620 465.250, 636.006 451.500 C 630.392 437.750, 625.571 425.938, 625.292 425.250 C 625.014 424.563, 623.567 424, 622.076 424 C 619.464 424, 618.964 424.998, 608.170 451.750 M 652 452.500 C 652 480.251, 652.052 481, 653.983 481 C 655.900 481, 655.975 480.171, 656.233 456.045 L 656.500 431.090 673 456.027 C 688.910 480.073, 689.616 480.965, 692.750 480.982 L 696 481 696 452.500 L 696 424 693.500 424 L 691 424 691 449.054 L 691 474.109 674.358 449.054 C 659.072 426.042, 657.483 424, 654.858 424 L 652 424 652 452.500 M 621.749 430.636 C 620.245 433.184, 610.865 458.198, 611.264 458.597 C 611.523 458.856, 616.650 458.940, 622.658 458.784 L 633.581 458.500 627.920 444.136 C 624.806 436.237, 622.029 430.162, 621.749 430.636 M 395.388 435.980 C 390.116 438.110, 386.376 447.038, 387.339 455.196 C 388.506 465.083, 393.589 469.990, 402.673 469.996 C 411.668 470.003, 417 463.492, 417 452.500 C 417 445.615, 415.234 441.216, 411.059 437.703 C 408.440 435.499, 406.891 435.012, 402.673 435.063 C 399.828 435.098, 396.550 435.511, 395.388 435.980 M 456.420 436.886 C 452.118 439.509, 449.645 445.209, 449.645 452.500 C 449.645 463.750, 454.887 469.989, 464.346 469.996 C 472.466 470.003, 477.358 465.742, 478.947 457.279 C 480.622 448.358, 477.589 439.390, 471.901 436.449 C 467.928 434.394, 460.145 434.614, 456.420 436.886 M 512 441 L 512 447 519.500 447 C 527.782 447, 531 445.224, 531 440.655 C 531 436.434, 528.127 435, 519.671 435 L 512 435 512 441 M 512 463.500 L 512 470 520.500 470 C 529.891 470, 533 468.401, 533 463.573 C 533 459.111, 528.782 457, 519.865 457 L 512 457 512 463.500 M 755.635 471.073 C 752.653 473.418, 752.270 476.512, 754.557 479.777 C 757.593 484.112, 766 481.303, 766 475.955 C 766 473.623, 761.799 469, 759.680 469 C 758.904 469, 757.084 469.933, 755.635 471.073 M 755.438 473.068 C 753.729 474.957, 753.697 475.370, 755.067 477.818 C 757.809 482.720, 764 481.513, 764 476.078 C 764 470.965, 758.949 469.189, 755.438 473.068 M 757.015 475.680 C 757.026 478.361, 757.301 479.072, 757.939 478.064 C 758.669 476.911, 759.141 476.872, 760.339 477.866 C 761.613 478.924, 761.806 478.623, 761.665 475.802 C 761.535 473.201, 761.023 472.432, 759.250 472.180 C 757.252 471.897, 757.002 472.288, 757.015 475.680" stroke="none" fill="#fbfbfb" fill-rule="evenodd"/></svg>