<svg xmlns="http://www.w3.org/2000/svg" width="1181" height="1181" viewBox="0 0 1181 1181" version="1.1"><path d="M 454.025 123.185 C 453.008 123.562, 451.959 124.687, 451.693 125.685 C 447.647 140.904, 445.834 148.627, 438.944 180 C 433.798 203.430, 432.622 206.397, 421.172 224.823 C 418.327 229.401, 416 233.304, 416 233.496 C 416 233.689, 411.837 240.773, 406.750 249.239 C 401.663 257.706, 395.250 268.537, 392.500 273.308 C 389.750 278.080, 386.038 284.277, 384.250 287.079 C 382.462 289.882, 381 293.082, 381 294.190 C 381 295.490, 387.631 302.664, 399.666 314.386 L 418.333 332.565 418.151 337.709 C 418.005 341.807, 418.429 343.363, 420.234 345.371 L 422.500 347.889 444.500 348.061 C 456.600 348.156, 475.408 348.181, 486.295 348.117 C 505.935 348.001, 506.110 347.981, 508.558 345.533 C 510.971 343.119, 511.051 343.109, 512.253 345.033 C 513.784 347.485, 519.496 347.755, 520.393 345.418 C 520.727 344.548, 520.998 342.186, 520.997 340.168 C 520.993 336.758, 522.089 335.417, 536.551 321.125 C 549.719 308.113, 552.062 305.347, 551.804 303.125 C 551.593 301.301, 550.828 300.404, 549.297 300.187 C 547.592 299.944, 542.974 303.957, 528.859 317.949 C 511.839 334.820, 507.622 337.916, 509.434 332.209 C 509.781 331.113, 517.589 322.645, 526.783 313.391 C 536 304.114, 543.985 295.216, 544.580 293.559 C 545.175 291.905, 546.525 290.315, 547.580 290.026 C 548.636 289.737, 553 286.886, 557.277 283.691 C 568.940 274.978, 580.619 269.130, 595.084 264.759 C 598.341 263.774, 599.070 263.951, 603.084 266.695 C 605.513 268.356, 610.650 271.520, 614.500 273.727 C 620.212 277.001, 629.263 282.480, 643 290.979 C 643.825 291.490, 649.675 295.036, 656 298.860 C 711.657 332.510, 731.279 347.194, 763.034 378.959 C 789.687 405.621, 804.895 424.429, 821.100 450.771 C 829.534 464.480, 846.570 495.036, 847.506 498.131 C 847.900 499.434, 848.827 501.850, 849.566 503.500 C 858.364 523.150, 861.635 545.178, 859.844 572.715 C 858.344 595.772, 854.486 610.915, 845.378 629.500 C 838.637 643.254, 834.301 649.449, 823.115 661.307 C 807.921 677.414, 805.068 681.601, 803.170 690.575 C 801.502 698.461, 803.780 704, 808.691 704 C 810.535 704, 811.486 703.043, 812.915 699.750 C 815 694.943, 817.268 692.635, 824.657 687.798 C 839.782 677.896, 854.225 662.924, 866.425 644.500 C 871.162 637.346, 873.164 633.283, 879.977 617 C 884.353 606.540, 889.044 578.712, 889.332 561.500 C 889.831 531.747, 882.418 509.681, 855.907 462 C 845.632 443.521, 838.473 432.848, 826 417.414 C 821.325 411.629, 815.624 404.557, 813.331 401.698 C 807.876 394.897, 770.690 358.369, 755.723 345.111 C 743.928 334.661, 717.342 314.559, 707.687 308.790 C 707.034 308.400, 701.775 305.182, 696 301.638 C 685.272 295.056, 669.330 285.948, 651.500 276.216 C 638.242 268.979, 603.363 252, 601.754 252 C 600.680 252, 592.316 254.855, 580.701 259.186 C 575.734 261.038, 559.259 270.499, 552.170 275.570 C 548.380 278.281, 544.517 281.814, 543.588 283.421 C 541.924 286.295, 541.867 286.311, 540.032 284.421 C 539.006 283.364, 537.255 280.925, 536.141 279 C 522.231 254.957, 523.179 256.567, 517.877 247.984 C 513.289 240.556, 499.147 216.090, 493.898 206.500 C 492.393 203.750, 490.683 199.025, 490.099 196 C 489.515 192.975, 488.090 186.450, 486.933 181.500 C 483.474 166.705, 479.891 150.813, 478.858 145.691 C 476.748 135.231, 473.892 125.464, 472.551 124.122 C 471.036 122.607, 457.441 121.920, 454.025 123.185 M 457.739 137.683 C 456.586 139.726, 452.724 154.009, 451.465 160.890 C 449.520 171.517, 446.268 186.482, 444.495 192.968 C 443.673 195.975, 443 199.399, 443 200.577 C 443 204.047, 434.734 218.790, 398.085 280.691 C 392.311 290.443, 391.067 293.244, 391.868 294.691 C 392.419 295.686, 399.581 303.176, 407.783 311.336 C 419.791 323.281, 423.262 326.194, 425.598 326.286 C 427.194 326.348, 445.193 326.309, 465.596 326.200 L 502.691 326 518.096 310.483 C 526.568 301.948, 533.647 294.291, 533.826 293.467 C 534.006 292.643, 532.700 289.614, 530.925 286.735 C 529.150 283.856, 526.917 280.150, 525.962 278.500 C 525.008 276.850, 521.756 271.225, 518.736 266 C 504.129 240.726, 495.326 225.839, 490.942 219 C 483.675 207.660, 483.393 206.768, 476.567 173.500 C 472.484 153.595, 470.985 148.297, 468.908 146.417 C 467.055 144.740, 466.999 144.832, 466.982 149.595 C 466.972 152.293, 466.968 176.550, 466.974 203.500 C 466.984 249.094, 467.107 252.588, 468.742 253.765 C 482.479 263.650, 484 265.717, 484 274.491 C 484 282.666, 481.057 288.370, 474.580 292.750 C 470.326 295.627, 468.993 296, 462.977 296 C 456.579 296, 455.888 295.770, 451.216 292.077 C 443.615 286.068, 440.852 278.989, 442.633 270.085 C 443.428 266.110, 451.375 257.159, 455.722 255.343 C 458.310 254.262, 458.994 253.397, 458.969 251.237 C 458.952 249.731, 459.055 223.665, 459.196 193.311 C 459.338 162.956, 459.172 137.839, 458.827 137.494 C 458.482 137.149, 457.993 137.234, 457.739 137.683 M 456.500 263.515 C 452.628 265.888, 449.241 271.259, 449.074 275.290 C 448.941 278.495, 452.836 284.706, 456.237 286.712 C 463.666 291.095, 467.866 290.333, 473.852 283.516 C 476.392 280.623, 477 279.055, 477 275.399 C 477 269.681, 475.909 267.671, 470.798 263.969 C 465.782 260.335, 461.889 260.211, 456.500 263.515 M 584 275.310 C 571.925 280.140, 565.920 283.187, 564.061 285.427 C 563.343 286.292, 562.248 287.018, 561.628 287.041 C 561.007 287.063, 559 288.365, 557.166 289.933 C 552.943 293.546, 553.014 297.330, 557.314 297.823 C 559.379 298.059, 561.539 297.056, 565.439 294.047 C 571.597 289.296, 579.230 285.476, 590.500 281.505 C 600.113 278.119, 601.480 277.047, 600.611 273.585 C 599.695 269.937, 596.640 270.254, 584 275.310 M 656 328 C 656 328.550, 656.454 329, 657.009 329 C 657.564 329, 659.367 330.238, 661.014 331.750 C 662.662 333.262, 666.940 336.750, 670.521 339.500 C 697.103 359.917, 714.509 375.635, 732.853 395.783 C 746.555 410.833, 760.942 429.843, 768.588 443 C 770.666 446.575, 772.912 450.175, 773.581 451 C 777.659 456.032, 788.329 479.734, 795.066 498.726 C 800.763 514.782, 802.001 523.018, 801.987 544.739 C 801.974 563.020, 801.758 565.399, 799.102 576.500 C 795.906 589.856, 792.260 600.175, 788.421 606.725 C 787.018 609.118, 786.012 612.072, 786.185 613.288 C 786.490 615.432, 786.871 615.499, 798.500 615.478 C 812.006 615.452, 816.248 614.038, 821.540 607.794 C 826.991 601.363, 833.020 586.391, 835.100 574.120 C 840.181 544.147, 837.751 528.269, 822.834 494 C 813.256 471.997, 795.639 443.297, 781.189 426.158 C 768.216 410.771, 738.071 381.741, 722.901 370.027 C 707.509 358.141, 699.980 352.771, 684 342.279 C 677.675 338.126, 671.308 333.909, 669.850 332.908 C 668.393 331.907, 666.049 330.799, 664.641 330.446 C 663.234 330.093, 661.558 329.173, 660.919 328.402 C 659.585 326.795, 656 326.502, 656 328 M 430 334.895 C 428.201 335.395, 427.500 336.279, 427.500 338.045 L 427.500 340.500 462 341 C 482.272 341.294, 497.447 341.116, 498.796 340.569 C 501.845 339.331, 501.353 335.818, 498 334.891 C 494.731 333.987, 433.251 333.990, 430 334.895 M 408.156 354.312 C 407.262 355.389, 406.982 398.514, 406.994 533.385 C 407.012 725.917, 407.336 714.662, 401.629 719.924 C 400.183 721.258, 399 723.071, 399 723.953 C 399 724.835, 406.498 732.969, 415.663 742.029 C 438.123 764.231, 438.030 764.147, 439.913 763.803 C 440.823 763.636, 445.714 759.136, 450.784 753.803 L 460 744.107 459.985 550.803 C 459.975 430.586, 459.611 356.933, 459.020 356 C 457.784 354.047, 456.423 353.919, 430.917 353.363 C 413.079 352.974, 409.130 353.139, 408.156 354.312 M 475.328 353.728 C 473.033 353.937, 470.660 354.705, 470.053 355.436 C 469.258 356.394, 468.949 410.965, 468.947 551.132 C 468.944 702.339, 468.672 745.983, 467.721 747.674 C 467.050 748.870, 459.581 756.925, 451.124 765.573 C 436.697 780.328, 435.587 781.241, 433.124 780.380 C 430.028 779.298, 429.054 775.030, 431.449 773.042 C 433.531 771.315, 433.403 769, 431.091 766.535 C 413.876 748.180, 395.176 730, 393.510 730 C 392.203 730, 383.866 737.623, 370.036 751.464 C 349.886 771.630, 348.647 773.083, 349.544 775.486 C 350.769 778.764, 444.945 873.005, 446.976 872.985 C 447.814 872.976, 448.950 872.622, 449.500 872.197 C 450.050 871.772, 466.813 855.002, 486.750 834.930 L 523 798.436 523 794.169 C 523 787.722, 520.693 784, 516.697 784 C 514.908 784, 512.445 783.299, 511.223 782.443 C 509.018 780.899, 509 780.661, 509 753.666 C 509 722.576, 509.128 722, 516.022 722 C 518.862 722, 520.212 721.472, 520.965 720.066 C 521.667 718.753, 522 659.822, 522 536.601 C 522 358.150, 521.967 355.053, 520.066 354.035 C 518.243 353.060, 485.183 352.833, 475.328 353.728 M 527.243 354.157 C 526.262 355.138, 526 391.493, 526 526.618 C 526 620.788, 526.273 698.548, 526.607 699.418 C 527.365 701.393, 531.353 701.485, 532.947 699.564 C 534.590 697.585, 535.350 551.144, 534.300 439 L 533.500 353.500 530.993 353.207 C 529.614 353.046, 527.927 353.473, 527.243 354.157 M 528.250 710.031 C 526.245 710.837, 526 711.633, 526 717.345 C 526 724.569, 525.375 725.433, 519.503 726.338 C 517.305 726.677, 514.943 727.726, 514.253 728.668 C 513.334 729.925, 513 736.566, 513 753.569 C 513 779.406, 512.830 778.765, 519.946 779.720 C 525.278 780.435, 526.467 782.109, 526.198 788.523 C 525.806 797.908, 509.010 797, 683.071 797 C 831.904 797, 837 796.939, 837 795.159 C 837 793.419, 833.392 791.009, 822.920 785.755 C 818.239 783.407, 806.796 773.941, 804.276 770.333 C 798.009 761.360, 797.342 749.061, 802.554 738.565 C 805.901 731.823, 811.712 726.987, 825.489 719.478 C 834.164 714.749, 837.617 711.807, 836.539 710.063 C 835.704 708.713, 531.608 708.681, 528.250 710.031 M 626.427 723.300 C 621.669 725.966, 628.734 730.991, 637.250 730.996 C 641.663 730.999, 643.465 731.465, 645 733 C 646.630 734.630, 647.770 738.618, 646.750 739.124 C 646.612 739.193, 640.359 739.530, 632.854 739.874 C 621.398 740.400, 618.870 740.806, 617.104 742.405 C 615.947 743.453, 615 744.926, 615 745.680 C 615 748.523, 620.397 749.163, 641.717 748.847 C 664.582 748.509, 665.781 748.750, 664.600 753.458 C 663.697 757.057, 658.497 759.991, 653 760.002 C 648.555 760.010, 647.707 760.401, 639.132 766.383 C 634.888 769.344, 633.817 772.417, 636.200 774.800 C 636.940 775.540, 640.573 776, 645.680 776 C 650.411 776, 655.575 776.610, 657.730 777.424 C 659.803 778.207, 665.777 779.039, 671.005 779.272 C 677.154 779.546, 681.639 780.279, 683.706 781.348 C 686.444 782.764, 690.742 783, 713.759 783 C 745.805 783, 745.040 783.225, 743.064 774.397 C 741.659 768.117, 740.934 767.249, 734 763.552 C 731.525 762.233, 727.925 759.806, 726 758.159 C 720.515 753.467, 722.561 752.425, 736.293 752.915 C 752.886 753.508, 753.728 753.470, 755.433 752.055 C 757.287 750.517, 757.503 745.903, 755.800 744.200 C 754.962 743.362, 749.004 742.964, 736.050 742.882 C 725.847 742.817, 716.150 742.420, 714.500 742 L 711.500 741.237 714.193 741.118 C 716.048 741.037, 717.433 740.075, 718.642 738.029 C 719.608 736.394, 721.747 734.587, 723.396 734.012 C 725.966 733.116, 726.188 732.777, 724.947 731.641 C 722.048 728.987, 713.083 726, 708.015 726 C 705.202 726, 701.619 725.337, 700.053 724.527 C 697.739 723.331, 690.705 723.003, 662.529 722.777 C 643.458 722.625, 627.212 722.860, 626.427 723.300 M 700 742 C 700 742.550, 701.773 743, 703.941 743 C 706.109 743, 708.160 742.550, 708.500 742 C 708.878 741.389, 707.344 741, 704.559 741 C 702.052 741, 700 741.450, 700 742 M 546.364 907.170 C 539.206 910.636, 542.749 921, 551.093 921 C 553.922 921, 558 916.572, 558 913.500 C 558 912.075, 556.895 909.805, 555.545 908.455 C 552.962 905.872, 549.923 905.446, 546.364 907.170 M 734.364 907.170 C 727.206 910.636, 730.749 921, 739.093 921 C 741.922 921, 746 916.572, 746 913.500 C 746 912.075, 744.895 909.805, 743.545 908.455 C 740.962 905.872, 737.923 905.446, 734.364 907.170 M 946.364 907.170 C 939.206 910.636, 942.749 921, 951.093 921 C 953.922 921, 958 916.572, 958 913.500 C 958 912.075, 956.895 909.805, 955.545 908.455 C 952.962 905.872, 949.923 905.446, 946.364 907.170 M 155 908 C 155 908.550, 156.250 909, 157.777 909 C 159.305 909, 161.555 909.701, 162.777 910.557 C 164.991 912.107, 165 912.233, 165 942.500 C 165 972.767, 164.991 972.893, 162.777 974.443 C 161.555 975.299, 159.305 976, 157.777 976 C 156.250 976, 155 976.450, 155 977 C 155 977.631, 161.833 978, 173.500 978 C 185.167 978, 192 977.631, 192 977 C 192 976.450, 190.650 976, 189 976 C 187.333 976, 185.111 975.111, 184 974 C 182.189 972.189, 182 970.667, 182 957.868 L 182 943.737 186.038 944.278 C 193.332 945.257, 197.743 949.668, 198.722 956.962 C 199.020 959.183, 199.654 961, 200.132 961 C 200.609 961, 201 952.225, 201 941.500 C 201 929.167, 200.632 922, 200 922 C 199.450 922, 199 923.139, 199 924.532 C 199 931.638, 193.461 937.968, 186.562 938.746 L 182 939.260 182 925.630 L 182 912 189.851 912 C 194.169 912, 199.231 912.512, 201.101 913.139 C 207.161 915.168, 212 921.079, 212 926.450 C 212 928.050, 212.559 929, 213.500 929 C 214.742 929, 215 927.111, 215 918 L 215 907 185 907 C 165.667 907, 155 907.356, 155 908 M 338 907.793 C 338 908.229, 339.462 909.017, 341.250 909.543 L 344.500 910.500 344.782 922.866 L 345.063 935.231 341.955 932.615 C 338.190 929.448, 335.058 928.567, 330.306 929.338 C 321.340 930.793, 314.630 939.609, 313.385 951.569 C 311.871 966.112, 320.633 979, 332.034 979 C 335.706 979, 338.507 977.681, 342.250 974.191 L 345 971.626 345 975.380 C 345 978.477, 345.307 979.048, 346.750 978.642 C 347.712 978.371, 349.850 977.913, 351.500 977.624 C 361.752 975.829, 366 974.746, 366 973.929 C 366 973.418, 365.190 973, 364.200 973 C 360.143 973, 360 971.834, 360 938.800 L 360 907 349 907 C 342.950 907, 338 907.357, 338 907.793 M 591 908 C 591 908.550, 592.264 909, 593.809 909 C 595.354 909, 597.491 909.638, 598.559 910.418 C 600.372 911.742, 600.533 913.573, 601 938.168 C 601.459 962.336, 601.668 964.788, 603.539 968 C 606.554 973.177, 613.894 977.718, 620.599 978.556 C 632.266 980.013, 641.412 977.407, 647.689 970.838 C 652.903 965.380, 653.252 963.452, 653.768 937.226 L 654.247 912.951 656.758 910.976 C 658.140 909.889, 660.334 909, 661.635 909 C 662.936 909, 664 908.550, 664 908 C 664 907.389, 659.333 907, 652 907 C 640.319 907, 636.437 908.109, 643.488 909.432 C 649.215 910.506, 649.508 911.873, 649.429 937.098 C 649.361 958.944, 649.278 959.859, 646.929 964.598 C 641.358 975.840, 625.882 977.378, 619.304 967.343 C 617.680 964.865, 617.500 961.953, 617.500 938.216 C 617.500 913.264, 617.605 911.766, 619.441 910.421 C 620.509 909.640, 622.871 909, 624.691 909 C 626.511 909, 628 908.550, 628 908 C 628 907.369, 621.167 907, 609.500 907 C 597.833 907, 591 907.369, 591 908 M 981.989 917.017 C 980.219 919.776, 975.897 924.666, 972.385 927.884 C 968.873 931.102, 966 934.020, 966 934.367 C 966 934.715, 967.350 935, 969 935 L 972 935 972.006 950.750 C 972.012 968.044, 972.793 972.518, 976.400 975.906 C 981.604 980.795, 992.103 979.168, 995.926 972.881 C 998.456 968.722, 997.670 967.421, 994.526 970.565 C 993.187 971.904, 991.485 973, 990.745 973 C 987.422 973, 987 970.725, 987 952.800 L 987 935 992.500 935 C 997.700 935, 998 934.864, 998 932.500 C 998 930.136, 997.700 930, 992.500 930 L 987 930 987 921 C 987 916.050, 986.597 912, 986.104 912 C 985.612 912, 983.760 914.258, 981.989 917.017 M 236.500 930.061 C 231.920 931.405, 226.438 936.471, 223.851 941.749 C 220.637 948.307, 220.554 961.565, 223.691 967.500 C 229.073 977.683, 239.701 981.589, 249.688 977.055 C 253.738 975.216, 259.214 969.053, 260.556 964.823 C 261.619 961.473, 260.448 961.787, 256.260 965.975 C 251.222 971.014, 246.837 971.417, 241.934 967.291 C 238.485 964.389, 235.058 957.923, 235.022 954.250 C 235 952.031, 235.179 952, 248 952 L 261 952 260.978 948.250 C 260.936 941.015, 255.196 932.524, 248.685 930.064 C 245.395 928.821, 240.729 928.820, 236.500 930.061 M 296.500 930.647 C 294.850 931.508, 292.054 933.853, 290.288 935.857 L 287.075 939.500 287.038 934.750 L 287 930 277 930 C 266.898 930, 264.934 930.738, 269.500 932.818 L 272 933.957 272 954 L 272 974.043 269.500 975.182 C 268.125 975.808, 267 976.699, 267 977.161 C 267 977.622, 272.850 978, 280 978 C 287.150 978, 293 977.649, 293 977.219 C 293 976.790, 291.607 975.913, 289.905 975.270 L 286.810 974.102 287.155 959.622 C 287.461 946.790, 287.739 944.821, 289.600 942.321 C 292.363 938.610, 295.027 938.335, 297.961 941.458 C 302.614 946.411, 308 943.605, 308 936.228 C 308 929.680, 302.999 927.253, 296.500 930.647 M 385.637 930.465 C 380.901 932.153, 376.516 936.197, 373.670 941.500 C 370.580 947.259, 370.598 960.760, 373.703 966.595 C 378.318 975.267, 386.763 979.775, 396.288 978.650 C 408.623 977.194, 416.013 967.807, 415.990 953.624 C 415.963 936.303, 401.091 924.956, 385.637 930.465 M 507.071 930.707 C 501.895 933.414, 499.500 937.302, 499.500 943 C 499.500 949.028, 501.443 951.839, 510.080 958.308 C 520.278 965.946, 521 966.720, 521 970.015 C 521 973.572, 517.673 975.637, 513.592 974.612 C 510.112 973.739, 504.518 968.664, 503.002 965.005 C 500.778 959.637, 499.716 961.535, 500.206 970.001 C 500.714 978.772, 501.342 980.282, 503.346 977.542 C 504.617 975.803, 504.884 975.801, 509.945 977.482 C 522.440 981.632, 531.988 975.413, 531.996 963.118 C 532 958.092, 531.719 957.465, 527.732 953.618 C 525.385 951.353, 520.435 947.373, 516.732 944.774 C 511.709 941.248, 510 939.459, 510 937.724 C 510 929.423, 521.866 932.875, 526.436 942.506 C 529.254 948.444, 530.281 946.845, 529.492 937.750 C 529.098 933.212, 528.565 929.276, 528.306 929.002 C 528.048 928.727, 527.191 929.386, 526.402 930.465 C 525.098 932.248, 524.674 932.303, 521.734 931.070 C 516.446 928.852, 510.881 928.714, 507.071 930.707 M 696.500 930.573 C 694.850 931.431, 692.571 933.003, 691.436 934.066 C 688.623 936.701, 688 936.508, 688 933 L 688 930 678.500 930 C 669.670 930, 666.431 931.050, 670.892 932.466 C 673.650 933.341, 673.971 935.660, 673.986 954.795 C 674 971.919, 673.975 972.116, 671.500 974.591 C 670.125 975.966, 669 977.295, 669 977.545 C 669 977.795, 674.400 978, 681 978 C 687.600 978, 693 977.735, 693 977.410 C 693 977.086, 691.987 976.002, 690.750 975.001 C 688.657 973.309, 688.477 972.258, 688.168 959.984 C 687.789 944.864, 688.047 943.286, 691.589 939.077 C 694.567 935.538, 698.402 935.015, 699.965 937.934 C 700.558 939.043, 701 946.905, 701 956.363 C 701 970.024, 700.730 973.127, 699.429 974.429 C 698.564 975.293, 697.439 976, 696.929 976 C 696.418 976, 696 976.450, 696 977 C 696 977.613, 700.833 978, 708.500 978 C 720.824 978, 723.168 977.425, 718.750 975.487 C 716.569 974.530, 716.482 973.945, 715.924 956.500 C 715.272 936.121, 714.345 932.878, 708.466 930.421 C 704.062 928.581, 700.236 928.630, 696.500 930.573 M 822.500 930.061 C 817.920 931.405, 812.438 936.471, 809.851 941.749 C 806.637 948.307, 806.554 961.565, 809.691 967.500 C 815.073 977.683, 825.701 981.589, 835.688 977.055 C 839.738 975.216, 845.214 969.053, 846.556 964.823 C 847.619 961.473, 846.448 961.787, 842.260 965.975 C 839.076 969.159, 837.496 970, 834.694 970 C 828.645 970, 823.012 963.914, 821.474 955.715 L 820.777 952 833.889 952 L 847 952 846.978 948.250 C 846.936 941.015, 841.196 932.524, 834.685 930.064 C 831.395 928.821, 826.729 928.820, 822.500 930.061 M 882.500 930.647 C 880.850 931.508, 878.054 933.853, 876.288 935.857 L 873.075 939.500 873.038 934.750 L 873 930 863 930 C 852.898 930, 850.934 930.738, 855.500 932.818 L 858 933.957 858 954 L 858 974.043 855.500 975.182 C 854.125 975.808, 853 976.699, 853 977.161 C 853 977.622, 858.850 978, 866 978 C 874 978, 879 977.615, 879 977 C 879 976.450, 878.155 976, 877.122 976 C 873.321 976, 872.790 973.740, 873.153 959.103 C 873.459 946.803, 873.750 944.807, 875.600 942.321 C 878.363 938.610, 881.027 938.335, 883.961 941.458 C 888.581 946.376, 894 943.606, 894 936.326 C 894 929.582, 889.138 927.180, 882.500 930.647 M 907.071 930.707 C 901.895 933.414, 899.500 937.302, 899.500 943 C 899.500 949.028, 901.443 951.839, 910.080 958.308 C 920.278 965.946, 921 966.720, 921 970.015 C 921 973.572, 917.673 975.637, 913.592 974.612 C 910.112 973.739, 904.518 968.664, 903.002 965.005 C 900.778 959.637, 899.716 961.535, 900.206 970.001 C 900.714 978.772, 901.342 980.282, 903.346 977.542 C 904.617 975.803, 904.884 975.801, 909.945 977.482 C 922.440 981.632, 931.988 975.413, 931.996 963.118 C 932 958.092, 931.719 957.465, 927.732 953.618 C 925.385 951.353, 920.435 947.373, 916.732 944.774 C 911.709 941.248, 910 939.459, 910 937.724 C 910 929.423, 921.866 932.875, 926.436 942.506 C 929.254 948.444, 930.281 946.845, 929.492 937.750 C 929.098 933.212, 928.565 929.276, 928.306 929.002 C 928.048 928.727, 927.191 929.386, 926.402 930.465 C 925.098 932.248, 924.674 932.303, 921.734 931.070 C 916.446 928.852, 910.881 928.714, 907.071 930.707 M 420 930.965 C 420 931.495, 420.947 932.436, 422.104 933.056 C 424.669 934.428, 427.876 941.490, 435.597 962.768 C 439.910 974.654, 441.901 978.961, 442.988 978.757 C 443.910 978.584, 446.762 972.332, 450.488 962.312 C 453.795 953.422, 456.765 945.886, 457.090 945.567 C 457.414 945.248, 460.562 952.640, 464.085 961.993 C 468.477 973.653, 470.964 978.998, 471.995 978.992 C 473.049 978.987, 475.863 972.380, 481.379 956.963 C 487.105 940.960, 489.906 934.433, 491.629 933.077 C 492.933 932.051, 494 930.939, 494 930.606 C 494 930.273, 490.850 930, 487 930 C 480.318 930, 477.744 931.177, 481.995 932.288 C 483.092 932.575, 484.271 933.543, 484.615 934.439 C 485.367 936.400, 478.043 957.485, 477.015 956.317 C 475.453 954.544, 468.865 934.793, 469.384 933.440 C 469.688 932.648, 470.626 932, 471.469 932 C 472.311 932, 473 931.550, 473 931 C 473 930.389, 468.333 930, 461 930 C 454.400 930, 449 930.190, 449 930.423 C 449 930.656, 450.350 932.196, 452 933.846 C 453.650 935.496, 455 937.754, 455 938.863 C 455 941.075, 450.239 955.017, 449.046 956.299 C 448.351 957.045, 441.967 941.700, 440.439 935.614 C 439.873 933.358, 440.126 932.780, 441.876 932.322 C 447.105 930.955, 443.043 930, 432 930 C 424.958 930, 420 930.399, 420 930.965 M 537 931 C 537 931.550, 537.649 932, 538.443 932 C 539.237 932, 540.587 933, 541.443 934.223 C 542.713 936.036, 543 939.784, 543 954.568 C 543 970.854, 542.815 972.858, 541.171 974.345 C 540.165 975.255, 538.815 976, 538.171 976 C 537.527 976, 537 976.450, 537 977 C 537 977.615, 542 978, 550 978 C 562.809 978, 565.281 977.360, 560.642 975.247 C 557.398 973.769, 557 970.884, 557 948.875 L 557 930 547 930 C 541 930, 537 930.400, 537 931 M 725 931 C 725 931.550, 725.649 932, 726.443 932 C 727.237 932, 728.587 933, 729.443 934.223 C 730.709 936.029, 731 939.730, 731 954 C 731 968.270, 730.709 971.971, 729.443 973.777 C 728.587 975, 727.237 976, 726.443 976 C 725.649 976, 725 976.450, 725 977 C 725 977.615, 730 978, 738 978 C 750.809 978, 753.281 977.360, 748.642 975.247 C 745.398 973.769, 745 970.884, 745 948.875 L 745 930 735 930 C 729 930, 725 930.400, 725 931 M 752 930.423 C 752 930.656, 753.258 932.118, 754.795 933.673 C 756.461 935.357, 761.396 945.091, 767.003 957.750 C 772.179 969.438, 776.938 979, 777.578 979 C 778.219 979, 782.684 969.888, 787.501 958.750 C 797.511 935.604, 798.758 933.211, 801.216 932.431 C 805.336 931.124, 802.463 930, 795 930 C 787.243 930, 784.514 931.159, 789.390 932.383 C 790.704 932.713, 792.014 933.595, 792.301 934.343 C 792.877 935.843, 789.479 946.497, 785.753 954.875 L 783.363 960.250 778.131 948.507 C 775.253 942.049, 773.037 936.030, 773.205 935.132 C 773.374 934.235, 774.522 933.056, 775.756 932.513 C 780.193 930.561, 777.791 930, 765 930 C 757.850 930, 752 930.190, 752 930.423 M 937 931 C 937 931.550, 937.649 932, 938.443 932 C 939.237 932, 940.587 933, 941.443 934.223 C 942.713 936.036, 943 939.784, 943 954.568 C 943 970.854, 942.815 972.858, 941.171 974.345 C 940.165 975.255, 938.815 976, 938.171 976 C 937.527 976, 937 976.450, 937 977 C 937 977.615, 942 978, 950 978 C 962.809 978, 965.281 977.360, 960.642 975.247 C 957.398 973.769, 957 970.884, 957 948.875 L 957 930 947 930 C 941 930, 937 930.400, 937 931 M 999 930.965 C 999 931.495, 999.901 932.412, 1001.001 933.001 C 1003.359 934.263, 1005.648 938.627, 1016.071 961.731 L 1023.844 978.962 1021.365 985.378 C 1018.790 992.039, 1015.895 995.671, 1014.063 994.539 C 1013.478 994.178, 1013 992.853, 1013 991.596 C 1013 988.791, 1010.093 986, 1007.171 986 C 1004.470 986, 1001 989.347, 1001 991.953 C 1001 1001.530, 1013.230 1004.202, 1019.732 996.046 C 1020.410 995.196, 1025.957 981.924, 1032.058 966.554 C 1044.860 934.304, 1045.303 933.356, 1047.989 932.503 C 1052.322 931.128, 1049.624 930, 1042 930 C 1037.333 930, 1034 930.417, 1034 931 C 1034 931.550, 1034.643 932, 1035.429 932 C 1037.828 932, 1040.119 935.023, 1039.486 937.355 C 1038.187 942.146, 1031.462 959.991, 1030.955 959.995 C 1030.655 959.998, 1028 954.390, 1025.054 947.534 C 1020.594 937.152, 1019.912 934.812, 1020.972 933.534 C 1021.672 932.690, 1022.865 932, 1023.622 932 C 1024.380 932, 1025 931.550, 1025 931 C 1025 930.385, 1020 930, 1012 930 C 1004.316 930, 999 930.395, 999 930.965 M 238.783 934.750 C 236.166 937.751, 235 940.735, 235 944.434 L 235 948 242.139 948 L 249.279 948 248.671 942.874 C 248.337 940.054, 247.364 936.679, 246.509 935.374 C 244.665 932.559, 240.956 932.260, 238.783 934.750 M 331.579 935.250 C 326.664 942.788, 327.005 963.922, 332.147 970.459 C 334.824 973.863, 338.430 973.724, 342.077 970.077 L 345 967.154 345 954.445 C 345 943.300, 344.743 941.320, 342.911 938.355 C 339.390 932.658, 334.197 931.235, 331.579 935.250 M 389.138 935.552 C 386.569 938.817, 385.624 946.476, 386.202 959.344 C 386.674 969.843, 387.906 973.518, 391.320 974.601 C 394.138 975.496, 397.353 974.308, 398.938 971.787 C 400.568 969.194, 401.673 948.973, 400.582 941.699 C 399.373 933.638, 393.236 930.341, 389.138 935.552 M 824.783 934.750 C 822.166 937.751, 821 940.735, 821 944.434 L 821 948 828.139 948 L 835.279 948 834.671 942.874 C 834.337 940.054, 833.364 936.679, 832.509 935.374 C 830.665 932.559, 826.956 932.260, 824.783 934.750 M 397.404 1013.392 C 390.926 1016.409, 387.999 1020.921, 387.264 1029.025 C 386.740 1034.807, 386.630 1035, 383.861 1035 C 381.476 1035, 381 1035.416, 381 1037.500 C 381 1039.585, 381.476 1040, 383.866 1040 L 386.733 1040 387.369 1056.250 C 388.148 1076.139, 387.633 1079.147, 383.223 1080.457 C 377.015 1082.300, 380.121 1083, 394.500 1083 C 403.500 1083, 409 1082.621, 409 1082 C 409 1081.450, 408.132 1081, 407.071 1081 C 402.440 1081, 402 1079.086, 402 1058.929 L 402 1040 405.500 1040 C 408.567 1040, 409 1039.690, 409 1037.500 C 409 1035.305, 408.569 1035, 405.464 1035 L 401.928 1035 402.214 1025.250 C 402.497 1015.593, 402.524 1015.500, 405 1015.500 C 407.222 1015.500, 407.511 1015.934, 407.602 1019.405 C 407.715 1023.705, 409.834 1026, 413.691 1026 C 416.558 1026, 420 1022.691, 420 1019.934 C 420 1011.853, 408.106 1008.409, 397.404 1013.392 M 439 1013 C 439 1013.550, 440.350 1014, 442 1014 C 443.667 1014, 445.889 1014.889, 447 1016 C 448.908 1017.908, 449 1019.333, 449 1047.045 L 449 1076.091 446.545 1078.545 C 445.195 1079.895, 442.945 1081, 441.545 1081 C 440.145 1081, 439 1081.450, 439 1082 C 439 1082.611, 443.667 1083, 451 1083 C 462.694 1083, 466.562 1081.891, 459.492 1080.565 C 453.090 1079.363, 452.935 1078.562, 453.234 1048.034 L 453.500 1020.766 466.870 1051.883 C 474.224 1068.997, 480.524 1082.997, 480.870 1082.993 C 481.217 1082.989, 487.350 1068.994, 494.500 1051.893 L 507.500 1020.800 507.776 1049.150 C 508.047 1077.056, 508.018 1077.527, 505.915 1079.250 C 504.740 1080.213, 502.703 1081, 501.389 1081 C 500.075 1081, 499 1081.450, 499 1082 C 499 1082.630, 505.667 1083, 517 1083 C 528.333 1083, 535 1082.630, 535 1082 C 535 1081.450, 533.650 1081, 532 1081 C 530.313 1081, 528.106 1080.106, 526.958 1078.958 C 524.979 1076.979, 524.925 1075.990, 525.208 1046.876 C 525.484 1018.477, 525.606 1016.759, 527.441 1015.418 C 528.509 1014.638, 530.646 1014, 532.191 1014 C 533.736 1014, 535 1013.538, 535 1012.973 C 535 1012.305, 530.060 1012.042, 520.885 1012.223 L 506.771 1012.500 497.635 1034.669 C 492.611 1046.861, 488.127 1056.986, 487.670 1057.169 C 487.214 1057.351, 482.489 1047.271, 477.170 1034.768 L 467.500 1012.036 453.250 1012.018 C 444.405 1012.007, 439 1012.379, 439 1013 M 632 1012.455 C 632 1012.705, 633.125 1014.034, 634.500 1015.409 L 637 1017.909 637 1047.500 L 637 1077.091 634.500 1079.591 C 633.125 1080.966, 632 1082.295, 632 1082.545 C 632 1082.795, 637.400 1083, 644 1083 C 650.600 1083, 656 1082.735, 656 1082.410 C 656 1082.086, 654.987 1081.001, 653.750 1080 C 651.623 1078.279, 651.482 1077.338, 651.164 1062.788 L 650.828 1047.396 653.815 1044.198 C 657.260 1040.510, 661.364 1039.944, 662.965 1042.934 C 663.558 1044.043, 664 1051.905, 664 1061.363 C 664 1075.024, 663.730 1078.127, 662.429 1079.429 C 661.564 1080.293, 660.439 1081, 659.929 1081 C 659.418 1081, 659 1081.450, 659 1082 C 659 1082.613, 663.833 1083, 671.500 1083 C 678.375 1083, 684 1082.622, 684 1082.161 C 684 1081.699, 682.875 1080.808, 681.500 1080.182 C 679.015 1079.050, 679 1078.960, 678.927 1065.271 C 678.828 1046.532, 678.044 1041.699, 674.503 1038.003 C 669.502 1032.783, 660.154 1033.013, 655.016 1038.483 C 653.715 1039.867, 652.280 1041, 651.826 1041 C 651.372 1041, 651 1034.475, 651 1026.500 L 651 1012 641.500 1012 C 636.275 1012, 632 1012.205, 632 1012.455 M 690 1012.455 C 690 1012.705, 691.125 1014.034, 692.500 1015.409 L 695 1017.909 695 1047.500 L 695 1077.091 692.500 1079.591 C 691.125 1080.966, 690 1082.295, 690 1082.545 C 690 1082.795, 695.400 1083, 702 1083 C 708.600 1083, 714 1082.735, 714 1082.410 C 714 1082.086, 712.987 1081.001, 711.750 1080 C 709.623 1078.279, 709.482 1077.338, 709.164 1062.788 L 708.828 1047.396 711.815 1044.198 C 715.260 1040.510, 719.364 1039.944, 720.965 1042.934 C 721.558 1044.043, 722 1051.905, 722 1061.363 C 722 1075.024, 721.730 1078.127, 720.429 1079.429 C 719.564 1080.293, 718.439 1081, 717.929 1081 C 717.418 1081, 717 1081.450, 717 1082 C 717 1082.613, 721.833 1083, 729.500 1083 C 736.375 1083, 742 1082.622, 742 1082.161 C 742 1081.699, 740.875 1080.808, 739.500 1080.182 C 737.015 1079.050, 737 1078.960, 736.927 1065.271 C 736.825 1045.946, 736.074 1041.613, 732.152 1037.691 C 729.356 1034.894, 728.297 1034.500, 723.584 1034.500 C 719.012 1034.500, 717.599 1034.988, 714.161 1037.750 C 711.937 1039.537, 709.866 1041, 709.559 1041 C 709.251 1041, 709 1034.475, 709 1026.500 L 709 1012 699.500 1012 C 694.275 1012, 690 1012.205, 690 1012.455 M 825 1012.793 C 825 1013.229, 826.462 1014.017, 828.250 1014.543 L 831.500 1015.500 831.782 1027.866 L 832.063 1040.231 828.955 1037.615 C 825.190 1034.448, 822.058 1033.567, 817.306 1034.338 C 811.538 1035.274, 806.500 1039.278, 803.580 1045.248 C 796.892 1058.916, 800.764 1076.741, 811.566 1082.015 C 818.418 1085.361, 823.506 1084.548, 829.250 1079.191 L 832 1076.626 832 1080.380 C 832 1083.477, 832.307 1084.048, 833.750 1083.642 C 834.712 1083.371, 836.850 1082.913, 838.500 1082.624 C 848.752 1080.829, 853 1079.746, 853 1078.929 C 853 1078.418, 852.190 1078, 851.200 1078 C 847.143 1078, 847 1076.834, 847 1043.800 L 847 1012 836 1012 C 829.950 1012, 825 1012.357, 825 1012.793 M 343.637 1035.465 C 338.901 1037.153, 334.516 1041.197, 331.670 1046.500 C 328.580 1052.259, 328.598 1065.760, 331.703 1071.595 C 336.318 1080.267, 344.763 1084.775, 354.288 1083.650 C 366.623 1082.194, 374.013 1072.807, 373.990 1058.624 C 373.963 1041.303, 359.091 1029.956, 343.637 1035.465 M 553.009 1035.961 C 541.190 1040.040, 537.880 1051.175, 547.751 1053.652 C 550.940 1054.453, 555.337 1052.203, 555.857 1049.505 C 556.061 1048.445, 555.405 1046.050, 554.399 1044.183 C 552.619 1040.877, 552.621 1040.751, 554.476 1039.394 C 556.991 1037.555, 561.020 1037.625, 563.777 1039.557 C 565.643 1040.863, 566 1042.052, 566 1046.951 L 566 1052.788 557.456 1057.080 C 546.411 1062.629, 541 1068.210, 541 1074.055 C 541 1077.290, 541.642 1078.796, 544.048 1081.202 C 546.781 1083.935, 547.568 1084.196, 551.665 1083.734 C 554.541 1083.410, 557.870 1082.067, 560.647 1080.110 C 565.517 1076.677, 567 1076.284, 567 1078.427 C 567 1080.641, 571.943 1084, 575.201 1084 C 578.535 1084, 581.491 1082.669, 584.750 1079.701 C 587.723 1076.993, 587.589 1076.083, 584.250 1076.312 L 581.500 1076.500 580.998 1059.954 C 580.426 1041.079, 579.760 1039.156, 572.672 1035.938 C 567.361 1033.527, 560.036 1033.535, 553.009 1035.961 M 600.071 1035.707 C 594.895 1038.414, 592.500 1042.302, 592.500 1048 C 592.500 1054.028, 594.443 1056.839, 603.080 1063.308 C 613.278 1070.946, 614 1071.720, 614 1075.015 C 614 1078.572, 610.673 1080.637, 606.592 1079.612 C 603.112 1078.739, 597.518 1073.664, 596.002 1070.005 C 593.778 1064.637, 592.716 1066.535, 593.206 1075.001 C 593.714 1083.772, 594.342 1085.282, 596.346 1082.542 C 597.617 1080.803, 597.884 1080.801, 602.945 1082.482 C 615.440 1086.632, 624.988 1080.413, 624.996 1068.118 C 625 1063.092, 624.719 1062.465, 620.732 1058.618 C 618.385 1056.353, 613.435 1052.373, 609.732 1049.774 C 604.709 1046.248, 603 1044.459, 603 1042.724 C 603 1034.423, 614.866 1037.875, 619.436 1047.506 C 622.254 1053.444, 623.281 1051.845, 622.492 1042.750 C 622.098 1038.213, 621.565 1034.276, 621.306 1034.002 C 621.048 1033.727, 620.191 1034.386, 619.402 1035.465 C 618.098 1037.248, 617.674 1037.303, 614.734 1036.070 C 609.446 1033.852, 603.881 1033.714, 600.071 1035.707 M 761.009 1035.961 C 749.190 1040.040, 745.880 1051.175, 755.751 1053.652 C 758.940 1054.453, 763.337 1052.203, 763.857 1049.505 C 764.061 1048.445, 763.405 1046.050, 762.399 1044.183 C 760.619 1040.877, 760.621 1040.751, 762.476 1039.394 C 764.991 1037.555, 769.020 1037.625, 771.777 1039.557 C 773.643 1040.863, 774 1042.052, 774 1046.951 L 774 1052.788 765.456 1057.080 C 754.411 1062.629, 749 1068.210, 749 1074.055 C 749 1077.290, 749.642 1078.796, 752.048 1081.202 C 754.781 1083.935, 755.568 1084.196, 759.665 1083.734 C 762.541 1083.410, 765.870 1082.067, 768.647 1080.110 C 773.517 1076.677, 775 1076.284, 775 1078.427 C 775 1080.641, 779.943 1084, 783.201 1084 C 786.535 1084, 789.491 1082.669, 792.750 1079.701 C 795.723 1076.993, 795.589 1076.083, 792.250 1076.312 L 789.500 1076.500 788.998 1059.954 C 788.426 1041.079, 787.760 1039.156, 780.672 1035.938 C 775.361 1033.527, 768.036 1033.535, 761.009 1035.961 M 347.138 1040.552 C 344.586 1043.795, 343.668 1051.159, 344.159 1064.433 C 344.506 1073.807, 344.795 1075.153, 346.948 1077.444 C 351.697 1082.500, 357.246 1079.521, 358.371 1071.310 C 359.349 1064.171, 359.101 1047.905, 357.951 1043.762 C 356.269 1037.706, 350.681 1036.047, 347.138 1040.552 M 818.563 1040.263 C 814.895 1045.861, 814.020 1063.662, 817.024 1071.563 C 819.686 1078.564, 824.257 1079.897, 829.077 1075.077 L 832 1072.154 832 1059.445 C 832 1048.300, 831.743 1046.320, 829.911 1043.355 C 826.384 1037.650, 821.201 1036.237, 818.563 1040.263 M 561.805 1059.075 C 555.754 1063.592, 553.293 1071.145, 556.829 1074.345 C 559.111 1076.411, 560.932 1076.436, 563.777 1074.443 C 565.757 1073.057, 566 1072.018, 566 1064.943 C 566 1060.574, 565.663 1057.014, 565.250 1057.032 C 564.837 1057.049, 563.287 1057.969, 561.805 1059.075 M 769.805 1059.075 C 763.754 1063.592, 761.293 1071.145, 764.829 1074.345 C 767.111 1076.411, 768.932 1076.436, 771.777 1074.443 C 773.757 1073.057, 774 1072.018, 774 1064.943 C 774 1060.574, 773.663 1057.014, 773.250 1057.032 C 772.837 1057.049, 771.287 1057.969, 769.805 1059.075" stroke="none" fill="#232323" fill-rule="evenodd"/><path d="M 0 590.501 L 0 1181.002 590.750 1180.751 L 1181.500 1180.500 1181.751 590.250 L 1182.002 0 591.001 0 L 0 0 0 590.501 M 0.497 591 C 0.497 915.775, 0.611 1048.637, 0.750 886.250 C 0.889 723.862, 0.889 458.137, 0.750 295.750 C 0.611 133.362, 0.497 266.225, 0.497 591 M 454.025 123.185 C 453.008 123.562, 451.959 124.687, 451.693 125.685 C 447.647 140.904, 445.834 148.627, 438.944 180 C 433.798 203.430, 432.622 206.397, 421.172 224.823 C 418.327 229.401, 416 233.304, 416 233.496 C 416 233.689, 411.837 240.773, 406.750 249.239 C 401.663 257.706, 395.250 268.537, 392.500 273.308 C 389.750 278.080, 386.038 284.277, 384.250 287.079 C 382.462 289.882, 381 293.082, 381 294.190 C 381 295.490, 387.631 302.664, 399.666 314.386 L 418.333 332.565 418.151 337.709 C 418.005 341.807, 418.429 343.363, 420.234 345.371 L 422.500 347.889 444.500 348.061 C 456.600 348.156, 475.408 348.181, 486.295 348.117 C 505.935 348.001, 506.110 347.981, 508.558 345.533 C 510.971 343.119, 511.051 343.109, 512.253 345.033 C 513.784 347.485, 519.496 347.755, 520.393 345.418 C 520.727 344.548, 520.998 342.186, 520.997 340.168 C 520.993 336.758, 522.089 335.417, 536.551 321.125 C 549.719 308.113, 552.062 305.347, 551.804 303.125 C 551.593 301.301, 550.828 300.404, 549.297 300.187 C 547.592 299.944, 542.974 303.957, 528.859 317.949 C 511.839 334.820, 507.622 337.916, 509.434 332.209 C 509.781 331.113, 517.589 322.645, 526.783 313.391 C 536 304.114, 543.985 295.216, 544.580 293.559 C 545.175 291.905, 546.525 290.315, 547.580 290.026 C 548.636 289.737, 553 286.886, 557.277 283.691 C 568.940 274.978, 580.619 269.130, 595.084 264.759 C 598.341 263.774, 599.070 263.951, 603.084 266.695 C 605.513 268.356, 610.650 271.520, 614.500 273.727 C 620.212 277.001, 629.263 282.480, 643 290.979 C 643.825 291.490, 649.675 295.036, 656 298.860 C 711.657 332.510, 731.279 347.194, 763.034 378.959 C 789.687 405.621, 804.895 424.429, 821.100 450.771 C 829.534 464.480, 846.570 495.036, 847.506 498.131 C 847.900 499.434, 848.827 501.850, 849.566 503.500 C 858.364 523.150, 861.635 545.178, 859.844 572.715 C 858.344 595.772, 854.486 610.915, 845.378 629.500 C 838.637 643.254, 834.301 649.449, 823.115 661.307 C 807.921 677.414, 805.068 681.601, 803.170 690.575 C 801.502 698.461, 803.780 704, 808.691 704 C 810.535 704, 811.486 703.043, 812.915 699.750 C 815 694.943, 817.268 692.635, 824.657 687.798 C 839.782 677.896, 854.225 662.924, 866.425 644.500 C 871.162 637.346, 873.164 633.283, 879.977 617 C 884.353 606.540, 889.044 578.712, 889.332 561.500 C 889.831 531.747, 882.418 509.681, 855.907 462 C 845.632 443.521, 838.473 432.848, 826 417.414 C 821.325 411.629, 815.624 404.557, 813.331 401.698 C 807.876 394.897, 770.690 358.369, 755.723 345.111 C 743.928 334.661, 717.342 314.559, 707.687 308.790 C 707.034 308.400, 701.775 305.182, 696 301.638 C 685.272 295.056, 669.330 285.948, 651.500 276.216 C 638.242 268.979, 603.363 252, 601.754 252 C 600.680 252, 592.316 254.855, 580.701 259.186 C 575.734 261.038, 559.259 270.499, 552.170 275.570 C 548.380 278.281, 544.517 281.814, 543.588 283.421 C 541.924 286.295, 541.867 286.311, 540.032 284.421 C 539.006 283.364, 537.255 280.925, 536.141 279 C 522.231 254.957, 523.179 256.567, 517.877 247.984 C 513.289 240.556, 499.147 216.090, 493.898 206.500 C 492.393 203.750, 490.683 199.025, 490.099 196 C 489.515 192.975, 488.090 186.450, 486.933 181.500 C 483.474 166.705, 479.891 150.813, 478.858 145.691 C 476.748 135.231, 473.892 125.464, 472.551 124.122 C 471.036 122.607, 457.441 121.920, 454.025 123.185 M 457.739 137.683 C 456.586 139.726, 452.724 154.009, 451.465 160.890 C 449.520 171.517, 446.268 186.482, 444.495 192.968 C 443.673 195.975, 443 199.399, 443 200.577 C 443 204.047, 434.734 218.790, 398.085 280.691 C 392.311 290.443, 391.067 293.244, 391.868 294.691 C 392.419 295.686, 399.581 303.176, 407.783 311.336 C 419.791 323.281, 423.262 326.194, 425.598 326.286 C 427.194 326.348, 445.193 326.309, 465.596 326.200 L 502.691 326 518.096 310.483 C 526.568 301.948, 533.647 294.291, 533.826 293.467 C 534.006 292.643, 532.700 289.614, 530.925 286.735 C 529.150 283.856, 526.917 280.150, 525.962 278.500 C 525.008 276.850, 521.756 271.225, 518.736 266 C 504.129 240.726, 495.326 225.839, 490.942 219 C 483.675 207.660, 483.393 206.768, 476.567 173.500 C 472.484 153.595, 470.985 148.297, 468.908 146.417 C 467.055 144.740, 466.999 144.832, 466.982 149.595 C 466.972 152.293, 466.968 176.550, 466.974 203.500 C 466.984 249.094, 467.107 252.588, 468.742 253.765 C 482.479 263.650, 484 265.717, 484 274.491 C 484 282.666, 481.057 288.370, 474.580 292.750 C 470.326 295.627, 468.993 296, 462.977 296 C 456.579 296, 455.888 295.770, 451.216 292.077 C 443.615 286.068, 440.852 278.989, 442.633 270.085 C 443.428 266.110, 451.375 257.159, 455.722 255.343 C 458.310 254.262, 458.994 253.397, 458.969 251.237 C 458.952 249.731, 459.055 223.665, 459.196 193.311 C 459.338 162.956, 459.172 137.839, 458.827 137.494 C 458.482 137.149, 457.993 137.234, 457.739 137.683 M 456.500 263.515 C 452.628 265.888, 449.241 271.259, 449.074 275.290 C 448.941 278.495, 452.836 284.706, 456.237 286.712 C 463.666 291.095, 467.866 290.333, 473.852 283.516 C 476.392 280.623, 477 279.055, 477 275.399 C 477 269.681, 475.909 267.671, 470.798 263.969 C 465.782 260.335, 461.889 260.211, 456.500 263.515 M 584 275.310 C 571.925 280.140, 565.920 283.187, 564.061 285.427 C 563.343 286.292, 562.248 287.018, 561.628 287.041 C 561.007 287.063, 559 288.365, 557.166 289.933 C 552.943 293.546, 553.014 297.330, 557.314 297.823 C 559.379 298.059, 561.539 297.056, 565.439 294.047 C 571.597 289.296, 579.230 285.476, 590.500 281.505 C 600.113 278.119, 601.480 277.047, 600.611 273.585 C 599.695 269.937, 596.640 270.254, 584 275.310 M 656 328 C 656 328.550, 656.454 329, 657.009 329 C 657.564 329, 659.367 330.238, 661.014 331.750 C 662.662 333.262, 666.940 336.750, 670.521 339.500 C 697.103 359.917, 714.509 375.635, 732.853 395.783 C 746.555 410.833, 760.942 429.843, 768.588 443 C 770.666 446.575, 772.912 450.175, 773.581 451 C 777.659 456.032, 788.329 479.734, 795.066 498.726 C 800.763 514.782, 802.001 523.018, 801.987 544.739 C 801.974 563.020, 801.758 565.399, 799.102 576.500 C 795.906 589.856, 792.260 600.175, 788.421 606.725 C 787.018 609.118, 786.012 612.072, 786.185 613.288 C 786.490 615.432, 786.871 615.499, 798.500 615.478 C 812.006 615.452, 816.248 614.038, 821.540 607.794 C 826.991 601.363, 833.020 586.391, 835.100 574.120 C 840.181 544.147, 837.751 528.269, 822.834 494 C 813.256 471.997, 795.639 443.297, 781.189 426.158 C 768.216 410.771, 738.071 381.741, 722.901 370.027 C 707.509 358.141, 699.980 352.771, 684 342.279 C 677.675 338.126, 671.308 333.909, 669.850 332.908 C 668.393 331.907, 666.049 330.799, 664.641 330.446 C 663.234 330.093, 661.558 329.173, 660.919 328.402 C 659.585 326.795, 656 326.502, 656 328 M 430 334.895 C 428.201 335.395, 427.500 336.279, 427.500 338.045 L 427.500 340.500 462 341 C 482.272 341.294, 497.447 341.116, 498.796 340.569 C 501.845 339.331, 501.353 335.818, 498 334.891 C 494.731 333.987, 433.251 333.990, 430 334.895 M 408.156 354.312 C 407.262 355.389, 406.982 398.514, 406.994 533.385 C 407.012 725.917, 407.336 714.662, 401.629 719.924 C 400.183 721.258, 399 723.071, 399 723.953 C 399 724.835, 406.498 732.969, 415.663 742.029 C 438.123 764.231, 438.030 764.147, 439.913 763.803 C 440.823 763.636, 445.714 759.136, 450.784 753.803 L 460 744.107 459.985 550.803 C 459.975 430.586, 459.611 356.933, 459.020 356 C 457.784 354.047, 456.423 353.919, 430.917 353.363 C 413.079 352.974, 409.130 353.139, 408.156 354.312 M 475.328 353.728 C 473.033 353.937, 470.660 354.705, 470.053 355.436 C 469.258 356.394, 468.949 410.965, 468.947 551.132 C 468.944 702.339, 468.672 745.983, 467.721 747.674 C 467.050 748.870, 459.581 756.925, 451.124 765.573 C 436.697 780.328, 435.587 781.241, 433.124 780.380 C 430.028 779.298, 429.054 775.030, 431.449 773.042 C 433.531 771.315, 433.403 769, 431.091 766.535 C 413.876 748.180, 395.176 730, 393.510 730 C 392.203 730, 383.866 737.623, 370.036 751.464 C 349.886 771.630, 348.647 773.083, 349.544 775.486 C 350.769 778.764, 444.945 873.005, 446.976 872.985 C 447.814 872.976, 448.950 872.622, 449.500 872.197 C 450.050 871.772, 466.813 855.002, 486.750 834.930 L 523 798.436 523 794.169 C 523 787.722, 520.693 784, 516.697 784 C 514.908 784, 512.445 783.299, 511.223 782.443 C 509.018 780.899, 509 780.661, 509 753.666 C 509 722.576, 509.128 722, 516.022 722 C 518.862 722, 520.212 721.472, 520.965 720.066 C 521.667 718.753, 522 659.822, 522 536.601 C 522 358.150, 521.967 355.053, 520.066 354.035 C 518.243 353.060, 485.183 352.833, 475.328 353.728 M 527.243 354.157 C 526.262 355.138, 526 391.493, 526 526.618 C 526 620.788, 526.273 698.548, 526.607 699.418 C 527.365 701.393, 531.353 701.485, 532.947 699.564 C 534.590 697.585, 535.350 551.144, 534.300 439 L 533.500 353.500 530.993 353.207 C 529.614 353.046, 527.927 353.473, 527.243 354.157 M 528.250 710.031 C 526.245 710.837, 526 711.633, 526 717.345 C 526 724.569, 525.375 725.433, 519.503 726.338 C 517.305 726.677, 514.943 727.726, 514.253 728.668 C 513.334 729.925, 513 736.566, 513 753.569 C 513 779.406, 512.830 778.765, 519.946 779.720 C 525.278 780.435, 526.467 782.109, 526.198 788.523 C 525.806 797.908, 509.010 797, 683.071 797 C 831.904 797, 837 796.939, 837 795.159 C 837 793.419, 833.392 791.009, 822.920 785.755 C 818.239 783.407, 806.796 773.941, 804.276 770.333 C 798.009 761.360, 797.342 749.061, 802.554 738.565 C 805.901 731.823, 811.712 726.987, 825.489 719.478 C 834.164 714.749, 837.617 711.807, 836.539 710.063 C 835.704 708.713, 531.608 708.681, 528.250 710.031 M 626.427 723.300 C 621.669 725.966, 628.734 730.991, 637.250 730.996 C 641.663 730.999, 643.465 731.465, 645 733 C 646.630 734.630, 647.770 738.618, 646.750 739.124 C 646.612 739.193, 640.359 739.530, 632.854 739.874 C 621.398 740.400, 618.870 740.806, 617.104 742.405 C 615.947 743.453, 615 744.926, 615 745.680 C 615 748.523, 620.397 749.163, 641.717 748.847 C 664.582 748.509, 665.781 748.750, 664.600 753.458 C 663.697 757.057, 658.497 759.991, 653 760.002 C 648.555 760.010, 647.707 760.401, 639.132 766.383 C 634.888 769.344, 633.817 772.417, 636.200 774.800 C 636.940 775.540, 640.573 776, 645.680 776 C 650.411 776, 655.575 776.610, 657.730 777.424 C 659.803 778.207, 665.777 779.039, 671.005 779.272 C 677.154 779.546, 681.639 780.279, 683.706 781.348 C 686.444 782.764, 690.742 783, 713.759 783 C 745.805 783, 745.040 783.225, 743.064 774.397 C 741.659 768.117, 740.934 767.249, 734 763.552 C 731.525 762.233, 727.925 759.806, 726 758.159 C 720.515 753.467, 722.561 752.425, 736.293 752.915 C 752.886 753.508, 753.728 753.470, 755.433 752.055 C 757.287 750.517, 757.503 745.903, 755.800 744.200 C 754.962 743.362, 749.004 742.964, 736.050 742.882 C 725.847 742.817, 716.150 742.420, 714.500 742 L 711.500 741.237 714.193 741.118 C 716.048 741.037, 717.433 740.075, 718.642 738.029 C 719.608 736.394, 721.747 734.587, 723.396 734.012 C 725.966 733.116, 726.188 732.777, 724.947 731.641 C 722.048 728.987, 713.083 726, 708.015 726 C 705.202 726, 701.619 725.337, 700.053 724.527 C 697.739 723.331, 690.705 723.003, 662.529 722.777 C 643.458 722.625, 627.212 722.860, 626.427 723.300 M 700 742 C 700 742.550, 701.773 743, 703.941 743 C 706.109 743, 708.160 742.550, 708.500 742 C 708.878 741.389, 707.344 741, 704.559 741 C 702.052 741, 700 741.450, 700 742 M 546.364 907.170 C 539.206 910.636, 542.749 921, 551.093 921 C 553.922 921, 558 916.572, 558 913.500 C 558 912.075, 556.895 909.805, 555.545 908.455 C 552.962 905.872, 549.923 905.446, 546.364 907.170 M 734.364 907.170 C 727.206 910.636, 730.749 921, 739.093 921 C 741.922 921, 746 916.572, 746 913.500 C 746 912.075, 744.895 909.805, 743.545 908.455 C 740.962 905.872, 737.923 905.446, 734.364 907.170 M 946.364 907.170 C 939.206 910.636, 942.749 921, 951.093 921 C 953.922 921, 958 916.572, 958 913.500 C 958 912.075, 956.895 909.805, 955.545 908.455 C 952.962 905.872, 949.923 905.446, 946.364 907.170 M 155 908 C 155 908.550, 156.250 909, 157.777 909 C 159.305 909, 161.555 909.701, 162.777 910.557 C 164.991 912.107, 165 912.233, 165 942.500 C 165 972.767, 164.991 972.893, 162.777 974.443 C 161.555 975.299, 159.305 976, 157.777 976 C 156.250 976, 155 976.450, 155 977 C 155 977.631, 161.833 978, 173.500 978 C 185.167 978, 192 977.631, 192 977 C 192 976.450, 190.650 976, 189 976 C 187.333 976, 185.111 975.111, 184 974 C 182.189 972.189, 182 970.667, 182 957.868 L 182 943.737 186.038 944.278 C 193.332 945.257, 197.743 949.668, 198.722 956.962 C 199.020 959.183, 199.654 961, 200.132 961 C 200.609 961, 201 952.225, 201 941.500 C 201 929.167, 200.632 922, 200 922 C 199.450 922, 199 923.139, 199 924.532 C 199 931.638, 193.461 937.968, 186.562 938.746 L 182 939.260 182 925.630 L 182 912 189.851 912 C 194.169 912, 199.231 912.512, 201.101 913.139 C 207.161 915.168, 212 921.079, 212 926.450 C 212 928.050, 212.559 929, 213.500 929 C 214.742 929, 215 927.111, 215 918 L 215 907 185 907 C 165.667 907, 155 907.356, 155 908 M 338 907.793 C 338 908.229, 339.462 909.017, 341.250 909.543 L 344.500 910.500 344.782 922.866 L 345.063 935.231 341.955 932.615 C 338.190 929.448, 335.058 928.567, 330.306 929.338 C 321.340 930.793, 314.630 939.609, 313.385 951.569 C 311.871 966.112, 320.633 979, 332.034 979 C 335.706 979, 338.507 977.681, 342.250 974.191 L 345 971.626 345 975.380 C 345 978.477, 345.307 979.048, 346.750 978.642 C 347.712 978.371, 349.850 977.913, 351.500 977.624 C 361.752 975.829, 366 974.746, 366 973.929 C 366 973.418, 365.190 973, 364.200 973 C 360.143 973, 360 971.834, 360 938.800 L 360 907 349 907 C 342.950 907, 338 907.357, 338 907.793 M 591 908 C 591 908.550, 592.264 909, 593.809 909 C 595.354 909, 597.491 909.638, 598.559 910.418 C 600.372 911.742, 600.533 913.573, 601 938.168 C 601.459 962.336, 601.668 964.788, 603.539 968 C 606.554 973.177, 613.894 977.718, 620.599 978.556 C 632.266 980.013, 641.412 977.407, 647.689 970.838 C 652.903 965.380, 653.252 963.452, 653.768 937.226 L 654.247 912.951 656.758 910.976 C 658.140 909.889, 660.334 909, 661.635 909 C 662.936 909, 664 908.550, 664 908 C 664 907.389, 659.333 907, 652 907 C 640.319 907, 636.437 908.109, 643.488 909.432 C 649.215 910.506, 649.508 911.873, 649.429 937.098 C 649.361 958.944, 649.278 959.859, 646.929 964.598 C 641.358 975.840, 625.882 977.378, 619.304 967.343 C 617.680 964.865, 617.500 961.953, 617.500 938.216 C 617.500 913.264, 617.605 911.766, 619.441 910.421 C 620.509 909.640, 622.871 909, 624.691 909 C 626.511 909, 628 908.550, 628 908 C 628 907.369, 621.167 907, 609.500 907 C 597.833 907, 591 907.369, 591 908 M 981.989 917.017 C 980.219 919.776, 975.897 924.666, 972.385 927.884 C 968.873 931.102, 966 934.020, 966 934.367 C 966 934.715, 967.350 935, 969 935 L 972 935 972.006 950.750 C 972.012 968.044, 972.793 972.518, 976.400 975.906 C 981.604 980.795, 992.103 979.168, 995.926 972.881 C 998.456 968.722, 997.670 967.421, 994.526 970.565 C 993.187 971.904, 991.485 973, 990.745 973 C 987.422 973, 987 970.725, 987 952.800 L 987 935 992.500 935 C 997.700 935, 998 934.864, 998 932.500 C 998 930.136, 997.700 930, 992.500 930 L 987 930 987 921 C 987 916.050, 986.597 912, 986.104 912 C 985.612 912, 983.760 914.258, 981.989 917.017 M 236.500 930.061 C 231.920 931.405, 226.438 936.471, 223.851 941.749 C 220.637 948.307, 220.554 961.565, 223.691 967.500 C 229.073 977.683, 239.701 981.589, 249.688 977.055 C 253.738 975.216, 259.214 969.053, 260.556 964.823 C 261.619 961.473, 260.448 961.787, 256.260 965.975 C 251.222 971.014, 246.837 971.417, 241.934 967.291 C 238.485 964.389, 235.058 957.923, 235.022 954.250 C 235 952.031, 235.179 952, 248 952 L 261 952 260.978 948.250 C 260.936 941.015, 255.196 932.524, 248.685 930.064 C 245.395 928.821, 240.729 928.820, 236.500 930.061 M 296.500 930.647 C 294.850 931.508, 292.054 933.853, 290.288 935.857 L 287.075 939.500 287.038 934.750 L 287 930 277 930 C 266.898 930, 264.934 930.738, 269.500 932.818 L 272 933.957 272 954 L 272 974.043 269.500 975.182 C 268.125 975.808, 267 976.699, 267 977.161 C 267 977.622, 272.850 978, 280 978 C 287.150 978, 293 977.649, 293 977.219 C 293 976.790, 291.607 975.913, 289.905 975.270 L 286.810 974.102 287.155 959.622 C 287.461 946.790, 287.739 944.821, 289.600 942.321 C 292.363 938.610, 295.027 938.335, 297.961 941.458 C 302.614 946.411, 308 943.605, 308 936.228 C 308 929.680, 302.999 927.253, 296.500 930.647 M 385.637 930.465 C 380.901 932.153, 376.516 936.197, 373.670 941.500 C 370.580 947.259, 370.598 960.760, 373.703 966.595 C 378.318 975.267, 386.763 979.775, 396.288 978.650 C 408.623 977.194, 416.013 967.807, 415.990 953.624 C 415.963 936.303, 401.091 924.956, 385.637 930.465 M 507.071 930.707 C 501.895 933.414, 499.500 937.302, 499.500 943 C 499.500 949.028, 501.443 951.839, 510.080 958.308 C 520.278 965.946, 521 966.720, 521 970.015 C 521 973.572, 517.673 975.637, 513.592 974.612 C 510.112 973.739, 504.518 968.664, 503.002 965.005 C 500.778 959.637, 499.716 961.535, 500.206 970.001 C 500.714 978.772, 501.342 980.282, 503.346 977.542 C 504.617 975.803, 504.884 975.801, 509.945 977.482 C 522.440 981.632, 531.988 975.413, 531.996 963.118 C 532 958.092, 531.719 957.465, 527.732 953.618 C 525.385 951.353, 520.435 947.373, 516.732 944.774 C 511.709 941.248, 510 939.459, 510 937.724 C 510 929.423, 521.866 932.875, 526.436 942.506 C 529.254 948.444, 530.281 946.845, 529.492 937.750 C 529.098 933.212, 528.565 929.276, 528.306 929.002 C 528.048 928.727, 527.191 929.386, 526.402 930.465 C 525.098 932.248, 524.674 932.303, 521.734 931.070 C 516.446 928.852, 510.881 928.714, 507.071 930.707 M 696.500 930.573 C 694.850 931.431, 692.571 933.003, 691.436 934.066 C 688.623 936.701, 688 936.508, 688 933 L 688 930 678.500 930 C 669.670 930, 666.431 931.050, 670.892 932.466 C 673.650 933.341, 673.971 935.660, 673.986 954.795 C 674 971.919, 673.975 972.116, 671.500 974.591 C 670.125 975.966, 669 977.295, 669 977.545 C 669 977.795, 674.400 978, 681 978 C 687.600 978, 693 977.735, 693 977.410 C 693 977.086, 691.987 976.002, 690.750 975.001 C 688.657 973.309, 688.477 972.258, 688.168 959.984 C 687.789 944.864, 688.047 943.286, 691.589 939.077 C 694.567 935.538, 698.402 935.015, 699.965 937.934 C 700.558 939.043, 701 946.905, 701 956.363 C 701 970.024, 700.730 973.127, 699.429 974.429 C 698.564 975.293, 697.439 976, 696.929 976 C 696.418 976, 696 976.450, 696 977 C 696 977.613, 700.833 978, 708.500 978 C 720.824 978, 723.168 977.425, 718.750 975.487 C 716.569 974.530, 716.482 973.945, 715.924 956.500 C 715.272 936.121, 714.345 932.878, 708.466 930.421 C 704.062 928.581, 700.236 928.630, 696.500 930.573 M 822.500 930.061 C 817.920 931.405, 812.438 936.471, 809.851 941.749 C 806.637 948.307, 806.554 961.565, 809.691 967.500 C 815.073 977.683, 825.701 981.589, 835.688 977.055 C 839.738 975.216, 845.214 969.053, 846.556 964.823 C 847.619 961.473, 846.448 961.787, 842.260 965.975 C 839.076 969.159, 837.496 970, 834.694 970 C 828.645 970, 823.012 963.914, 821.474 955.715 L 820.777 952 833.889 952 L 847 952 846.978 948.250 C 846.936 941.015, 841.196 932.524, 834.685 930.064 C 831.395 928.821, 826.729 928.820, 822.500 930.061 M 882.500 930.647 C 880.850 931.508, 878.054 933.853, 876.288 935.857 L 873.075 939.500 873.038 934.750 L 873 930 863 930 C 852.898 930, 850.934 930.738, 855.500 932.818 L 858 933.957 858 954 L 858 974.043 855.500 975.182 C 854.125 975.808, 853 976.699, 853 977.161 C 853 977.622, 858.850 978, 866 978 C 874 978, 879 977.615, 879 977 C 879 976.450, 878.155 976, 877.122 976 C 873.321 976, 872.790 973.740, 873.153 959.103 C 873.459 946.803, 873.750 944.807, 875.600 942.321 C 878.363 938.610, 881.027 938.335, 883.961 941.458 C 888.581 946.376, 894 943.606, 894 936.326 C 894 929.582, 889.138 927.180, 882.500 930.647 M 907.071 930.707 C 901.895 933.414, 899.500 937.302, 899.500 943 C 899.500 949.028, 901.443 951.839, 910.080 958.308 C 920.278 965.946, 921 966.720, 921 970.015 C 921 973.572, 917.673 975.637, 913.592 974.612 C 910.112 973.739, 904.518 968.664, 903.002 965.005 C 900.778 959.637, 899.716 961.535, 900.206 970.001 C 900.714 978.772, 901.342 980.282, 903.346 977.542 C 904.617 975.803, 904.884 975.801, 909.945 977.482 C 922.440 981.632, 931.988 975.413, 931.996 963.118 C 932 958.092, 931.719 957.465, 927.732 953.618 C 925.385 951.353, 920.435 947.373, 916.732 944.774 C 911.709 941.248, 910 939.459, 910 937.724 C 910 929.423, 921.866 932.875, 926.436 942.506 C 929.254 948.444, 930.281 946.845, 929.492 937.750 C 929.098 933.212, 928.565 929.276, 928.306 929.002 C 928.048 928.727, 927.191 929.386, 926.402 930.465 C 925.098 932.248, 924.674 932.303, 921.734 931.070 C 916.446 928.852, 910.881 928.714, 907.071 930.707 M 420 930.965 C 420 931.495, 420.947 932.436, 422.104 933.056 C 424.669 934.428, 427.876 941.490, 435.597 962.768 C 439.910 974.654, 441.901 978.961, 442.988 978.757 C 443.910 978.584, 446.762 972.332, 450.488 962.312 C 453.795 953.422, 456.765 945.886, 457.090 945.567 C 457.414 945.248, 460.562 952.640, 464.085 961.993 C 468.477 973.653, 470.964 978.998, 471.995 978.992 C 473.049 978.987, 475.863 972.380, 481.379 956.963 C 487.105 940.960, 489.906 934.433, 491.629 933.077 C 492.933 932.051, 494 930.939, 494 930.606 C 494 930.273, 490.850 930, 487 930 C 480.318 930, 477.744 931.177, 481.995 932.288 C 483.092 932.575, 484.271 933.543, 484.615 934.439 C 485.367 936.400, 478.043 957.485, 477.015 956.317 C 475.453 954.544, 468.865 934.793, 469.384 933.440 C 469.688 932.648, 470.626 932, 471.469 932 C 472.311 932, 473 931.550, 473 931 C 473 930.389, 468.333 930, 461 930 C 454.400 930, 449 930.190, 449 930.423 C 449 930.656, 450.350 932.196, 452 933.846 C 453.650 935.496, 455 937.754, 455 938.863 C 455 941.075, 450.239 955.017, 449.046 956.299 C 448.351 957.045, 441.967 941.700, 440.439 935.614 C 439.873 933.358, 440.126 932.780, 441.876 932.322 C 447.105 930.955, 443.043 930, 432 930 C 424.958 930, 420 930.399, 420 930.965 M 537 931 C 537 931.550, 537.649 932, 538.443 932 C 539.237 932, 540.587 933, 541.443 934.223 C 542.713 936.036, 543 939.784, 543 954.568 C 543 970.854, 542.815 972.858, 541.171 974.345 C 540.165 975.255, 538.815 976, 538.171 976 C 537.527 976, 537 976.450, 537 977 C 537 977.615, 542 978, 550 978 C 562.809 978, 565.281 977.360, 560.642 975.247 C 557.398 973.769, 557 970.884, 557 948.875 L 557 930 547 930 C 541 930, 537 930.400, 537 931 M 725 931 C 725 931.550, 725.649 932, 726.443 932 C 727.237 932, 728.587 933, 729.443 934.223 C 730.709 936.029, 731 939.730, 731 954 C 731 968.270, 730.709 971.971, 729.443 973.777 C 728.587 975, 727.237 976, 726.443 976 C 725.649 976, 725 976.450, 725 977 C 725 977.615, 730 978, 738 978 C 750.809 978, 753.281 977.360, 748.642 975.247 C 745.398 973.769, 745 970.884, 745 948.875 L 745 930 735 930 C 729 930, 725 930.400, 725 931 M 752 930.423 C 752 930.656, 753.258 932.118, 754.795 933.673 C 756.461 935.357, 761.396 945.091, 767.003 957.750 C 772.179 969.438, 776.938 979, 777.578 979 C 778.219 979, 782.684 969.888, 787.501 958.750 C 797.511 935.604, 798.758 933.211, 801.216 932.431 C 805.336 931.124, 802.463 930, 795 930 C 787.243 930, 784.514 931.159, 789.390 932.383 C 790.704 932.713, 792.014 933.595, 792.301 934.343 C 792.877 935.843, 789.479 946.497, 785.753 954.875 L 783.363 960.250 778.131 948.507 C 775.253 942.049, 773.037 936.030, 773.205 935.132 C 773.374 934.235, 774.522 933.056, 775.756 932.513 C 780.193 930.561, 777.791 930, 765 930 C 757.850 930, 752 930.190, 752 930.423 M 937 931 C 937 931.550, 937.649 932, 938.443 932 C 939.237 932, 940.587 933, 941.443 934.223 C 942.713 936.036, 943 939.784, 943 954.568 C 943 970.854, 942.815 972.858, 941.171 974.345 C 940.165 975.255, 938.815 976, 938.171 976 C 937.527 976, 937 976.450, 937 977 C 937 977.615, 942 978, 950 978 C 962.809 978, 965.281 977.360, 960.642 975.247 C 957.398 973.769, 957 970.884, 957 948.875 L 957 930 947 930 C 941 930, 937 930.400, 937 931 M 999 930.965 C 999 931.495, 999.901 932.412, 1001.001 933.001 C 1003.359 934.263, 1005.648 938.627, 1016.071 961.731 L 1023.844 978.962 1021.365 985.378 C 1018.790 992.039, 1015.895 995.671, 1014.063 994.539 C 1013.478 994.178, 1013 992.853, 1013 991.596 C 1013 988.791, 1010.093 986, 1007.171 986 C 1004.470 986, 1001 989.347, 1001 991.953 C 1001 1001.530, 1013.230 1004.202, 1019.732 996.046 C 1020.410 995.196, 1025.957 981.924, 1032.058 966.554 C 1044.860 934.304, 1045.303 933.356, 1047.989 932.503 C 1052.322 931.128, 1049.624 930, 1042 930 C 1037.333 930, 1034 930.417, 1034 931 C 1034 931.550, 1034.643 932, 1035.429 932 C 1037.828 932, 1040.119 935.023, 1039.486 937.355 C 1038.187 942.146, 1031.462 959.991, 1030.955 959.995 C 1030.655 959.998, 1028 954.390, 1025.054 947.534 C 1020.594 937.152, 1019.912 934.812, 1020.972 933.534 C 1021.672 932.690, 1022.865 932, 1023.622 932 C 1024.380 932, 1025 931.550, 1025 931 C 1025 930.385, 1020 930, 1012 930 C 1004.316 930, 999 930.395, 999 930.965 M 238.783 934.750 C 236.166 937.751, 235 940.735, 235 944.434 L 235 948 242.139 948 L 249.279 948 248.671 942.874 C 248.337 940.054, 247.364 936.679, 246.509 935.374 C 244.665 932.559, 240.956 932.260, 238.783 934.750 M 331.579 935.250 C 326.664 942.788, 327.005 963.922, 332.147 970.459 C 334.824 973.863, 338.430 973.724, 342.077 970.077 L 345 967.154 345 954.445 C 345 943.300, 344.743 941.320, 342.911 938.355 C 339.390 932.658, 334.197 931.235, 331.579 935.250 M 389.138 935.552 C 386.569 938.817, 385.624 946.476, 386.202 959.344 C 386.674 969.843, 387.906 973.518, 391.320 974.601 C 394.138 975.496, 397.353 974.308, 398.938 971.787 C 400.568 969.194, 401.673 948.973, 400.582 941.699 C 399.373 933.638, 393.236 930.341, 389.138 935.552 M 824.783 934.750 C 822.166 937.751, 821 940.735, 821 944.434 L 821 948 828.139 948 L 835.279 948 834.671 942.874 C 834.337 940.054, 833.364 936.679, 832.509 935.374 C 830.665 932.559, 826.956 932.260, 824.783 934.750 M 397.404 1013.392 C 390.926 1016.409, 387.999 1020.921, 387.264 1029.025 C 386.740 1034.807, 386.630 1035, 383.861 1035 C 381.476 1035, 381 1035.416, 381 1037.500 C 381 1039.585, 381.476 1040, 383.866 1040 L 386.733 1040 387.369 1056.250 C 388.148 1076.139, 387.633 1079.147, 383.223 1080.457 C 377.015 1082.300, 380.121 1083, 394.500 1083 C 403.500 1083, 409 1082.621, 409 1082 C 409 1081.450, 408.132 1081, 407.071 1081 C 402.440 1081, 402 1079.086, 402 1058.929 L 402 1040 405.500 1040 C 408.567 1040, 409 1039.690, 409 1037.500 C 409 1035.305, 408.569 1035, 405.464 1035 L 401.928 1035 402.214 1025.250 C 402.497 1015.593, 402.524 1015.500, 405 1015.500 C 407.222 1015.500, 407.511 1015.934, 407.602 1019.405 C 407.715 1023.705, 409.834 1026, 413.691 1026 C 416.558 1026, 420 1022.691, 420 1019.934 C 420 1011.853, 408.106 1008.409, 397.404 1013.392 M 439 1013 C 439 1013.550, 440.350 1014, 442 1014 C 443.667 1014, 445.889 1014.889, 447 1016 C 448.908 1017.908, 449 1019.333, 449 1047.045 L 449 1076.091 446.545 1078.545 C 445.195 1079.895, 442.945 1081, 441.545 1081 C 440.145 1081, 439 1081.450, 439 1082 C 439 1082.611, 443.667 1083, 451 1083 C 462.694 1083, 466.562 1081.891, 459.492 1080.565 C 453.090 1079.363, 452.935 1078.562, 453.234 1048.034 L 453.500 1020.766 466.870 1051.883 C 474.224 1068.997, 480.524 1082.997, 480.870 1082.993 C 481.217 1082.989, 487.350 1068.994, 494.500 1051.893 L 507.500 1020.800 507.776 1049.150 C 508.047 1077.056, 508.018 1077.527, 505.915 1079.250 C 504.740 1080.213, 502.703 1081, 501.389 1081 C 500.075 1081, 499 1081.450, 499 1082 C 499 1082.630, 505.667 1083, 517 1083 C 528.333 1083, 535 1082.630, 535 1082 C 535 1081.450, 533.650 1081, 532 1081 C 530.313 1081, 528.106 1080.106, 526.958 1078.958 C 524.979 1076.979, 524.925 1075.990, 525.208 1046.876 C 525.484 1018.477, 525.606 1016.759, 527.441 1015.418 C 528.509 1014.638, 530.646 1014, 532.191 1014 C 533.736 1014, 535 1013.538, 535 1012.973 C 535 1012.305, 530.060 1012.042, 520.885 1012.223 L 506.771 1012.500 497.635 1034.669 C 492.611 1046.861, 488.127 1056.986, 487.670 1057.169 C 487.214 1057.351, 482.489 1047.271, 477.170 1034.768 L 467.500 1012.036 453.250 1012.018 C 444.405 1012.007, 439 1012.379, 439 1013 M 632 1012.455 C 632 1012.705, 633.125 1014.034, 634.500 1015.409 L 637 1017.909 637 1047.500 L 637 1077.091 634.500 1079.591 C 633.125 1080.966, 632 1082.295, 632 1082.545 C 632 1082.795, 637.400 1083, 644 1083 C 650.600 1083, 656 1082.735, 656 1082.410 C 656 1082.086, 654.987 1081.001, 653.750 1080 C 651.623 1078.279, 651.482 1077.338, 651.164 1062.788 L 650.828 1047.396 653.815 1044.198 C 657.260 1040.510, 661.364 1039.944, 662.965 1042.934 C 663.558 1044.043, 664 1051.905, 664 1061.363 C 664 1075.024, 663.730 1078.127, 662.429 1079.429 C 661.564 1080.293, 660.439 1081, 659.929 1081 C 659.418 1081, 659 1081.450, 659 1082 C 659 1082.613, 663.833 1083, 671.500 1083 C 678.375 1083, 684 1082.622, 684 1082.161 C 684 1081.699, 682.875 1080.808, 681.500 1080.182 C 679.015 1079.050, 679 1078.960, 678.927 1065.271 C 678.828 1046.532, 678.044 1041.699, 674.503 1038.003 C 669.502 1032.783, 660.154 1033.013, 655.016 1038.483 C 653.715 1039.867, 652.280 1041, 651.826 1041 C 651.372 1041, 651 1034.475, 651 1026.500 L 651 1012 641.500 1012 C 636.275 1012, 632 1012.205, 632 1012.455 M 690 1012.455 C 690 1012.705, 691.125 1014.034, 692.500 1015.409 L 695 1017.909 695 1047.500 L 695 1077.091 692.500 1079.591 C 691.125 1080.966, 690 1082.295, 690 1082.545 C 690 1082.795, 695.400 1083, 702 1083 C 708.600 1083, 714 1082.735, 714 1082.410 C 714 1082.086, 712.987 1081.001, 711.750 1080 C 709.623 1078.279, 709.482 1077.338, 709.164 1062.788 L 708.828 1047.396 711.815 1044.198 C 715.260 1040.510, 719.364 1039.944, 720.965 1042.934 C 721.558 1044.043, 722 1051.905, 722 1061.363 C 722 1075.024, 721.730 1078.127, 720.429 1079.429 C 719.564 1080.293, 718.439 1081, 717.929 1081 C 717.418 1081, 717 1081.450, 717 1082 C 717 1082.613, 721.833 1083, 729.500 1083 C 736.375 1083, 742 1082.622, 742 1082.161 C 742 1081.699, 740.875 1080.808, 739.500 1080.182 C 737.015 1079.050, 737 1078.960, 736.927 1065.271 C 736.825 1045.946, 736.074 1041.613, 732.152 1037.691 C 729.356 1034.894, 728.297 1034.500, 723.584 1034.500 C 719.012 1034.500, 717.599 1034.988, 714.161 1037.750 C 711.937 1039.537, 709.866 1041, 709.559 1041 C 709.251 1041, 709 1034.475, 709 1026.500 L 709 1012 699.500 1012 C 694.275 1012, 690 1012.205, 690 1012.455 M 825 1012.793 C 825 1013.229, 826.462 1014.017, 828.250 1014.543 L 831.500 1015.500 831.782 1027.866 L 832.063 1040.231 828.955 1037.615 C 825.190 1034.448, 822.058 1033.567, 817.306 1034.338 C 811.538 1035.274, 806.500 1039.278, 803.580 1045.248 C 796.892 1058.916, 800.764 1076.741, 811.566 1082.015 C 818.418 1085.361, 823.506 1084.548, 829.250 1079.191 L 832 1076.626 832 1080.380 C 832 1083.477, 832.307 1084.048, 833.750 1083.642 C 834.712 1083.371, 836.850 1082.913, 838.500 1082.624 C 848.752 1080.829, 853 1079.746, 853 1078.929 C 853 1078.418, 852.190 1078, 851.200 1078 C 847.143 1078, 847 1076.834, 847 1043.800 L 847 1012 836 1012 C 829.950 1012, 825 1012.357, 825 1012.793 M 343.637 1035.465 C 338.901 1037.153, 334.516 1041.197, 331.670 1046.500 C 328.580 1052.259, 328.598 1065.760, 331.703 1071.595 C 336.318 1080.267, 344.763 1084.775, 354.288 1083.650 C 366.623 1082.194, 374.013 1072.807, 373.990 1058.624 C 373.963 1041.303, 359.091 1029.956, 343.637 1035.465 M 553.009 1035.961 C 541.190 1040.040, 537.880 1051.175, 547.751 1053.652 C 550.940 1054.453, 555.337 1052.203, 555.857 1049.505 C 556.061 1048.445, 555.405 1046.050, 554.399 1044.183 C 552.619 1040.877, 552.621 1040.751, 554.476 1039.394 C 556.991 1037.555, 561.020 1037.625, 563.777 1039.557 C 565.643 1040.863, 566 1042.052, 566 1046.951 L 566 1052.788 557.456 1057.080 C 546.411 1062.629, 541 1068.210, 541 1074.055 C 541 1077.290, 541.642 1078.796, 544.048 1081.202 C 546.781 1083.935, 547.568 1084.196, 551.665 1083.734 C 554.541 1083.410, 557.870 1082.067, 560.647 1080.110 C 565.517 1076.677, 567 1076.284, 567 1078.427 C 567 1080.641, 571.943 1084, 575.201 1084 C 578.535 1084, 581.491 1082.669, 584.750 1079.701 C 587.723 1076.993, 587.589 1076.083, 584.250 1076.312 L 581.500 1076.500 580.998 1059.954 C 580.426 1041.079, 579.760 1039.156, 572.672 1035.938 C 567.361 1033.527, 560.036 1033.535, 553.009 1035.961 M 600.071 1035.707 C 594.895 1038.414, 592.500 1042.302, 592.500 1048 C 592.500 1054.028, 594.443 1056.839, 603.080 1063.308 C 613.278 1070.946, 614 1071.720, 614 1075.015 C 614 1078.572, 610.673 1080.637, 606.592 1079.612 C 603.112 1078.739, 597.518 1073.664, 596.002 1070.005 C 593.778 1064.637, 592.716 1066.535, 593.206 1075.001 C 593.714 1083.772, 594.342 1085.282, 596.346 1082.542 C 597.617 1080.803, 597.884 1080.801, 602.945 1082.482 C 615.440 1086.632, 624.988 1080.413, 624.996 1068.118 C 625 1063.092, 624.719 1062.465, 620.732 1058.618 C 618.385 1056.353, 613.435 1052.373, 609.732 1049.774 C 604.709 1046.248, 603 1044.459, 603 1042.724 C 603 1034.423, 614.866 1037.875, 619.436 1047.506 C 622.254 1053.444, 623.281 1051.845, 622.492 1042.750 C 622.098 1038.213, 621.565 1034.276, 621.306 1034.002 C 621.048 1033.727, 620.191 1034.386, 619.402 1035.465 C 618.098 1037.248, 617.674 1037.303, 614.734 1036.070 C 609.446 1033.852, 603.881 1033.714, 600.071 1035.707 M 761.009 1035.961 C 749.190 1040.040, 745.880 1051.175, 755.751 1053.652 C 758.940 1054.453, 763.337 1052.203, 763.857 1049.505 C 764.061 1048.445, 763.405 1046.050, 762.399 1044.183 C 760.619 1040.877, 760.621 1040.751, 762.476 1039.394 C 764.991 1037.555, 769.020 1037.625, 771.777 1039.557 C 773.643 1040.863, 774 1042.052, 774 1046.951 L 774 1052.788 765.456 1057.080 C 754.411 1062.629, 749 1068.210, 749 1074.055 C 749 1077.290, 749.642 1078.796, 752.048 1081.202 C 754.781 1083.935, 755.568 1084.196, 759.665 1083.734 C 762.541 1083.410, 765.870 1082.067, 768.647 1080.110 C 773.517 1076.677, 775 1076.284, 775 1078.427 C 775 1080.641, 779.943 1084, 783.201 1084 C 786.535 1084, 789.491 1082.669, 792.750 1079.701 C 795.723 1076.993, 795.589 1076.083, 792.250 1076.312 L 789.500 1076.500 788.998 1059.954 C 788.426 1041.079, 787.760 1039.156, 780.672 1035.938 C 775.361 1033.527, 768.036 1033.535, 761.009 1035.961 M 347.138 1040.552 C 344.586 1043.795, 343.668 1051.159, 344.159 1064.433 C 344.506 1073.807, 344.795 1075.153, 346.948 1077.444 C 351.697 1082.500, 357.246 1079.521, 358.371 1071.310 C 359.349 1064.171, 359.101 1047.905, 357.951 1043.762 C 356.269 1037.706, 350.681 1036.047, 347.138 1040.552 M 818.563 1040.263 C 814.895 1045.861, 814.020 1063.662, 817.024 1071.563 C 819.686 1078.564, 824.257 1079.897, 829.077 1075.077 L 832 1072.154 832 1059.445 C 832 1048.300, 831.743 1046.320, 829.911 1043.355 C 826.384 1037.650, 821.201 1036.237, 818.563 1040.263 M 561.805 1059.075 C 555.754 1063.592, 553.293 1071.145, 556.829 1074.345 C 559.111 1076.411, 560.932 1076.436, 563.777 1074.443 C 565.757 1073.057, 566 1072.018, 566 1064.943 C 566 1060.574, 565.663 1057.014, 565.250 1057.032 C 564.837 1057.049, 563.287 1057.969, 561.805 1059.075 M 769.805 1059.075 C 763.754 1063.592, 761.293 1071.145, 764.829 1074.345 C 767.111 1076.411, 768.932 1076.436, 771.777 1074.443 C 773.757 1073.057, 774 1072.018, 774 1064.943 C 774 1060.574, 773.663 1057.014, 773.250 1057.032 C 772.837 1057.049, 771.287 1057.969, 769.805 1059.075" stroke="none" fill="#fafafa" fill-rule="evenodd"/></svg>