<svg xmlns="http://www.w3.org/2000/svg" width="313" height="317" viewBox="0 0 313 317" version="1.1"><path d="M 176.802 0.531 C 176.485 0.849, 177.143 2.784, 178.265 4.833 C 182.577 12.704, 178.904 18.591, 163.750 28.098 C 156.517 32.635, 156 32.811, 155.994 30.730 C 155.975 23.109, 150.609 15.193, 142.571 10.928 C 137.197 8.077, 135.647 8.978, 139.323 12.815 C 143.722 17.407, 143.066 21.675, 136.880 28.692 C 127.698 39.107, 126.863 40.826, 127.201 48.623 L 127.500 55.500 156.370 55.766 L 185.239 56.031 184.667 53.766 C 182.653 45.786, 182.331 46.657, 192.481 32.641 C 195.316 28.727, 196 26.869, 196 23.091 C 196 18.759, 194.755 16, 192.800 16 C 192.360 16, 192 17.486, 192 19.303 C 192 21.420, 190.892 24.113, 188.913 26.803 C 185.351 31.648, 183.223 32.402, 185.491 28.017 C 187.686 23.772, 188.384 17.140, 187.127 12.471 C 186.073 8.558, 178.051 -0.718, 176.802 0.531" stroke="none" fill="#e32b2b" fill-rule="evenodd"/><path d="M 196.195 23.500 C 196.215 25.150, 196.439 25.704, 196.693 24.731 C 196.947 23.758, 196.930 22.408, 196.656 21.731 C 196.382 21.054, 196.175 21.850, 196.195 23.500 M 126.286 48.500 C 126.294 51.250, 126.488 52.256, 126.718 50.736 C 126.947 49.216, 126.941 46.966, 126.704 45.736 C 126.467 44.506, 126.279 45.750, 126.286 48.500 M 126.163 57.878 C 125.427 58.345, 124.977 59.800, 125.163 61.113 L 125.500 63.500 156.616 63.764 C 182.808 63.986, 187.922 63.799, 188.935 62.578 C 189.830 61.499, 189.856 60.599, 189.034 59.064 C 187.955 57.048, 187.226 57, 157.715 57.015 C 141.097 57.024, 126.898 57.412, 126.163 57.878 M 198.500 58.848 C 193.412 61.969, 188.028 68.222, 185.022 74.500 C 181.826 81.176, 175.972 96.797, 176.050 98.441 C 176.078 99.024, 178.768 100.764, 182.028 102.308 C 189.440 105.819, 198.529 114.763, 202.768 122.716 C 213.477 142.809, 210.067 166.133, 194.089 182.073 C 181.148 194.983, 162.949 200.003, 145.535 195.467 C 127.860 190.863, 112.833 175.079, 109.105 157.201 C 104.620 135.694, 115.406 112.348, 134.418 102.414 C 137.486 100.811, 139.996 99.255, 139.998 98.955 C 140.005 97.292, 129.630 75.323, 127.103 71.650 C 121.963 64.180, 113.521 58, 108.455 58 C 107.570 58, 105.471 59.375, 103.791 61.056 C 100.870 63.976, 100.758 64.396, 101.252 70.545 C 101.748 76.730, 106.163 87.762, 110.460 93.555 C 111.886 95.477, 111.737 95.851, 108.148 99.355 L 104.312 103.101 98.406 99.621 C 87.275 93.062, 74.691 91.255, 69.959 95.537 C 67.419 97.836, 67.398 103.500, 69.914 107.627 C 72.921 112.557, 79.728 118.576, 86.197 122.024 C 90.399 124.264, 91.973 125.629, 91.568 126.683 C 91.253 127.504, 90.717 129.919, 90.376 132.052 L 89.756 135.928 85.485 135.343 C 83.136 135.021, 78.174 135.287, 74.459 135.934 C 54.538 139.403, 49.580 151.241, 65.213 158.012 C 69.083 159.688, 73.104 160.431, 80.213 160.783 L 89.927 161.264 91.417 166.346 C 92.236 169.140, 92.815 171.476, 92.703 171.536 C 73.612 181.731, 64.092 195.748, 72.337 201.523 C 77.383 205.058, 91.102 202.492, 101.118 196.140 L 105.639 193.273 109.696 197.057 L 113.753 200.842 110.869 205.171 C 106.476 211.765, 104 219.303, 104 226.083 C 104 231.204, 104.380 232.471, 106.573 234.664 C 108.696 236.787, 109.772 237.136, 112.711 236.659 C 119.556 235.549, 128.466 227.127, 133.511 217 C 134.470 215.075, 135.349 213.385, 135.465 213.245 C 135.581 213.106, 136.986 213.406, 138.588 213.913 C 140.190 214.420, 142.737 215.105, 144.250 215.436 C 146.938 216.025, 147 216.199, 147 223.203 C 147 242.197, 157.065 254.943, 165.199 246.250 C 166.614 244.738, 168.480 242.094, 169.347 240.376 C 171.494 236.115, 173.269 224.404, 172.527 219.387 C 171.932 215.363, 171.989 215.262, 175.209 214.676 C 177.019 214.347, 179.458 213.797, 180.628 213.454 C 182.413 212.931, 183.268 213.725, 185.929 218.376 C 193.921 232.345, 206.276 239.717, 211.694 233.750 C 216.322 228.653, 215.317 219.175, 208.867 207.093 L 204.913 199.685 208.204 196.093 C 210.014 194.117, 211.807 192.099, 212.189 191.608 C 212.571 191.118, 215.047 192.095, 217.692 193.781 C 223.272 197.336, 233.578 201, 238.001 201 C 239.686 201, 242.609 200.355, 244.497 199.566 C 254.161 195.528, 246.772 180.487, 230.992 172.077 C 227.697 170.320, 225.019 168.797, 225.042 168.691 C 225.066 168.586, 225.664 166.025, 226.371 163 L 227.657 157.500 232.754 157.836 C 246.296 158.730, 261 152.020, 261 144.946 C 261 137.907, 251.757 133.047, 236.592 132.111 L 226.684 131.500 224.964 126.428 L 223.243 121.357 228.079 119.061 C 238.173 114.269, 247 104.407, 247 97.923 C 247 87.698, 230.001 87.277, 215.200 97.136 C 212.835 98.711, 210.561 100, 210.146 100 C 209.731 100, 207.875 98.435, 206.021 96.522 C 202.880 93.281, 202.761 92.922, 204.268 91.256 C 205.158 90.273, 207.361 86.326, 209.165 82.484 C 213.503 73.246, 214.270 63.868, 211.023 59.750 C 208.391 56.411, 203.094 56.030, 198.500 58.848 M 129.362 67.500 C 129.045 68.325, 129.045 69.675, 129.362 70.500 C 130.227 72.755, 184.496 72.755, 185.362 70.500 C 185.678 69.675, 185.678 68.325, 185.362 67.500 C 184.496 65.245, 130.227 65.245, 129.362 67.500 M 134.384 75.442 C 134.080 76.234, 133.987 77.697, 134.179 78.692 C 134.499 80.360, 136.214 80.521, 156.387 80.770 C 180.675 81.070, 182.960 80.528, 179.663 75.250 C 178.433 73.282, 135.142 73.465, 134.384 75.442 M 139 82.772 C 139 83.237, 139.668 84.491, 140.484 85.559 C 143.702 89.770, 144.196 95.545, 147.990 173.444 C 148.704 188.107, 149.384 194.625, 150.255 195.179 C 151.692 196.091, 162.477 196.247, 165.628 195.402 C 168.349 194.671, 168.658 191.095, 169.987 145 C 171.433 94.843, 172.149 86.262, 175.043 84.473 C 175.588 84.137, 175.797 83.480, 175.508 83.013 C 174.823 81.904, 139 81.667, 139 82.772 M 156.731 118.750 C 157.024 133.463, 157.429 145.687, 157.632 145.917 C 158.713 147.140, 159.010 143.106, 159.635 118.691 C 160.314 92.188, 160.304 92, 158.259 92 C 156.217 92, 156.204 92.236, 156.731 118.750 M 158.300 152 C 158.300 155.025, 158.487 156.262, 158.716 154.750 C 158.945 153.238, 158.945 150.762, 158.716 149.250 C 158.487 147.738, 158.300 148.975, 158.300 152 M 274.267 240.314 C 273.590 241.798, 273.551 243.233, 274.156 244.314 C 275.462 246.649, 276.675 246.425, 278.595 243.495 C 279.918 241.476, 279.996 240.700, 278.996 239.495 C 277.215 237.349, 275.481 237.650, 274.267 240.314 M 251.198 241.466 C 250.300 243.437, 250.382 244.239, 251.609 245.466 C 252.452 246.310, 253.324 247, 253.546 247 C 254.469 247, 257.033 240.862, 256.482 239.971 C 255.352 238.142, 252.321 238.999, 251.198 241.466 M 289.446 245.106 C 280.888 261.995, 254.364 272.927, 230 269.606 L 221.500 268.447 226.589 262.974 C 236.890 251.894, 242.124 244, 239.170 244 C 238.713 244, 236.945 245.912, 235.241 248.250 C 230.397 254.897, 216.861 268.743, 217.400 266.500 C 217.665 265.400, 218.192 261.855, 218.572 258.623 C 219.132 253.856, 219.001 252.833, 217.882 253.206 C 216.425 253.692, 215.650 257.670, 214.132 272.463 C 213.071 282.797, 213.826 286, 217.320 286 C 220.144 286, 222.819 283.298, 223.897 279.357 C 224.533 277.032, 225.128 276.579, 227.089 276.924 C 228.415 277.156, 234.225 277.324, 240 277.295 C 248.710 277.252, 251.777 276.792, 257.988 274.599 C 275.455 268.433, 289.569 255.566, 293.475 242.250 C 294.704 238.059, 292.072 239.925, 289.446 245.106 M 122.559 246.219 C 120.540 249.102, 120.575 251.623, 122.645 252.417 C 124.663 253.191, 128 250.364, 128 247.880 C 128 246.885, 127.127 245.603, 126.059 245.032 C 124.492 244.193, 123.818 244.422, 122.559 246.219 M 186.133 248.750 C 185.546 251.363, 184.766 256.200, 184.399 259.500 C 183.478 267.783, 182.787 269.231, 177.139 274.707 C 173.435 278.298, 171.797 280.855, 170.606 284.903 C 168.816 290.988, 167.362 310.322, 168.387 314.406 C 169.625 319.338, 170.778 316.099, 171.464 305.758 C 172.601 288.641, 173.601 283.797, 176.526 281.251 C 177.948 280.013, 181.125 278.494, 183.587 277.874 C 190.292 276.185, 193.347 270.483, 189 267.768 C 186.138 265.981, 186.499 265.315, 190.750 264.533 C 194.806 263.787, 199.325 260.134, 201.615 255.750 C 203.294 252.536, 201.801 251.965, 198.805 254.676 C 197.469 255.886, 196.649 256.049, 195.864 255.264 C 194.302 253.702, 195.708 252, 198.559 252 C 201.237 252, 201.995 249.319, 199.578 248.392 C 197.366 247.543, 194.572 249.522, 192.467 253.431 C 191.410 255.394, 190.198 257, 189.773 257 C 189.348 257, 189 254.075, 189 250.500 C 189 242.861, 187.642 242.031, 186.133 248.750 M 255.361 246.500 C 254.908 247.681, 254.028 247.973, 252.258 247.529 C 249.564 246.852, 247.089 249.088, 247.032 252.250 C 246.997 254.181, 250.443 254.710, 251.536 252.941 C 251.899 252.354, 253.413 252.151, 254.936 252.486 C 258.212 253.205, 260.309 251.202, 259.827 247.815 C 259.438 245.086, 256.263 244.151, 255.361 246.500 M 68.670 246.750 C 67.965 247.930, 66.111 258.086, 65.794 262.500 C 65.396 268.049, 67.256 267.201, 68.608 261.216 C 70.824 251.405, 70.860 243.084, 68.670 246.750 M 231.133 249.501 C 227.786 253.313, 227.453 254, 228.949 254 C 230.153 254, 235.452 247.119, 234.773 246.439 C 234.494 246.161, 232.856 247.539, 231.133 249.501 M 48.879 251.750 C 46.493 257.870, 45.926 269, 48 269 C 49.128 269, 49.889 265.458, 50.629 256.750 C 51.312 248.710, 50.721 247.022, 48.879 251.750 M 154.122 252.024 C 152.035 252.907, 151.819 253.489, 152.361 256.765 C 152.700 258.819, 152.983 265.337, 152.989 271.250 C 152.999 280.658, 153.250 282.250, 155 284 C 157.483 286.483, 162.064 286.578, 164.992 284.208 C 167.079 282.517, 167.213 281.587, 167.352 267.803 C 167.434 259.766, 167.172 252.857, 166.772 252.450 C 165.580 251.239, 156.686 250.939, 154.122 252.024 M 90.943 258.107 C 90.118 259.648, 89.517 259.917, 88.707 259.107 C 86.821 257.221, 84.375 257.881, 83.131 260.612 C 81.056 265.166, 85.715 268.269, 88.057 263.893 C 88.882 262.352, 89.483 262.083, 90.293 262.893 C 92.058 264.658, 93.829 264.191, 95.595 261.495 C 96.918 259.476, 96.996 258.700, 95.996 257.495 C 94.253 255.395, 92.265 255.636, 90.943 258.107 M 139.497 260.003 C 136.580 262.990, 134.939 263.950, 133.408 263.566 C 132 263.213, 130.545 263.855, 128.981 265.520 C 127.700 266.884, 126.110 268, 125.448 268 C 124.786 268, 123.685 268.675, 123 269.500 C 121.420 271.403, 120 271.427, 120 269.550 C 120 267.236, 117.006 266.102, 113.826 267.211 C 110.980 268.203, 110.105 270.329, 112.049 271.530 C 113.524 272.442, 111.248 275, 108.961 275 C 107.974 275, 106.987 274.460, 106.766 273.799 C 106.470 272.911, 105.473 273.017, 102.933 274.209 C 96.658 277.154, 90.603 278.264, 80.170 278.383 C 70.351 278.494, 69.741 278.379, 67.850 276.053 C 66.210 274.036, 65.701 273.861, 64.946 275.053 C 63.508 277.326, 63.846 282.703, 65.532 284.389 C 67.857 286.715, 72.664 287.232, 81.564 286.115 C 90.568 284.985, 98.199 282.685, 102.084 279.932 C 103.541 278.899, 105.561 278.334, 106.717 278.636 C 107.844 278.931, 110.147 278.458, 111.834 277.586 C 113.520 276.714, 115.958 276, 117.250 276 C 118.543 276, 120.027 275.592, 120.550 275.094 C 121.072 274.596, 123.227 273.231, 125.339 272.062 C 128.665 270.218, 129.614 270.093, 132.451 271.118 C 135.332 272.160, 136.245 272.015, 140.073 269.901 C 147.886 265.588, 151.657 256.869, 145.995 256.207 C 144.161 255.993, 142.420 257.010, 139.497 260.003 M 38.629 258.750 C 38.350 259.712, 37.806 263.647, 37.419 267.492 C 36.810 273.539, 36.285 274.915, 33.536 277.664 C 27.004 284.196, 17.414 282.523, 17.568 274.878 C 17.606 273.020, 17.999 270.150, 18.443 268.500 C 19.158 265.838, 19.080 265.669, 17.755 267 C 14.051 270.722, 12.717 282.723, 15.557 286.777 C 16.790 288.539, 18.088 288.999, 21.807 288.996 C 27.863 288.991, 32.194 286.340, 36.033 280.287 C 39.769 274.396, 40.987 270.089, 40.994 262.750 C 41 257.251, 39.698 255.051, 38.629 258.750 M 292.148 261.575 C 291.186 263.687, 291.283 264.671, 292.692 267.056 C 294.377 269.908, 294.358 270.017, 291.705 272.786 C 290.217 274.339, 289 275.922, 289 276.305 C 289 277.980, 292.391 276.763, 295.003 274.150 C 298.675 270.479, 299.816 264.894, 297.589 261.496 C 295.494 258.299, 293.628 258.326, 292.148 261.575 M 139.232 263 C 138.545 264.100, 138.416 265, 138.944 265 C 140.619 265, 145 262.714, 145 261.839 C 145 260.144, 140.443 261.061, 139.232 263 M 280.576 266.057 C 278.813 271.992, 278.559 277.754, 279.961 279.971 C 281.450 282.325, 281.996 280.827, 283.059 271.467 C 284.263 260.877, 282.958 258.035, 280.576 266.057 M 159.581 265.562 C 157.408 267.735, 157.599 270.082, 160 270.710 C 162.531 271.372, 162.506 271.794, 159.750 274.936 L 157.500 277.500 160.250 275.076 C 162.334 273.238, 163 271.739, 163 268.885 C 163 264.496, 161.807 263.336, 159.581 265.562 M 26.278 266.250 C 24.097 269.068, 24.101 270.958, 26.292 272.503 C 28.339 273.948, 28.627 273.906, 30.250 271.920 C 32.401 269.287, 32.425 268.568, 30.429 266.571 C 28.531 264.673, 27.556 264.598, 26.278 266.250 M 60 268.052 C 60 268.631, 58.655 269.573, 57.011 270.146 C 55.008 270.844, 53.186 272.725, 51.485 275.850 C 49.884 278.791, 47.577 281.248, 45.236 282.506 C 41.092 284.732, 39.638 288, 42.792 288 C 45.556 288, 49.366 284.715, 52.659 279.492 C 54.221 277.014, 56.292 274.732, 57.261 274.422 C 58.229 274.112, 59.692 272.563, 60.511 270.979 C 62.266 267.584, 62.338 267, 61 267 C 60.450 267, 60 267.473, 60 268.052 M 200.039 270.454 C 199.375 271.253, 198.229 273.913, 197.491 276.364 C 196.413 279.946, 196.395 281.158, 197.401 282.533 C 200.210 286.376, 206 280.450, 206 273.732 C 206 269.570, 202.410 267.596, 200.039 270.454 M 217 275.500 C 217 278.122, 219.156 278.820, 221.896 277.086 C 224.003 275.751, 222.411 273, 219.531 273 C 217.498 273, 217 273.492, 217 275.500 M 199.469 277.050 C 198.519 278.588, 199.820 279.580, 201.104 278.296 C 201.822 277.578, 201.839 277.019, 201.156 276.597 C 200.596 276.251, 199.837 276.455, 199.469 277.050 M 57.828 292.905 C 56.750 294.630, 56.427 294.671, 54.388 293.335 C 52.300 291.967, 52.016 292.046, 50.451 294.435 C 49.090 296.512, 49.003 297.299, 50.004 298.505 C 51.634 300.469, 52.989 300.393, 54.572 298.250 C 55.608 296.848, 56.117 296.748, 57.133 297.750 C 59.094 299.685, 60.934 299.239, 62.168 296.530 C 63.029 294.641, 62.995 293.699, 62.025 292.530 C 60.344 290.504, 59.266 290.601, 57.828 292.905" stroke="none" fill="#0a0b16" fill-rule="evenodd"/></svg>