<svg xmlns="http://www.w3.org/2000/svg" width="442" height="564" viewBox="0 0 442 564" version="1.1"><path d="M 230.403 174.805 C 229.249 176.287, 227.771 178.512, 227.117 179.750 C 225.606 182.614, 224.286 182.578, 218.821 179.524 L 214.390 177.047 213.156 183.024 L 211.922 189 205.505 189 L 199.089 189 200.544 193.126 C 202.923 199.866, 202.567 200.875, 197 203.189 C 194.250 204.332, 192 205.723, 192 206.280 C 192 206.838, 193.553 209.190, 195.452 211.506 L 198.903 215.719 195.866 218.609 C 190.559 223.659, 190.446 224.677, 194.941 226.970 C 197.130 228.086, 199.672 229, 200.591 229 C 201.984 229, 202.141 229.624, 201.537 232.750 C 201.138 234.813, 200.577 237.748, 200.289 239.272 L 199.766 242.045 205.344 241.389 C 210.571 240.775, 210.983 240.884, 211.897 243.117 C 212.434 244.428, 213.147 247.188, 213.482 249.250 C 213.817 251.313, 214.324 253, 214.610 253 C 214.896 253, 217.410 252.019, 220.197 250.820 C 224.627 248.914, 225.404 248.828, 226.382 250.130 C 226.997 250.949, 228.675 253.104, 230.110 254.918 L 232.720 258.217 236.030 253.608 C 237.850 251.074, 239.656 249, 240.042 249 C 240.429 249, 242.865 249.938, 245.456 251.084 C 248.047 252.230, 250.313 253.017, 250.493 252.834 C 250.673 252.650, 251.426 250.025, 252.167 247 L 253.514 241.500 259.356 241.623 L 265.199 241.745 264.535 238.623 C 262.701 229.996, 262.688 229, 264.409 229 C 265.328 229, 267.870 228.086, 270.059 226.970 C 274.554 224.677, 274.441 223.659, 269.134 218.609 L 266.097 215.719 269.548 211.506 C 271.447 209.190, 273 206.838, 273 206.280 C 273 205.723, 270.750 204.332, 268 203.189 C 262.433 200.875, 262.077 199.866, 264.456 193.126 L 265.911 189 259.592 189 L 253.273 189 251.997 182.987 L 250.721 176.973 246.432 179.487 C 244.074 180.869, 241.512 182, 240.740 182 C 239.968 182, 237.879 179.750, 236.097 177 C 234.315 174.250, 232.777 172.025, 232.679 172.055 C 232.580 172.086, 231.556 173.323, 230.403 174.805" stroke="none" fill="#476ba5" fill-rule="evenodd"/><path d="M 260 62.500 C 261.292 63.875, 262.574 65, 262.849 65 C 263.124 65, 262.292 63.875, 261 62.500 C 259.708 61.125, 258.426 60, 258.151 60 C 257.876 60, 258.708 61.125, 260 62.500 M 186.462 84.250 L 181.500 89.500 186.750 84.538 C 191.628 79.926, 192.459 79, 191.712 79 C 191.554 79, 189.192 81.362, 186.462 84.250 M 246 90.500 C 247.292 91.875, 248.574 93, 248.849 93 C 249.124 93, 248.292 91.875, 247 90.500 C 245.708 89.125, 244.426 88, 244.151 88 C 243.876 88, 244.708 89.125, 246 90.500 M 176.612 93.885 C 173.762 96.804, 173.152 97.963, 174.159 98.545 C 174.897 98.972, 175.153 98.939, 174.730 98.473 C 174.306 98.007, 175.635 95.910, 177.683 93.813 C 179.730 91.716, 181.181 90, 180.906 90 C 180.631 90, 178.699 91.748, 176.612 93.885 M 273.195 120.500 C 273.215 122.150, 273.439 122.704, 273.693 121.731 C 273.947 120.758, 273.930 119.408, 273.656 118.731 C 273.382 118.054, 273.175 118.850, 273.195 120.500 M 319.195 126.500 C 319.215 128.150, 319.439 128.704, 319.693 127.731 C 319.947 126.758, 319.930 125.408, 319.656 124.731 C 319.382 124.054, 319.175 124.850, 319.195 126.500 M 258.232 131 C 258.232 132.925, 258.438 133.713, 258.689 132.750 C 258.941 131.787, 258.941 130.213, 258.689 129.250 C 258.438 128.287, 258.232 129.075, 258.232 131 M 273.195 135.500 C 273.215 137.150, 273.439 137.704, 273.693 136.731 C 273.947 135.758, 273.930 134.408, 273.656 133.731 C 273.382 133.054, 273.175 133.850, 273.195 135.500 M 177.195 184.500 C 177.215 186.150, 177.439 186.704, 177.693 185.731 C 177.947 184.758, 177.930 183.408, 177.656 182.731 C 177.382 182.054, 177.175 182.850, 177.195 184.500 M 78.946 186.750 L 75.500 190.500 79.250 187.054 C 81.313 185.158, 83 183.471, 83 183.304 C 83 182.540, 82.154 183.260, 78.946 186.750 M 386 187.500 C 387.866 189.425, 389.617 191, 389.892 191 C 390.167 191, 388.866 189.425, 387 187.500 C 385.134 185.575, 383.383 184, 383.108 184 C 382.833 184, 384.134 185.575, 386 187.500 M 203.264 188.718 C 204.784 188.947, 207.034 188.941, 208.264 188.704 C 209.494 188.467, 208.250 188.279, 205.500 188.286 C 202.750 188.294, 201.744 188.488, 203.264 188.718 M 256.250 188.716 C 257.762 188.945, 260.238 188.945, 261.750 188.716 C 263.262 188.487, 262.025 188.300, 259 188.300 C 255.975 188.300, 254.738 188.487, 256.250 188.716 M 151.958 197.250 C 156.102 201.665, 157 202.459, 157 201.708 C 157 201.548, 154.863 199.410, 152.250 196.958 L 147.500 192.500 151.958 197.250 M 317 193.383 C 317 193.594, 317.900 194.002, 319 194.290 C 320.100 194.577, 321 194.405, 321 193.906 C 321 193.408, 320.100 193, 319 193 C 317.900 193, 317 193.173, 317 193.383 M 160 205.313 C 160 205.485, 161.463 206.948, 163.250 208.563 L 166.500 211.500 163.563 208.250 C 160.825 205.221, 160 204.540, 160 205.313 M 71 237.500 C 72.292 238.875, 73.574 240, 73.849 240 C 74.124 240, 73.292 238.875, 72 237.500 C 70.708 236.125, 69.426 235, 69.151 235 C 68.876 235, 69.708 236.125, 71 237.500 M 93 238.500 C 94.292 239.875, 95.574 241, 95.849 241 C 96.124 241, 95.292 239.875, 94 238.500 C 92.708 237.125, 91.426 236, 91.151 236 C 90.876 236, 91.708 237.125, 93 238.500 M 317 241 C 314.650 241.753, 314.698 241.807, 317.809 241.900 C 319.781 241.960, 320.868 241.596, 320.500 241 C 320.160 240.450, 319.796 240.045, 319.691 240.100 C 319.586 240.155, 318.375 240.560, 317 241 M 80.500 247 C 83.209 249.750, 85.650 252, 85.925 252 C 86.200 252, 84.209 249.750, 81.500 247 C 78.791 244.250, 76.350 242, 76.075 242 C 75.800 242, 77.791 244.250, 80.500 247 M 101.958 247.250 C 106.102 251.665, 107 252.459, 107 251.708 C 107 251.548, 104.862 249.410, 102.250 246.958 L 97.500 242.500 101.958 247.250 M 317.250 245.689 C 318.212 245.941, 319.788 245.941, 320.750 245.689 C 321.712 245.438, 320.925 245.232, 319 245.232 C 317.075 245.232, 316.288 245.438, 317.250 245.689 M 173.453 261.250 L 169.500 265.500 173.750 261.547 C 177.702 257.871, 178.460 257, 177.703 257 C 177.540 257, 175.627 258.913, 173.453 261.250 M 317.750 257.706 C 318.988 257.944, 321.012 257.944, 322.250 257.706 C 323.488 257.467, 322.475 257.272, 320 257.272 C 317.525 257.272, 316.512 257.467, 317.750 257.706 M 278 269.500 C 279.866 271.425, 281.617 273, 281.892 273 C 282.167 273, 280.866 271.425, 279 269.500 C 277.134 267.575, 275.383 266, 275.108 266 C 274.833 266, 276.134 267.575, 278 269.500 M 217.946 290.750 L 214.500 294.500 218.250 291.054 C 221.740 287.846, 222.460 287, 221.696 287 C 221.529 287, 219.842 288.688, 217.946 290.750 M 255 314.313 C 255 314.485, 256.462 315.948, 258.250 317.563 L 261.500 320.500 258.563 317.250 C 255.825 314.221, 255 313.540, 255 314.313 M 255.516 353 L 240.532 368.500 255.972 353.290 C 264.464 344.924, 271.207 337.949, 270.956 337.790 C 270.705 337.630, 263.757 344.475, 255.516 353 M 221 344.500 C 222.292 345.875, 223.574 347, 223.849 347 C 224.124 347, 223.292 345.875, 222 344.500 C 220.708 343.125, 219.426 342, 219.151 342 C 218.876 342, 219.708 343.125, 221 344.500 M 292.768 363.725 C 294.565 363.947, 297.265 363.943, 298.768 363.715 C 300.271 363.486, 298.800 363.304, 295.500 363.310 C 292.200 363.315, 290.971 363.502, 292.768 363.725 M 255.924 367.750 L 253.500 370.500 256.250 368.076 C 257.762 366.742, 259 365.505, 259 365.326 C 259 364.541, 258.190 365.180, 255.924 367.750 M 146 389.783 C 144.474 391.570, 135.303 397.390, 120 406.282 C 112.002 410.930, 106.014 416.347, 107.373 417.706 C 108.151 418.484, 116 414.974, 116 413.848 C 116 413.382, 116.845 413, 117.878 413 C 118.910 413, 120.373 412.253, 121.128 411.341 C 121.882 410.428, 124.525 408.725, 127 407.556 C 137.291 402.693, 149 393.057, 149 389.449 C 149 387.510, 147.830 387.641, 146 389.783 M 81.542 401.338 C 78.391 406.714, 78.388 407.334, 81.500 409 C 82.875 409.736, 84 410.712, 84 411.169 C 84 411.626, 84.615 412, 85.367 412 C 86.697 412, 92 404.930, 92 403.158 C 92 401.779, 86.882 397, 85.406 397 C 84.679 397, 82.940 398.952, 81.542 401.338 M 380.193 402.750 C 374.408 408, 370.372 411, 369.092 411 C 368.491 411, 368 411.377, 368 411.838 C 368 412.571, 357.968 418, 356.613 418 C 356.331 418, 354.100 419.350, 351.655 421 C 349.210 422.650, 346.782 424, 346.260 424 C 345.737 424, 344.495 424.900, 343.500 426 C 342.505 427.100, 340.972 428.002, 340.095 428.005 C 334.206 428.024, 313.259 447.316, 314.249 451.809 C 314.549 453.173, 315.286 452.824, 318.061 450 C 323.043 444.930, 338.368 435.024, 350.500 429.031 C 357.858 425.397, 364.969 421.264, 367.079 419.397 C 367.947 418.629, 369.184 418, 369.826 418 C 371.473 418, 377.446 412.079, 379.410 408.500 C 380.315 406.850, 381.934 404.038, 383.008 402.250 C 384.081 400.462, 384.817 399, 384.642 399 C 384.468 399, 382.466 400.688, 380.193 402.750 M 88.314 413.174 C 86.676 417.266, 86.615 417.306, 85.200 415.174 C 84.406 413.978, 83.136 413, 82.378 413 C 81.620 413, 81 412.550, 81 412 C 81 410.596, 79.102 410.755, 77.570 412.287 C 76.863 412.994, 75.683 415.235, 74.948 417.266 C 73.701 420.717, 73.768 421.124, 75.981 423.480 C 79.004 426.698, 79.736 426.649, 83.525 422.976 C 86.642 419.955, 86.648 419.954, 88.478 421.976 C 90.964 424.723, 93.446 424.519, 95.927 421.365 C 98.943 417.531, 98.624 413.581, 95.096 411.068 C 91.031 408.174, 90.213 408.428, 88.314 413.174 M 312.759 417.488 C 310.164 421.494, 309.436 421.775, 308.722 419.046 C 308.072 416.559, 303.514 415.328, 301.414 417.071 C 299.142 418.957, 296.038 425.451, 296.825 426.672 C 297.196 427.247, 299.232 428.338, 301.348 429.095 C 305.045 430.418, 305.284 430.371, 307.424 427.884 L 309.651 425.294 313.388 427.397 L 317.124 429.500 320.062 426.038 C 323.608 421.859, 323.749 419.243, 320.592 416.250 C 317.298 413.128, 315.388 413.429, 312.759 417.488 M 135.610 419.052 C 134.174 420.758, 133 422.794, 133 423.577 C 133 424.360, 132.550 425, 132 425 C 130.645 425, 130.725 428.712, 132.098 429.560 C 132.773 429.978, 131.255 432.214, 128.153 435.369 C 122.406 441.216, 118.024 449.775, 118.010 455.182 C 118.002 458.111, 118.594 459.287, 120.904 460.932 C 122.502 462.069, 124.247 463, 124.782 463 C 125.317 463, 126.288 463.643, 126.940 464.428 C 128.934 466.831, 125.467 472.299, 118.355 477.970 C 117.725 478.473, 114.356 479.820, 110.868 480.965 C 104.336 483.109, 103.162 483.010, 96.257 479.734 C 93.469 478.411, 90.925 474.628, 90.344 470.943 C 89.932 468.330, 92.264 458.418, 94.092 455.012 C 95.054 453.218, 97.544 447.234, 98.372 444.724 C 98.694 443.747, 100.967 442.086, 103.422 441.033 C 108.849 438.707, 111 435.022, 111 428.050 C 111 424.333, 110.472 422.472, 109 421 C 106.344 418.344, 105.149 418.478, 103.975 421.565 C 102.450 425.577, 102.799 426.912, 105.555 427.603 C 107.594 428.115, 108.048 428.769, 107.805 430.849 C 107.637 432.282, 106.600 433.931, 105.500 434.514 C 104.400 435.097, 101.925 436.568, 100 437.783 C 98.075 438.998, 95.706 439.994, 94.736 439.996 C 93.766 439.998, 92.068 440.563, 90.962 441.250 C 89.185 442.354, 88.654 442.121, 86.403 439.250 C 83.182 435.141, 79.860 434.984, 77.135 438.811 C 72.891 444.770, 73.102 452, 77.519 452 C 78.884 452, 80 452.210, 80 452.467 C 80 453.987, 72.498 459.916, 67.561 462.298 C 64.371 463.836, 61.993 465.326, 62.275 465.609 C 63.357 466.690, 75.642 463.536, 78.500 461.443 C 80.150 460.235, 83.063 456.760, 84.973 453.722 C 87.499 449.705, 89.340 447.924, 91.723 447.193 C 93.526 446.640, 95 446.376, 95 446.607 C 95 447.205, 92.611 451.402, 91.931 452 C 90.400 453.346, 88.019 461.561, 86.998 469.018 C 85.486 480.059, 86.394 486.240, 90.156 490.524 C 98.971 500.565, 115.068 496.029, 125.409 480.590 C 130.944 472.325, 133.211 465.191, 132.802 457.316 C 132.502 451.535, 132.474 451.488, 128.250 449.579 C 123.906 447.615, 123.059 445.737, 125.282 443 C 127.084 440.781, 136.992 433.493, 140.887 431.521 C 145.715 429.078, 149 425.177, 149 421.889 C 149 418.763, 147.448 417.614, 141.860 416.607 C 138.629 416.024, 137.926 416.299, 135.610 419.052 M 247.219 416.731 C 245.991 417.169, 240.530 426.897, 241.183 427.484 C 241.357 427.641, 243.264 428.706, 245.421 429.850 L 249.342 431.931 251.536 429.716 C 254.216 427.009, 255.348 423.672, 254.497 420.989 C 253.779 418.728, 249.175 416.034, 247.219 416.731 M 268.633 419.979 C 265.546 424.643, 265.188 428, 267.777 428 C 268.755 428, 270.452 428.628, 271.547 429.396 C 273.279 430.608, 273.813 430.570, 275.623 429.104 C 277.859 427.294, 280 423.828, 280 422.020 C 280 420.200, 275.241 416, 273.178 416 C 272.057 416, 270.177 417.645, 268.633 419.979 M 174.789 420.087 C 171.724 422.374, 165 432.901, 165 435.412 C 165 436.320, 165.675 437.322, 166.500 437.638 C 168.395 438.366, 168.453 440.889, 166.590 441.604 C 165.815 441.901, 164.929 443.125, 164.621 444.322 C 164.313 445.520, 162.481 448.300, 160.550 450.500 C 158.619 452.700, 157.015 454.950, 156.986 455.500 C 156.957 456.050, 156.053 457.556, 154.977 458.848 L 153.021 461.196 149.934 458.598 C 146.238 455.488, 145.610 455.425, 143.289 457.933 C 137.266 464.438, 136.657 471.326, 141.999 472.500 C 143.650 472.862, 144.989 473.461, 144.976 473.829 C 144.962 474.198, 140.814 477.196, 135.756 480.492 C 129.834 484.352, 127.173 486.602, 128.280 486.816 C 129.226 486.998, 131.419 486.439, 133.154 485.573 C 134.888 484.708, 137.503 484, 138.965 484 C 141.536 484, 146 480.848, 146 479.032 C 146 478.543, 146.563 477.548, 147.250 476.821 C 147.938 476.095, 149.169 474.150, 149.987 472.500 C 150.805 470.850, 153.260 467.086, 155.443 464.137 L 159.412 458.773 164.706 459.395 C 168.133 459.798, 170 459.647, 170 458.967 C 170 458.389, 170.900 456.950, 172 455.770 C 174.528 453.056, 174.535 451.356, 172.023 450.012 C 169.515 448.670, 167.839 445.584, 168.575 443.664 C 168.888 442.850, 170.574 441.620, 172.322 440.932 C 176.388 439.331, 185.797 432.248, 187.105 429.803 C 188.067 428.006, 187.955 427.992, 184.432 429.464 C 179.922 431.348, 174.983 431.439, 172.580 429.682 C 170.892 428.448, 170.884 428.259, 172.461 426.682 C 173.972 425.171, 177.279 424.472, 180.763 424.928 C 182.896 425.208, 183.345 422.038, 181.466 419.963 C 179.254 417.519, 178.204 417.538, 174.789 420.087 M 226.379 421.792 C 223.202 423.531, 217.542 427.690, 215.889 429.500 C 209.178 436.849, 204.395 444.877, 202.992 451.144 C 201.415 458.192, 202.890 461.970, 207.701 463.208 C 211.802 464.263, 212.474 465.443, 210.999 469.002 C 209.313 473.072, 201.553 478.783, 195.199 480.631 C 184.984 483.600, 177.313 480.255, 175.510 472.044 C 174.727 468.482, 176.510 459.113, 179.037 453.500 C 180.950 449.252, 182.503 444.500, 181.978 444.500 C 181.804 444.500, 182.243 443.375, 182.953 442 C 183.664 440.625, 183.771 439.950, 183.192 440.500 C 182.288 441.359, 174.018 456.626, 174.108 457.270 C 174.126 457.396, 173.620 458.850, 172.983 460.500 C 172.347 462.150, 171.120 466.721, 170.257 470.658 C 168.340 479.406, 169.568 485.255, 174.386 490.319 C 180.074 496.296, 186.963 497.562, 194.699 494.050 C 199.589 491.830, 207.533 484.285, 211.356 478.229 C 215.657 471.414, 218.283 458.506, 216.377 453.539 C 216.034 452.646, 214.009 451.025, 211.877 449.937 C 209.744 448.849, 208 447.283, 208 446.457 C 208 442.116, 222.409 431.069, 226.183 432.517 C 227.080 432.861, 228.538 431.165, 230.395 427.616 C 234.257 420.234, 232.879 418.235, 226.379 421.792 M 382.490 421.411 C 380.464 423.762, 378 428.870, 378 430.716 C 378 431.765, 379.421 433.674, 381.157 434.958 C 384.929 437.746, 386.652 437.066, 389.305 431.738 C 390.934 428.469, 390.965 427.834, 389.630 425.252 C 387.842 421.793, 383.959 419.705, 382.490 421.411 M 154.010 426.490 C 151.699 428.949, 151.694 429.005, 153.584 431.093 C 155.486 433.195, 155.475 433.225, 151.498 436.625 C 149.203 438.589, 148.352 439.761, 149.500 439.378 C 152.426 438.402, 157.686 433.173, 159.047 429.887 C 161.373 424.270, 158.142 422.091, 154.010 426.490 M 70 433.350 C 70 434.092, 68.763 436.479, 67.250 438.653 C 65.737 440.827, 64.007 443.482, 63.405 444.553 C 62.409 446.324, 59.259 448.948, 51.460 454.500 C 47.924 457.017, 44.882 460.216, 45.468 460.801 C 45.714 461.047, 47.422 460.359, 49.265 459.271 C 51.107 458.184, 54.196 456.998, 56.130 456.635 C 58.063 456.273, 61.013 454.639, 62.685 453.004 C 66.428 449.344, 72.908 436.365, 72.250 433.847 C 71.693 431.717, 70 431.343, 70 433.350 M 310.005 435.574 C 308.083 437.505, 305.383 439.365, 304.005 439.709 C 302.627 440.052, 300.150 441.147, 298.500 442.142 C 296.850 443.137, 293.475 445.043, 291 446.376 C 286.012 449.063, 277.678 456.864, 274.842 461.500 C 272.605 465.158, 272.441 469.848, 274.523 470.647 C 275.361 470.969, 277.836 470.777, 280.023 470.222 C 284.537 469.076, 284.999 469.741, 281.750 472.702 C 279.085 475.131, 273.645 476.279, 269.103 475.371 C 265.011 474.552, 263.759 471.614, 264.899 465.510 C 265.884 460.238, 264.750 459.649, 262.393 464.208 C 260.250 468.352, 259.955 480.640, 261.911 484.317 C 263.457 487.225, 268.169 488.676, 272.519 487.585 C 276.206 486.659, 282.245 480.818, 284.672 475.830 C 290.083 464.708, 290.374 463.849, 289.014 463.009 C 288.298 462.566, 286.454 462.643, 284.915 463.179 C 283.377 463.716, 281.079 464.007, 279.809 463.826 L 277.500 463.497 279.834 461.499 C 281.118 460.399, 283.082 458.728, 284.198 457.784 C 285.314 456.841, 288.313 455.106, 290.864 453.930 C 301.307 449.114, 304.380 447.315, 308.680 443.500 C 313.455 439.263, 316.479 434.583, 315.482 432.971 C 314.538 431.443, 313.740 431.823, 310.005 435.574 M 281.342 439 C 278.507 442.183, 276.128 442.722, 273.143 440.857 C 269.841 438.795, 263.197 442.314, 257.088 449.362 C 251.392 455.933, 249.011 460.981, 253.326 457.336 C 254.522 456.326, 255.741 455.180, 256.035 454.789 C 257.636 452.661, 264.377 450.981, 268.904 451.582 C 274.623 452.340, 277.519 450.842, 281.241 445.201 C 283.360 441.988, 285.396 436, 284.369 436 C 284.175 436, 282.813 437.350, 281.342 439 M 395.500 442.453 C 392.566 443.708, 386.161 450.020, 382.769 455 C 381.832 456.375, 379.680 459.458, 377.987 461.852 C 376.294 464.246, 374.648 467.508, 374.330 469.102 C 373.642 472.539, 371.797 472.797, 368.866 469.866 C 366.959 467.959, 366.795 466.988, 367.321 460.711 C 367.645 456.850, 368.380 453.220, 368.955 452.645 C 370.160 451.440, 370.377 447, 369.231 447 C 368.352 447, 365.650 455.106, 362.956 465.828 C 360.910 473.969, 361.344 476.262, 365.876 481.250 C 369.757 485.522, 374.536 485.083, 379.500 480 C 382.923 476.494, 383.968 476, 387.953 475.996 C 393.947 475.991, 398.448 473.202, 399.987 468.539 C 401.508 463.931, 400.480 462.585, 392.943 459.316 C 385.435 456.060, 385.486 452.833, 393.108 448.945 C 395.353 447.799, 397.510 445.789, 398.068 444.320 C 399.321 441.025, 399.142 440.894, 395.500 442.453 M 322.284 450.795 C 320.188 454.615, 320.236 457, 322.409 457 C 324.121 457, 327.652 460.933, 328.902 464.232 C 329.753 466.479, 329.630 467.128, 328.208 467.889 C 327.257 468.398, 325.246 468.579, 323.740 468.291 C 321.584 467.878, 320.148 468.537, 316.997 471.383 C 313.559 474.490, 312.311 475, 308.152 475 C 299.407 475, 297.842 469.237, 303.631 458.349 C 304.978 455.817, 305.901 453.567, 305.683 453.349 C 303.375 451.041, 297.232 462.021, 296.079 470.515 C 294.798 479.958, 296.692 486.554, 300.955 487.490 C 305.084 488.397, 308.435 487.212, 310.299 484.186 C 314.509 477.355, 315.631 476.532, 320.880 476.430 C 323.639 476.376, 326.553 475.786, 327.356 475.120 C 330.147 472.803, 332.235 466.714, 332.368 460.505 C 332.508 453.945, 331.792 452.413, 326.998 448.998 L 324.318 447.090 322.284 450.795 M 224.738 455.835 C 223.279 459.013, 221.782 463.510, 221.411 465.829 C 221.041 468.147, 220.346 470.286, 219.869 470.581 C 217.251 472.199, 221.117 483.922, 224.943 485.969 C 229.018 488.150, 235.196 486.184, 239.376 481.375 C 240.708 479.844, 242.992 478.728, 245.500 478.383 C 251.637 477.540, 254.858 476.008, 257.095 472.866 C 259.356 469.691, 259.312 466.078, 257 465.014 C 247.254 460.531, 245.388 459.262, 243.907 456.107 L 242.314 452.713 240.657 455.079 C 239.746 456.380, 239 458.210, 239 459.146 C 239 460.081, 237.869 462.191, 236.486 463.834 C 235.104 465.477, 233.298 468.436, 232.473 470.411 C 230.590 474.917, 227.734 475.187, 226.009 471.021 C 225.001 468.589, 225.071 466.443, 226.386 459.353 C 227.273 454.574, 227.861 450.528, 227.694 450.361 C 227.527 450.194, 226.197 452.657, 224.738 455.835 M 346.681 452.968 C 342.340 458.127, 342.265 459.993, 346.258 463.451 C 349.705 466.436, 352 469.821, 352 471.922 C 352 472.501, 350.098 474.176, 347.772 475.644 C 345.447 477.112, 343.022 478.805, 342.383 479.406 C 341.744 480.008, 340.030 481.363, 338.574 482.418 C 334.836 485.126, 337.355 486.328, 341.678 483.900 C 343.538 482.855, 346.139 482, 347.458 482 C 351.280 482, 353.496 478.407, 357.635 465.500 C 359.007 461.220, 356.202 454.062, 352.236 451.723 L 349.223 449.946 346.681 452.968 M 379.021 464.474 C 377.155 466.723, 378.213 469.464, 381.076 469.799 C 382.997 470.023, 383.920 469.471, 384.780 467.584 C 385.655 465.663, 385.639 464.893, 384.712 464.315 C 382.531 462.953, 380.230 463.018, 379.021 464.474 M 237.250 466.496 C 236.563 467.277, 236 468.835, 236 469.958 C 236 471.551, 236.646 472, 238.941 472 C 242.427 472, 243.409 470.768, 242.575 467.443 C 241.893 464.725, 239.226 464.251, 237.250 466.496 M 389 467.500 C 389 469.600, 389.471 470, 391.941 470 C 396.130 470, 396.552 468.422, 392.857 466.578 C 388.851 464.580, 389 464.544, 389 467.500 M 247.035 469.934 C 245.509 472.787, 245.676 473, 249.441 473 C 253.834 473, 254.658 471.661, 251.527 469.609 C 248.432 467.582, 248.289 467.592, 247.035 469.934 M 282.783 492.370 L 280.101 497.839 283.484 500.420 C 285.344 501.839, 287.185 503, 287.575 503 C 287.965 503, 289.570 501.654, 291.142 500.009 C 295.940 494.989, 294.460 489.144, 287.983 487.528 C 285.717 486.963, 285.198 487.446, 282.783 492.370" stroke="none" fill="#f3ad52" fill-rule="evenodd"/><path d="M 214.554 71.434 L 193.164 92.868 197.332 94.299 C 205.546 97.120, 212.810 102.316, 218.589 109.504 C 224.353 116.673, 226.340 120.427, 230.661 132.311 C 233.873 141.146, 233.968 144.798, 231.046 147.164 C 226.437 150.896, 223.264 148.850, 220.709 140.500 C 216.106 125.454, 209.098 114.915, 199.432 108.499 C 192.886 104.154, 184.324 100.360, 179 99.445 C 177.075 99.115, 174.825 98.625, 174 98.356 C 172.988 98.027, 179.777 90.746, 194.847 75.996 C 207.189 63.917, 216.901 53.648, 216.538 53.062 C 215.050 50.653, 212.249 52.529, 201.933 62.844 C 195.969 68.809, 190.731 73.384, 190.294 73.012 C 187.978 71.040, 177.874 67.909, 172.092 67.372 C 164.161 66.635, 154.382 68.411, 153.103 70.822 C 151.930 73.032, 146.633 91.883, 145.044 99.500 C 144.356 102.800, 142.490 110.050, 140.897 115.612 C 139.303 121.173, 138 126.213, 138 126.813 C 138 127.559, 140.629 127.717, 146.343 127.314 C 156.573 126.592, 162.855 127.945, 173 133.057 C 181.572 137.377, 185.573 140.198, 192.148 146.558 C 197.556 151.789, 198.780 155.161, 196.523 158.606 C 193.999 162.458, 190.962 161.617, 183.844 155.094 C 168.032 140.605, 151.411 136.159, 131.187 141.007 C 126.614 142.103, 122.737 143, 122.571 143 C 121.932 143, 123.903 134.889, 128.283 119.500 C 132.521 104.607, 136.565 89.526, 137.734 84.250 C 138.009 83.013, 137.843 82.007, 137.367 82.015 C 135.090 82.056, 133.777 84.204, 132.432 90.091 C 131.627 93.616, 130.555 97.625, 130.050 99 C 129.545 100.375, 128.436 104.014, 127.585 107.087 C 126.069 112.563, 125.964 112.677, 122.269 112.814 C 120.196 112.891, 117.150 113.246, 115.500 113.601 C 107.866 115.247, 91 126.304, 91 129.662 C 91 130.551, 92.333 135.603, 93.961 140.889 C 95.590 146.175, 97.431 152.975, 98.052 156 C 99.256 161.860, 104.432 180.376, 106.075 184.697 L 107.061 187.291 109.281 185.301 C 113.647 181.386, 123.605 176.146, 129.644 174.587 C 142.764 171.199, 165.994 173.967, 170.739 179.483 C 173.317 182.480, 173.588 184.814, 171.663 187.446 C 170.211 189.432, 170.333 189.439, 156.500 186.527 C 144.737 184.050, 128.678 185.942, 123 190.473 C 122.175 191.132, 120.010 192.261, 118.188 192.982 C 116.367 193.704, 112.421 196.691, 109.419 199.622 C 106.417 202.553, 103.081 205.421, 102.005 205.997 C 99.870 207.140, 99.912 207.226, 98.076 198 C 97.584 195.525, 95.553 187.875, 93.563 181 C 91.573 174.125, 89.101 164.605, 88.070 159.845 C 85.712 148.960, 85.086 147, 83.968 147 C 81.305 147, 81.352 150.889, 84.125 160 C 85.715 165.225, 87.297 172.045, 87.641 175.156 C 88.252 180.689, 88.200 180.845, 85.247 182.372 C 79.080 185.561, 69.570 199.046, 66.882 208.412 C 66.095 211.155, 66.609 211.868, 75.773 220.758 C 81.123 225.946, 85.825 230.486, 86.223 230.846 C 86.620 231.206, 88.195 232.774, 89.723 234.332 C 107.710 252.675, 111 255.081, 111 249.891 C 111 244.289, 120.727 232.298, 130.479 225.879 C 140.053 219.577, 142.240 218.560, 151.688 216.018 C 159.657 213.873, 159.959 213.863, 162.938 215.623 C 165.134 216.920, 166 218.184, 166 220.093 C 166 223.628, 165.118 224.199, 153.976 227.873 C 133.761 234.540, 124.194 244.524, 116.962 266.500 C 115.695 270.350, 114.528 273.670, 114.368 273.878 C 114.208 274.086, 104.222 264.311, 92.177 252.156 C 80.132 240.001, 69.990 230.344, 69.638 230.695 C 67.877 232.457, 69.886 235.356, 79.673 245.173 C 87.702 253.227, 90.094 256.204, 89.329 257.190 C 85.474 262.160, 83.402 282.145, 85.853 290.716 C 87.024 294.810, 87.255 294.990, 93.780 296.904 C 97.476 297.987, 102.300 299.170, 104.500 299.532 C 106.700 299.894, 116.238 302.397, 125.695 305.095 C 135.153 307.793, 143.360 310, 143.934 310 C 144.627 310, 144.769 307.053, 144.356 301.233 C 143.330 286.776, 146.260 277.605, 156.498 263.231 C 162.371 254.985, 168.148 250, 171.830 250 C 172.875 250, 174.874 250.900, 176.272 251.999 C 179.564 254.589, 178.957 256.853, 173.640 261.802 C 168.445 266.638, 160.545 278.222, 158.458 284.062 C 156.029 290.861, 155.559 304.035, 157.356 314.961 C 158.211 320.165, 158.814 324.520, 158.694 324.639 C 158.170 325.163, 144.365 321.760, 131.500 317.936 C 105.636 310.247, 99 308.901, 99 311.341 C 99 312.881, 99.971 313.233, 120 318.968 L 129.500 321.688 130.152 327.094 C 131.181 335.618, 134.228 343.148, 139.334 349.784 C 141.927 353.155, 144.493 356.187, 145.035 356.522 C 145.577 356.857, 152.428 355.236, 160.260 352.921 C 168.092 350.606, 177.875 347.928, 182 346.972 C 192.812 344.464, 202.373 341.770, 203.315 340.966 C 203.763 340.584, 202.226 338.072, 199.899 335.385 C 194.245 328.856, 192.159 323.786, 190.802 313.284 C 189.929 306.530, 189.958 301.847, 190.925 293.023 C 192.615 277.605, 194.076 275, 201.032 275 C 205.124 275, 205.937 277.194, 204.310 283.850 C 202.596 290.865, 202.347 310.849, 203.893 317.334 C 204.921 321.643, 210 330.927, 213.558 335 C 214.279 335.825, 216.909 338.782, 219.403 341.570 L 223.937 346.640 218.219 348.282 C 197.936 354.106, 183.223 358.085, 174.715 360.048 C 169.333 361.289, 164.725 362.636, 164.476 363.039 C 164.226 363.443, 164.716 364.350, 165.565 365.054 C 166.841 366.113, 169.388 365.696, 180.304 362.640 C 187.562 360.608, 194.206 358.958, 195.069 358.973 C 195.932 358.988, 198.182 361.211, 200.069 363.913 C 205.034 371.023, 220.574 381, 226.683 381 C 228.041 381, 268.892 340.271, 269.778 338.035 C 269.931 337.649, 268.131 336.769, 265.778 336.080 C 259.046 334.108, 253.965 330.700, 247.688 323.949 C 241.380 317.164, 238.068 311.273, 232.966 297.764 C 229.320 288.109, 229.548 285.653, 234.387 282.482 C 237.825 280.230, 240.333 281.801, 241.905 287.191 C 242.596 289.561, 244.992 295.550, 247.229 300.500 C 254.330 316.210, 264.744 324.942, 283.631 331.021 L 290.761 333.317 268.872 355.240 C 256.833 367.298, 247.239 377.577, 247.551 378.082 C 248.822 380.139, 251.115 378.564, 260.092 369.466 C 265.267 364.222, 270.239 359.507, 271.142 358.988 C 272.284 358.333, 275.001 358.800, 280.067 360.523 C 288.038 363.234, 300.296 363.879, 307.234 361.952 C 310.682 360.994, 311.093 360.475, 312.580 355.207 C 313.465 352.068, 314.772 347.700, 315.483 345.500 C 316.194 343.300, 317.531 338.125, 318.454 334 C 319.377 329.875, 321.620 321.100, 323.438 314.500 C 325.256 307.900, 326.642 302.378, 326.518 302.229 C 326.394 302.080, 323.895 302.472, 320.966 303.101 C 309.283 305.606, 293.253 301.127, 281.165 291.978 C 267.058 281.302, 264.080 276.711, 268.016 271.707 C 269.187 270.218, 270.625 269, 271.211 269 C 272.158 269, 276.319 272.320, 284 279.202 C 292.679 286.979, 308.720 292.577, 320 291.765 C 323.575 291.508, 329.743 290.461, 333.706 289.439 C 337.670 288.416, 341.172 287.838, 341.488 288.155 C 341.805 288.472, 339.575 297.352, 336.532 307.889 C 333.489 318.426, 331 327.760, 331 328.629 C 331 329.499, 329.837 334.025, 328.415 338.687 C 326.993 343.349, 326.059 347.392, 326.339 347.673 C 326.620 347.953, 327.734 347.902, 328.816 347.558 C 330.262 347.100, 330.956 345.684, 331.436 342.217 C 331.795 339.623, 332.482 336.375, 332.963 335 C 333.444 333.625, 334.768 329.301, 335.905 325.391 L 337.972 318.283 343.386 317.724 C 350.638 316.975, 363.477 311.186, 368.892 306.223 L 373.283 302.197 371.042 294.349 C 369.809 290.032, 367.982 282.900, 366.982 278.500 C 365.335 271.255, 363.065 263.137, 358.533 248.280 L 356.940 243.060 353.154 246.846 C 348.595 251.405, 338.037 255.598, 327.385 257.079 C 316.292 258.622, 296.548 255.406, 292.546 251.404 C 290.443 249.300, 290.597 244.675, 292.838 242.646 C 294.555 241.092, 295.199 241.114, 302.588 242.976 C 313.894 245.824, 325.427 245.666, 335.323 242.525 C 344.122 239.732, 346.553 238.222, 356.619 229.300 L 363.737 222.990 364.829 227.245 C 365.429 229.585, 366.394 233.910, 366.972 236.855 C 367.551 239.800, 370.235 249.925, 372.939 259.355 C 375.642 268.785, 378.169 278.227, 378.554 280.337 C 379.190 283.817, 379.400 284.028, 380.819 282.609 C 382.238 281.190, 382.174 280.137, 380.127 271.273 C 378.886 265.898, 377.258 259.137, 376.510 256.250 C 375.762 253.362, 375.476 251, 375.875 251 C 376.274 251, 379.162 248.717, 382.292 245.927 C 387.986 240.853, 393.593 232.239, 396.421 224.224 L 397.896 220.044 384.017 206.272 C 376.384 198.697, 369.545 191.892, 368.819 191.149 C 368.094 190.406, 364.579 186.911, 361.010 183.381 C 354.968 177.406, 354.478 177.120, 353.909 179.232 C 352.605 184.072, 347.883 191.761, 342.666 197.540 C 338.171 202.520, 335.220 204.585, 325.857 209.299 C 308.459 218.058, 301.325 219.041, 298.357 213.089 C 296.386 209.136, 298.083 206.648, 303.614 205.379 C 310.506 203.798, 316.439 201.231, 324.016 196.549 C 335.326 189.560, 341.523 181.305, 346.010 167.250 C 347.809 161.613, 349.621 157, 350.036 157 C 350.451 157, 351.850 158.164, 353.145 159.586 C 362.533 169.893, 393.839 200.828, 394.357 200.310 C 395.749 198.918, 394.870 196.212, 392.250 193.825 C 390.738 192.447, 387.605 189.335, 385.290 186.909 C 382.974 184.484, 380.499 181.972, 379.790 181.327 C 377.215 178.985, 374 175.202, 374 174.513 C 374 174.126, 374.878 172.575, 375.952 171.068 C 378.645 167.285, 380.213 153.616, 378.998 144.500 C 378.485 140.650, 378.051 137.183, 378.033 136.795 C 378.015 136.408, 376.313 135.792, 374.250 135.427 C 372.188 135.062, 366.675 133.646, 362 132.280 C 357.325 130.914, 352.150 129.451, 350.500 129.030 C 348.850 128.608, 345.025 127.532, 342 126.638 C 338.975 125.744, 332.675 124.203, 328 123.212 L 319.500 121.410 319.500 133.455 C 319.500 146.960, 319.178 148.119, 311.850 161.027 C 305.599 172.038, 296.465 181.333, 291.897 181.333 C 289.765 181.333, 288.070 180.569, 286.844 179.056 C 284.302 175.916, 284.468 175.235, 288.750 171.224 C 294.255 166.067, 299.466 158.602, 304.228 149.051 C 308.393 140.696, 308.439 140.486, 308.393 130.051 C 308.361 122.966, 307.750 117.438, 306.533 113.223 C 305.537 109.770, 304.976 106.691, 305.287 106.380 C 305.598 106.069, 309.823 106.939, 314.676 108.312 C 319.529 109.686, 325.075 111.122, 327 111.502 C 330.351 112.165, 347.975 117.158, 358.500 120.426 C 364.970 122.435, 365.198 122.411, 364.820 119.770 C 364.543 117.838, 362.962 117.112, 353 114.339 C 346.675 112.578, 339.813 110.861, 337.750 110.523 C 334.150 109.934, 334 109.751, 334 105.940 C 334 96.500, 328.418 83.954, 321.124 76.998 L 318.500 74.496 310.500 76.218 C 306.100 77.165, 295.075 80.150, 286 82.850 C 276.925 85.550, 267.587 88.078, 265.250 88.468 C 262.913 88.857, 261 89.658, 261 90.247 C 261 90.836, 262.872 93.798, 265.161 96.829 C 272.297 106.281, 273.379 110.288, 273.444 127.500 C 273.481 137.436, 273.035 144.100, 272.123 147.241 C 269.637 155.796, 262.873 159.789, 259.524 154.677 C 258.154 152.586, 258.172 151.816, 259.712 146.927 C 260.946 143.008, 261.432 137.887, 261.460 128.500 L 261.500 115.500 257.744 108 C 253.024 98.575, 249.080 93.081, 243.777 88.541 C 241.385 86.494, 240.018 84.643, 240.559 84.185 C 241.574 83.326, 260.116 78.164, 271.500 75.571 C 284.726 72.558, 300.057 67.671, 299.700 66.581 C 299.006 64.462, 293.927 64.920, 283.290 68.060 C 270.249 71.910, 267 72.541, 267 71.222 C 267 69.521, 257.995 60.092, 253.257 56.833 C 249.872 54.504, 238.829 50.079, 236.222 50.008 C 236.070 50.003, 226.319 59.645, 214.554 71.434 M 209.289 129.750 C 208.681 132.363, 207.055 138.775, 205.676 144 C 204.297 149.225, 202.900 154.729, 202.570 156.232 C 201.701 160.194, 196.267 166, 193.428 166 C 191.966 166, 188.285 163.603, 183.782 159.718 C 175.079 152.210, 168 146.648, 168 147.316 C 168 147.583, 170.025 154.792, 172.500 163.337 C 180.341 190.408, 178.296 195.890, 162 191.492 C 158.975 190.675, 153.429 189.713, 149.676 189.353 L 142.851 188.699 155.855 201.599 C 166.887 212.543, 168.969 215.098, 169.577 218.442 C 170.719 224.717, 168.723 227.184, 160.967 229.084 C 154.193 230.742, 146.789 233.784, 143.649 236.198 C 141.976 237.484, 142.699 237.794, 151.149 239.413 C 165.317 242.129, 175.916 245.763, 179.176 249.022 C 183.813 253.659, 182.846 257.482, 175.129 265.024 C 172.583 267.511, 169.051 271.908, 167.279 274.793 C 164.379 279.517, 164.279 279.919, 166.279 278.831 C 167.501 278.167, 171.200 277.063, 174.500 276.378 C 177.800 275.694, 184.775 273.958, 190 272.522 C 207.042 267.837, 211.449 271.208, 207.531 285.931 C 206.736 288.919, 205.781 294.448, 205.410 298.219 L 204.734 305.075 218.298 291.574 C 231.527 278.406, 234.311 276.482, 239.148 277.167 C 241.921 277.560, 243.465 280.402, 248.541 294.456 C 253.028 306.880, 253.298 307.294, 254.116 303 C 254.483 301.075, 256.406 293.899, 258.391 287.052 C 260.376 280.206, 262 274.123, 262 273.535 C 262 272.946, 263.141 270.785, 264.536 268.732 C 268.329 263.150, 271.900 263.529, 279.031 270.271 C 284.572 275.509, 295.058 283.275, 295.709 282.624 C 295.900 282.433, 295.599 281.076, 295.041 279.607 C 294.482 278.139, 292.245 270.444, 290.069 262.508 C 285.462 245.706, 285.496 241.829, 290.269 239.361 C 292.692 238.108, 294.045 238.021, 297.381 238.904 C 300.997 239.861, 316.376 242, 319.640 242 C 320.295 242, 315.500 236.780, 308.983 230.401 C 296.880 218.553, 294 214.480, 294 209.214 C 294 205.776, 296.153 204.069, 302.995 202.080 C 309.287 200.251, 321 194.907, 321 193.866 C 321 193.390, 319.987 193, 318.748 193 C 316.852 193, 308.711 190.812, 292.382 185.914 C 286.345 184.103, 282.524 180.739, 282.222 176.968 C 281.982 173.974, 282.701 172.681, 287.492 167.500 C 293.022 161.520, 299 153.388, 299 151.845 C 299 151.398, 297.538 151.668, 295.750 152.444 C 287.764 155.912, 270.579 160, 263.982 160 C 258.977 160, 255.313 158.306, 254.625 155.673 C 254.325 154.527, 254.956 150.246, 256.026 146.160 C 257.096 142.074, 258.273 135.793, 258.641 132.202 L 259.310 125.672 248.405 136.994 C 232.962 153.026, 226.639 156.639, 222.051 152.051 C 220.979 150.979, 218.787 145.893, 217.178 140.747 C 214.611 132.536, 211.498 125, 210.672 125 C 210.520 125, 209.897 127.138, 209.289 129.750 M 205.269 241.693 C 206.242 241.947, 207.592 241.930, 208.269 241.656 C 208.946 241.382, 208.150 241.175, 206.500 241.195 C 204.850 241.215, 204.296 241.439, 205.269 241.693 M 258.269 241.693 C 259.242 241.947, 260.592 241.930, 261.269 241.656 C 261.946 241.382, 261.150 241.175, 259.500 241.195 C 257.850 241.215, 257.296 241.439, 258.269 241.693" stroke="none" fill="#579ecc" fill-rule="evenodd"/></svg>