<?xml version="1.0" encoding="UTF-8" standalone="no"?>
<!-- Created with Inkscape (http://www.inkscape.org/) -->
<svg
   xmlns:dc="http://purl.org/dc/elements/1.1/"
   xmlns:cc="http://creativecommons.org/ns#"
   xmlns:rdf="http://www.w3.org/1999/02/22-rdf-syntax-ns#"
   xmlns:svg="http://www.w3.org/2000/svg"
   xmlns="http://www.w3.org/2000/svg"
   xmlns:sodipodi="http://sodipodi.sourceforge.net/DTD/sodipodi-0.dtd"
   xmlns:inkscape="http://www.inkscape.org/namespaces/inkscape"
   id="svg2403"
   sodipodi:version="0.32"
   inkscape:version="0.46"
   width="492.85999"
   height="149.71001"
   xml:space="preserve"
   sodipodi:docname="SZU Logo.svg"
   version="1.0"
   inkscape:output_extension="org.inkscape.output.svg.inkscape"><metadata
     id="metadata2408"><rdf:RDF><cc:Work
         rdf:about=""><dc:format>image/svg+xml</dc:format><dc:type
           rdf:resource="http://purl.org/dc/dcmitype/StillImage" /></cc:Work></rdf:RDF></metadata><defs
     id="defs2406"><inkscape:perspective
       sodipodi:type="inkscape:persp3d"
       inkscape:vp_x="0 : 526.18109 : 1"
       inkscape:vp_y="0 : 1000 : 0"
       inkscape:vp_z="744.09448 : 526.18109 : 1"
       inkscape:persp3d-origin="372.04724 : 350.78739 : 1"
       id="perspective2410" /><linearGradient
       x1="0"
       y1="0"
       x2="1"
       y2="0"
       gradientUnits="userSpaceOnUse"
       gradientTransform="matrix(549.485,0,0,-549.485,22.895,105.346)"
       spreadMethod="pad"
       id="linearGradient2428"><stop
         style="stop-opacity:1;stop-color:#ef4035"
         offset="0"
         id="stop2430" /><stop
         style="stop-opacity:1;stop-color:#ffffff"
         offset="1"
         id="stop2432" /></linearGradient><clipPath
       clipPathUnits="userSpaceOnUse"
       id="clipPath2604"><path
         d="M 45.79,750.24 L 549.485,750.24 L 549.485,155.718 L 45.79,155.718 L 45.79,750.24 z"
         id="path2606" /></clipPath><clipPath
       clipPathUnits="userSpaceOnUse"
       id="clipPath2646"><path
         d="M 45.79,750.24 L 549.485,750.24 L 549.485,155.718 L 45.79,155.718 L 45.79,750.24 z"
         id="path2648" /></clipPath><clipPath
       clipPathUnits="userSpaceOnUse"
       id="clipPath2678"><path
         d="M 45.79,750.24 L 549.485,750.24 L 549.485,155.718 L 45.79,155.718 L 45.79,750.24 z"
         id="path2680" /></clipPath><clipPath
       clipPathUnits="userSpaceOnUse"
       id="clipPath2694"><path
         d="M 45.79,750.24 L 549.485,750.24 L 549.485,155.718 L 45.79,155.718 L 45.79,750.24 z"
         id="path2696" /></clipPath><clipPath
       clipPathUnits="userSpaceOnUse"
       id="clipPath2714"><path
         d="M 285.972,294.59 L 236.34,294.59 L 236.34,324.37 L 264.258,324.37 L 264.258,316.926 L 248.748,316.926 L 248.748,306.998 L 273.564,306.998 L 273.564,324.37 L 285.972,324.37 L 285.972,294.59"
         id="path2716" /></clipPath><clipPath
       clipPathUnits="userSpaceOnUse"
       id="clipPath2758"><path
         d="M 45.79,750.24 L 549.485,750.24 L 549.485,155.718 L 45.79,155.718 L 45.79,750.24 z"
         id="path2760" /></clipPath><clipPath
       clipPathUnits="userSpaceOnUse"
       id="clipPath2854"><path
         d="M 45.79,750.24 L 549.485,750.24 L 549.485,155.718 L 45.79,155.718 L 45.79,750.24 z"
         id="path2856" /></clipPath><clipPath
       clipPathUnits="userSpaceOnUse"
       id="clipPath2898"><path
         d="M 45.79,750.24 L 549.485,750.24 L 549.485,155.718 L 45.79,155.718 L 45.79,750.24 z"
         id="path2900" /></clipPath><clipPath
       clipPathUnits="userSpaceOnUse"
       id="clipPath2926"><path
         d="M 45.79,750.24 L 549.485,750.24 L 549.485,155.718 L 45.79,155.718 L 45.79,750.24 z"
         id="path2928" /></clipPath><clipPath
       clipPathUnits="userSpaceOnUse"
       id="clipPath2950"><path
         d="M 45.79,750.24 L 549.485,750.24 L 549.485,155.718 L 45.79,155.718 L 45.79,750.24 z"
         id="path2952" /></clipPath><clipPath
       clipPathUnits="userSpaceOnUse"
       id="clipPath3078"><path
         d="M 45.79,750.24 L 549.485,750.24 L 549.485,155.718 L 45.79,155.718 L 45.79,750.24 z"
         id="path3080" /></clipPath><clipPath
       clipPathUnits="userSpaceOnUse"
       id="clipPath3098"><path
         d="M 45.79,750.24 L 549.485,750.24 L 549.485,155.718 L 45.79,155.718 L 45.79,750.24 z"
         id="path3100" /></clipPath><clipPath
       clipPathUnits="userSpaceOnUse"
       id="clipPath3122"><path
         d="M 45.79,750.24 L 549.485,750.24 L 549.485,155.718 L 45.79,155.718 L 45.79,750.24 z"
         id="path3124" /></clipPath><clipPath
       clipPathUnits="userSpaceOnUse"
       id="clipPath3166"><path
         d="M 45.79,750.24 L 549.485,750.24 L 549.485,155.718 L 45.79,155.718 L 45.79,750.24 z"
         id="path3168" /></clipPath><clipPath
       clipPathUnits="userSpaceOnUse"
       id="clipPath4052"><path
         d="M 45.79,750.24 L 549.485,750.24 L 549.485,155.718 L 45.79,155.718 L 45.79,750.24 z"
         id="path4054" /></clipPath><clipPath
       clipPathUnits="userSpaceOnUse"
       id="clipPath4192"><path
         d="M 45.79,750.24 L 549.485,750.24 L 549.485,155.718 L 45.79,155.718 L 45.79,750.24 z"
         id="path4194" /></clipPath><clipPath
       clipPathUnits="userSpaceOnUse"
       id="clipPath4240"><path
         d="M 45.79,750.24 L 549.485,750.24 L 549.485,155.718 L 45.79,155.718 L 45.79,750.24 z"
         id="path4242" /></clipPath><clipPath
       clipPathUnits="userSpaceOnUse"
       id="clipPath4584"><path
         d="M 45.79,750.24 L 549.485,750.24 L 549.485,155.718 L 45.79,155.718 L 45.79,750.24 z"
         id="path4586" /></clipPath><clipPath
       clipPathUnits="userSpaceOnUse"
       id="clipPath4624"><path
         d="M 45.79,750.24 L 549.485,750.24 L 549.485,155.718 L 45.79,155.718 L 45.79,750.24 z"
         id="path4626" /></clipPath><clipPath
       clipPathUnits="userSpaceOnUse"
       id="clipPath4776"><path
         d="M 45.79,750.24 L 549.485,750.24 L 549.485,155.718 L 45.79,155.718 L 45.79,750.24 z"
         id="path4778" /></clipPath><clipPath
       clipPathUnits="userSpaceOnUse"
       id="clipPath4812"><path
         d="M 45.79,750.24 L 549.485,750.24 L 549.485,155.718 L 45.79,155.718 L 45.79,750.24 z"
         id="path4814" /></clipPath><clipPath
       clipPathUnits="userSpaceOnUse"
       id="clipPath4832"><path
         d="M 45.79,750.24 L 549.485,750.24 L 549.485,155.718 L 45.79,155.718 L 45.79,750.24 z"
         id="path4834" /></clipPath><clipPath
       clipPathUnits="userSpaceOnUse"
       id="clipPath4960"><path
         d="M 45.79,750.24 L 549.485,750.24 L 549.485,155.718 L 45.79,155.718 L 45.79,750.24 z"
         id="path4962" /></clipPath></defs><sodipodi:namedview
     inkscape:window-height="974"
     inkscape:window-width="1280"
     inkscape:pageshadow="2"
     inkscape:pageopacity="0.0"
     guidetolerance="10.0"
     gridtolerance="10.0"
     objecttolerance="10.0"
     borderopacity="1.0"
     bordercolor="#666666"
     pagecolor="#ffffff"
     id="base"
     showgrid="false"
     inkscape:zoom="1"
     inkscape:cx="372.01251"
     inkscape:cy="309.7395"
     inkscape:window-x="-8"
     inkscape:window-y="-8"
     inkscape:current-layer="g2412" /><g
     id="g2412"
     inkscape:groupmode="layer"
     inkscape:label="Lageplan_Technik"
     transform="matrix(1.25,0,0,-1.25,-230.61125,170.46373)"><g
       id="g2462"
       transform="matrix(2.3552653,0,0,2.3552653,294.24827,53.40757)"><path
         d="M 0,0 C 0.023,-0.428 0.121,-0.775 0.292,-1.043 C 0.621,-1.544 1.198,-1.794 2.026,-1.794 C 2.396,-1.794 2.733,-1.738 3.039,-1.629 C 3.628,-1.414 3.922,-1.031 3.922,-0.479 C 3.922,-0.064 3.797,0.232 3.546,0.408 C 3.293,0.574 2.895,0.719 2.355,0.844 L 1.359,1.069 C 0.708,1.215 0.247,1.38 -0.023,1.562 C -0.491,1.881 -0.724,2.355 -0.724,2.986 C -0.724,3.67 -0.494,4.231 -0.035,4.67 C 0.425,5.107 1.075,5.327 1.917,5.327 C 2.692,5.327 3.35,5.136 3.892,4.752 C 4.433,4.368 4.704,3.753 4.704,2.91 L 3.734,2.91 C 3.684,3.314 3.579,3.625 3.417,3.84 C 3.115,4.233 2.604,4.43 1.883,4.43 C 1.302,4.43 0.883,4.303 0.628,4.049 C 0.374,3.795 0.246,3.5 0.246,3.164 C 0.246,2.792 0.396,2.521 0.697,2.351 C 0.894,2.24 1.339,2.103 2.035,1.938 L 3.067,1.695 C 3.565,1.58 3.948,1.419 4.219,1.217 C 4.687,0.864 4.921,0.35 4.921,-0.323 C 4.921,-1.162 4.623,-1.761 4.028,-2.121 C 3.433,-2.481 2.741,-2.662 1.953,-2.662 C 1.034,-2.662 0.315,-2.422 -0.206,-1.941 C -0.726,-1.464 -0.98,-0.816 -0.97,0 L 0,0"
         style="fill:#231f20;fill-opacity:1;fill-rule:nonzero;stroke:none"
         id="path2464" /></g><g
       id="g2466"
       transform="matrix(2.3552653,0,0,2.3552653,310.48076,60.569932)"><path
         d="M 0,0 L 0.9263,0 L 0.9263,-5.5005 L 0,-5.5005 L 0,0 z M 0,2.069 L 0.9263,2.069 L 0.9263,1.0126 L 0,1.0126 L 0,2.069 z"
         style="fill:#231f20;fill-opacity:1;fill-rule:nonzero;stroke:none"
         id="path2468" /></g><g
       id="g2470"
       transform="matrix(2.3552653,0,0,2.3552653,317.52536,65.511279)"><path
         d="M 0,0 L 0.926,0 L 0.926,-2.817 C 1.146,-2.54 1.344,-2.345 1.52,-2.233 C 1.819,-2.037 2.192,-1.94 2.639,-1.94 C 3.44,-1.94 3.984,-2.221 4.269,-2.782 C 4.424,-3.086 4.501,-3.511 4.501,-4.054 L 4.501,-7.599 L 3.546,-7.599 L 3.546,-4.112 C 3.546,-3.706 3.494,-3.408 3.391,-3.219 C 3.223,-2.916 2.906,-2.764 2.442,-2.764 C 2.058,-2.764 1.708,-2.897 1.396,-3.162 C 1.083,-3.427 0.926,-3.928 0.926,-4.665 L 0.926,-7.599 L 0,-7.599 L 0,0"
         style="fill:#231f20;fill-opacity:1;fill-rule:nonzero;stroke:none"
         id="path2472" /></g><path
       d="M 332.94763,47.613618 L 335.12932,47.613618 L 335.12932,65.442034 L 332.94763,65.442034 L 332.94763,47.613618 z"
       style="fill:#231f20;fill-opacity:1;fill-rule:nonzero;stroke:none"
       id="path2474" /><g
       id="g2476"
       transform="matrix(2.3552653,0,0,2.3552653,340.36672,64.251212)"><path
         d="M 0,0 L 0.926,0 L 0.926,-1.534 L 1.81,-1.534 L 1.81,-2.301 L 0.926,-2.301 L 0.926,-5.885 C 0.926,-6.075 0.992,-6.203 1.123,-6.269 C 1.194,-6.306 1.315,-6.325 1.484,-6.325 C 1.529,-6.325 1.577,-6.324 1.629,-6.323 C 1.68,-6.323 1.74,-6.317 1.81,-6.311 L 1.81,-7.064 C 1.703,-7.094 1.593,-7.115 1.479,-7.131 C 1.364,-7.143 1.24,-7.15 1.107,-7.15 C 0.676,-7.15 0.384,-7.04 0.231,-6.818 C 0.077,-6.596 0,-6.309 0,-5.955 L 0,-2.301 L -0.753,-2.301 L -0.753,-1.534 L 0,-1.534 L 0,0"
         style="fill:#231f20;fill-opacity:1;fill-rule:nonzero;stroke:none"
         id="path2478" /></g><g
       id="g2480"
       transform="matrix(2.3552653,0,0,2.3552653,350.68749,49.594396)"><path
         d="M 0,0 C 0.198,-0.154 0.431,-0.233 0.703,-0.233 C 1.031,-0.233 1.351,-0.156 1.66,-0.004 C 2.179,0.246 2.439,0.656 2.439,1.227 L 2.439,1.972 C 2.326,1.896 2.179,1.836 2.001,1.785 C 1.822,1.736 1.646,1.701 1.474,1.682 L 0.913,1.615 C 0.576,1.574 0.32,1.506 0.146,1.41 C -0.149,1.247 -0.295,0.99 -0.295,0.635 C -0.295,0.365 -0.198,0.154 0,0 z M 1.974,2.506 C 2.187,2.533 2.331,2.623 2.403,2.774 C 2.447,2.856 2.468,2.973 2.468,3.127 C 2.468,3.441 2.355,3.67 2.131,3.811 C 1.904,3.953 1.582,4.023 1.162,4.023 C 0.676,4.023 0.332,3.892 0.129,3.633 C 0.015,3.49 -0.059,3.278 -0.094,2.994 L -0.962,2.994 C -0.944,3.677 -0.723,4.151 -0.299,4.418 C 0.126,4.684 0.618,4.818 1.179,4.818 C 1.828,4.818 2.356,4.694 2.761,4.441 C 3.165,4.189 3.366,3.804 3.366,3.283 L 3.366,0.116 C 3.366,0.02 3.385,-0.058 3.425,-0.117 C 3.464,-0.175 3.547,-0.203 3.672,-0.203 C 3.713,-0.203 3.76,-0.201 3.81,-0.195 C 3.861,-0.19 3.916,-0.183 3.975,-0.172 L 3.975,-0.863 C 3.83,-0.904 3.72,-0.93 3.646,-0.941 C 3.57,-0.951 3.467,-0.956 3.338,-0.956 C 3.02,-0.956 2.789,-0.842 2.644,-0.614 C 2.569,-0.492 2.517,-0.322 2.486,-0.1 C 2.297,-0.351 2.023,-0.568 1.67,-0.752 C 1.314,-0.937 0.923,-1.028 0.496,-1.028 C -0.018,-1.028 -0.438,-0.873 -0.763,-0.563 C -1.089,-0.25 -1.251,0.139 -1.251,0.607 C -1.251,1.121 -1.091,1.518 -0.771,1.799 C -0.449,2.082 -0.029,2.256 0.491,2.32 L 1.974,2.506"
         style="fill:#231f20;fill-opacity:1;fill-rule:nonzero;stroke:none"
         id="path2482" /></g><path
       d="M 363.7757,47.613618 L 365.95825,47.613618 L 365.95825,65.442034 L 363.7757,65.442034 L 363.7757,47.613618 z"
       style="fill:#231f20;fill-opacity:1;fill-rule:nonzero;stroke:none"
       id="path2484" /><g
       id="g2486"
       transform="matrix(2.3552653,0,0,2.3552653,378.84469,49.608527)"><path
         d="M 0,0 L 4.67,5.841 L 0.347,5.841 L 0.347,6.738 L 5.977,6.738 L 5.977,5.861 L 1.295,0.051 L 5.977,0.051 L 5.977,-0.847 L 0,-0.847 L 0,0"
         style="fill:#231f20;fill-opacity:1;fill-rule:nonzero;stroke:none"
         id="path2488" /></g><g
       id="g2490"
       transform="matrix(2.3552653,0,0,2.3552653,402.58105,65.17212)"><path
         d="M 0,0 L 0.95535,0 L 0.95535,-1.0702 L 0,-1.0702 L 0,0 z M -1.708,0 L -0.75167,0 L -0.75167,-1.0702 L -1.708,-1.0702 L -1.708,0 z M -1.607,-1.924 L -1.607,-5.588 C -1.607,-5.871 -1.562,-6.101 -1.476,-6.279 C -1.317,-6.609 -1.018,-6.773 -0.582,-6.773 C 0.045,-6.773 0.471,-6.484 0.697,-5.908 C 0.821,-5.6 0.883,-5.174 0.883,-4.635 L 0.883,-1.924 L 1.81,-1.924 L 1.81,-7.454 L 0.941,-7.454 L 0.951,-6.629 C 0.832,-6.84 0.685,-7.017 0.51,-7.164 C 0.163,-7.454 -0.259,-7.6 -0.756,-7.6 C -1.527,-7.6 -2.054,-7.335 -2.334,-6.809 C -2.486,-6.527 -2.562,-6.151 -2.562,-5.68 L -2.562,-1.924 L -1.607,-1.924"
         style="fill:#231f20;fill-opacity:1;fill-rule:nonzero;stroke:none"
         id="path2492" /></g><g
       id="g2494"
       transform="matrix(2.3552653,0,0,2.3552653,412.00211,60.64059)"><path
         d="M 0,0 L 0.883,0 L 0.883,-0.971 C 0.955,-0.783 1.133,-0.556 1.416,-0.288 C 1.699,-0.018 2.024,0.115 2.393,0.115 C 2.41,0.115 2.439,0.114 2.48,0.109 C 2.523,0.105 2.593,0.098 2.693,0.086 L 2.693,-0.898 C 2.637,-0.886 2.586,-0.879 2.539,-0.875 C 2.494,-0.871 2.443,-0.869 2.387,-0.869 C 1.918,-0.869 1.557,-1.019 1.304,-1.321 C 1.054,-1.623 0.927,-1.969 0.927,-2.359 L 0.927,-5.53 L 0,-5.53 L 0,0"
         style="fill:#231f20;fill-opacity:1;fill-rule:nonzero;stroke:none"
         id="path2496" /></g><g
       id="g2498"
       transform="matrix(2.3552653,0,0,2.3552653,421.73878,60.569932)"><path
         d="M 0,0 L 0.92566,0 L 0.92566,-5.5005 L 0,-5.5005 L 0,0 z M 0,2.069 L 0.92566,2.069 L 0.92566,1.0126 L 0,1.0126 L 0,2.069 z"
         style="fill:#231f20;fill-opacity:1;fill-rule:nonzero;stroke:none"
         id="path2500" /></g><g
       id="g2502"
       transform="matrix(2.3552653,0,0,2.3552653,437.38716,59.945787)"><path
         d="M 0,0 C 0.391,-0.302 0.627,-0.823 0.704,-1.559 L -0.194,-1.559 C -0.248,-1.219 -0.375,-0.936 -0.572,-0.711 C -0.77,-0.484 -1.085,-0.371 -1.519,-0.371 C -2.115,-0.371 -2.541,-0.661 -2.795,-1.24 C -2.963,-1.615 -3.045,-2.079 -3.045,-2.631 C -3.045,-3.185 -2.928,-3.65 -2.691,-4.029 C -2.457,-4.41 -2.088,-4.598 -1.583,-4.598 C -1.195,-4.598 -0.889,-4.481 -0.662,-4.246 C -0.436,-4.012 -0.279,-3.689 -0.194,-3.281 L 0.704,-3.281 C 0.602,-4.013 0.344,-4.549 -0.068,-4.887 C -0.482,-5.225 -1.01,-5.395 -1.654,-5.395 C -2.377,-5.395 -2.953,-5.13 -3.384,-4.602 C -3.814,-4.074 -4.029,-3.414 -4.029,-2.624 C -4.029,-1.653 -3.793,-0.898 -3.322,-0.357 C -2.851,0.182 -2.25,0.453 -1.519,0.453 C -0.897,0.453 -0.39,0.302 0,0"
         style="fill:#231f20;fill-opacity:1;fill-rule:nonzero;stroke:none"
         id="path2504" /></g><g
       id="g2506"
       transform="matrix(2.3552653,0,0,2.3552653,442.74068,65.511279)"><path
         d="M 0,0 L 0.926,0 L 0.926,-2.817 C 1.146,-2.54 1.344,-2.345 1.52,-2.233 C 1.82,-2.037 2.192,-1.94 2.639,-1.94 C 3.44,-1.94 3.984,-2.221 4.27,-2.782 C 4.424,-3.086 4.501,-3.511 4.501,-4.054 L 4.501,-7.599 L 3.545,-7.599 L 3.545,-4.112 C 3.545,-3.706 3.494,-3.408 3.391,-3.219 C 3.223,-2.916 2.906,-2.764 2.442,-2.764 C 2.057,-2.764 1.709,-2.897 1.396,-3.162 C 1.083,-3.427 0.926,-3.928 0.926,-4.665 L 0.926,-7.599 L 0,-7.599 L 0,0"
         style="fill:#231f20;fill-opacity:1;fill-rule:nonzero;stroke:none"
         id="path2508" /></g><g
       id="g2510"
       transform="matrix(2.3552653,0,0,2.3552653,470.11122,65.48066)"><path
         d="M 0,0 L 0,-4.691 C 0,-5.24 0.103,-5.698 0.312,-6.062 C 0.619,-6.614 1.139,-6.891 1.869,-6.891 C 2.744,-6.891 3.34,-6.592 3.653,-5.996 C 3.822,-5.674 3.908,-5.237 3.908,-4.691 L 3.908,0 L 4.935,0 L 4.935,-4.262 C 4.935,-5.194 4.81,-5.911 4.558,-6.414 C 4.1,-7.33 3.23,-7.787 1.951,-7.787 C 0.674,-7.787 -0.193,-7.33 -0.651,-6.414 C -0.902,-5.911 -1.027,-5.194 -1.027,-4.262 L -1.027,0 L 0,0"
         style="fill:#231f20;fill-opacity:1;fill-rule:nonzero;stroke:none"
         id="path2512" /></g><g
       id="g2514"
       transform="matrix(2.3552653,0,0,2.3552653,495.52689,55.185796)"><path
         d="M 0,0 C -0.038,0.402 -0.124,0.723 -0.262,0.965 C -0.514,1.411 -0.938,1.634 -1.529,1.634 C -1.953,1.634 -2.311,1.481 -2.596,1.173 C -2.885,0.865 -3.036,0.473 -3.055,0 L 0,0 z M -0.334,2.156 C 0.033,1.972 0.311,1.736 0.504,1.447 C 0.689,1.17 0.812,0.845 0.873,0.476 C 0.928,0.223 0.956,-0.181 0.956,-0.739 L -3.069,-0.739 C -3.051,-1.303 -2.92,-1.755 -2.673,-2.094 C -2.428,-2.436 -2.045,-2.606 -1.529,-2.606 C -1.046,-2.606 -0.662,-2.445 -0.374,-2.125 C -0.211,-1.938 -0.097,-1.722 -0.028,-1.477 L 0.884,-1.477 C 0.859,-1.68 0.78,-1.905 0.643,-2.153 C 0.508,-2.403 0.355,-2.606 0.189,-2.763 C -0.094,-3.039 -0.44,-3.224 -0.854,-3.319 C -1.076,-3.376 -1.33,-3.402 -1.609,-3.402 C -2.295,-3.402 -2.877,-3.152 -3.351,-2.654 C -3.828,-2.153 -4.068,-1.454 -4.068,-0.556 C -4.068,0.331 -3.826,1.048 -3.347,1.603 C -2.869,2.154 -2.242,2.43 -1.469,2.43 C -1.078,2.43 -0.699,2.339 -0.334,2.156"
         style="fill:#231f20;fill-opacity:1;fill-rule:nonzero;stroke:none"
         id="path2516" /></g><g
       id="g2518"
       transform="matrix(2.3552653,0,0,2.3552653,502.49376,64.251212)"><path
         d="M 0,0 L 0.927,0 L 0.927,-1.534 L 1.81,-1.534 L 1.81,-2.301 L 0.927,-2.301 L 0.927,-5.885 C 0.927,-6.075 0.991,-6.203 1.122,-6.269 C 1.196,-6.306 1.315,-6.325 1.484,-6.325 C 1.53,-6.325 1.577,-6.324 1.628,-6.323 C 1.681,-6.323 1.741,-6.317 1.81,-6.311 L 1.81,-7.064 C 1.704,-7.094 1.593,-7.115 1.479,-7.131 C 1.365,-7.143 1.241,-7.15 1.108,-7.15 C 0.677,-7.15 0.386,-7.04 0.232,-6.818 C 0.077,-6.596 0,-6.309 0,-5.955 L 0,-2.301 L -0.753,-2.301 L -0.753,-1.534 L 0,-1.534 L 0,0"
         style="fill:#231f20;fill-opacity:1;fill-rule:nonzero;stroke:none"
         id="path2520" /></g><path
       d="M 510.55112,47.613618 L 512.7313,47.613618 L 512.7313,65.442034 L 510.55112,65.442034 L 510.55112,47.613618 z"
       style="fill:#231f20;fill-opacity:1;fill-rule:nonzero;stroke:none"
       id="path2522" /><g
       id="g2524"
       transform="matrix(2.3552653,0,0,2.3552653,517.52507,47.613618)"><path
         d="M 0,0 L 0.92725,0 L 0.92725,5.5005 L 0,5.5005 L 0,0 z M 0,6.513 L 0.92725,6.513 L 0.92725,7.5694 L 0,7.5694 L 0,6.513 z"
         style="fill:#231f20;fill-opacity:1;fill-rule:nonzero;stroke:none"
         id="path2526" /></g><g
       id="g2528"
       transform="matrix(2.3552653,0,0,2.3552653,532.75421,50.529436)"><path
         d="M 0,0 C 0.251,0.402 0.376,0.93 0.376,1.586 C 0.376,2.17 0.251,2.652 0,3.037 C -0.251,3.42 -0.62,3.612 -1.108,3.612 C -1.535,3.612 -1.907,3.453 -2.228,3.14 C -2.547,2.826 -2.706,2.308 -2.706,1.586 C -2.706,1.065 -2.642,0.641 -2.51,0.317 C -2.264,-0.295 -1.806,-0.599 -1.135,-0.599 C -0.629,-0.599 -0.251,-0.4 0,0 z M -3.546,6.362 L -2.65,6.362 L -2.65,3.627 C -2.445,3.891 -2.202,4.092 -1.919,4.229 C -1.636,4.368 -1.328,4.438 -0.996,4.438 C -0.305,4.438 0.257,4.199 0.684,3.725 C 1.116,3.25 1.331,2.551 1.331,1.627 C 1.331,0.752 1.12,0.023 0.694,-0.556 C 0.268,-1.135 -0.319,-1.425 -1.071,-1.425 C -1.492,-1.425 -1.848,-1.322 -2.138,-1.119 C -2.312,-0.998 -2.495,-0.805 -2.692,-0.538 L -2.692,-1.237 L -3.546,-1.237 L -3.546,6.362"
         style="fill:#231f20;fill-opacity:1;fill-rule:nonzero;stroke:none"
         id="path2530" /></g><g
       id="g2532"
       transform="matrix(2.3552653,0,0,2.3552653,548.75588,55.185796)"><path
         d="M 0,0 C -0.038,0.402 -0.125,0.723 -0.262,0.965 C -0.516,1.411 -0.938,1.634 -1.531,1.634 C -1.953,1.634 -2.309,1.481 -2.598,1.173 C -2.885,0.865 -3.037,0.473 -3.055,0 L 0,0 z M -0.334,2.156 C 0.032,1.972 0.312,1.736 0.504,1.447 C 0.688,1.17 0.81,0.845 0.873,0.476 C 0.928,0.223 0.955,-0.181 0.955,-0.739 L -3.069,-0.739 C -3.051,-1.303 -2.92,-1.755 -2.674,-2.094 C -2.428,-2.436 -2.045,-2.606 -1.529,-2.606 C -1.047,-2.606 -0.662,-2.445 -0.375,-2.125 C -0.211,-1.938 -0.097,-1.722 -0.029,-1.477 L 0.882,-1.477 C 0.859,-1.68 0.779,-1.905 0.643,-2.153 C 0.508,-2.403 0.356,-2.606 0.187,-2.763 C -0.092,-3.039 -0.441,-3.224 -0.856,-3.319 C -1.078,-3.376 -1.33,-3.402 -1.609,-3.402 C -2.297,-3.402 -2.877,-3.152 -3.352,-2.654 C -3.829,-2.153 -4.068,-1.454 -4.068,-0.556 C -4.068,0.331 -3.828,1.048 -3.348,1.603 C -2.869,2.154 -2.242,2.43 -1.469,2.43 C -1.079,2.43 -0.7,2.339 -0.334,2.156"
         style="fill:#231f20;fill-opacity:1;fill-rule:nonzero;stroke:none"
         id="path2534" /></g><g
       id="g2536"
       transform="matrix(2.3552653,0,0,2.3552653,555.34827,60.64059)"><path
         d="M 0,0 L 0.883,0 L 0.883,-0.971 C 0.955,-0.783 1.133,-0.556 1.416,-0.288 C 1.697,-0.018 2.023,0.115 2.393,0.115 C 2.41,0.115 2.438,0.114 2.481,0.109 C 2.522,0.105 2.593,0.098 2.691,0.086 L 2.691,-0.898 C 2.637,-0.886 2.586,-0.879 2.539,-0.875 C 2.492,-0.871 2.443,-0.869 2.387,-0.869 C 1.918,-0.869 1.557,-1.019 1.305,-1.321 C 1.052,-1.623 0.926,-1.969 0.926,-2.359 L 0.926,-5.53 L 0,-5.53 L 0,0"
         style="fill:#231f20;fill-opacity:1;fill-rule:nonzero;stroke:none"
         id="path2538" /></g><g
       id="g2540"
       transform="matrix(2.3552653,0,0,2.3552653,572.57939,57.734193)"><path
         d="M 0,0 C -0.283,0.33 -0.641,0.495 -1.076,0.495 C -1.728,0.495 -2.174,0.189 -2.413,-0.424 C -2.541,-0.75 -2.605,-1.178 -2.605,-1.707 C -2.605,-2.329 -2.479,-2.803 -2.225,-3.127 C -1.974,-3.452 -1.635,-3.615 -1.211,-3.615 C -0.545,-3.615 -0.077,-3.315 0.194,-2.713 C 0.346,-2.373 0.421,-1.975 0.421,-1.521 C 0.421,-0.838 0.28,-0.33 0,0 z M -0.115,0.998 C 0.06,0.877 0.238,0.701 0.421,0.47 L 0.421,1.176 L 1.274,1.176 L 1.274,-3.844 C 1.274,-4.544 1.172,-5.098 0.966,-5.503 C 0.582,-6.251 -0.143,-6.625 -1.209,-6.625 C -1.803,-6.625 -2.301,-6.492 -2.705,-6.226 C -3.112,-5.961 -3.337,-5.543 -3.386,-4.977 L -2.432,-4.977 C -2.387,-5.225 -2.297,-5.414 -2.162,-5.55 C -1.953,-5.756 -1.623,-5.859 -1.172,-5.859 C -0.461,-5.859 0.005,-5.609 0.226,-5.111 C 0.355,-4.816 0.416,-4.293 0.406,-3.537 C 0.219,-3.818 -0.005,-4.025 -0.267,-4.164 C -0.53,-4.299 -0.875,-4.368 -1.307,-4.368 C -1.908,-4.368 -2.434,-4.156 -2.883,-3.731 C -3.335,-3.307 -3.559,-2.604 -3.559,-1.625 C -3.559,-0.699 -3.334,0.021 -2.883,0.541 C -2.432,1.061 -1.887,1.32 -1.248,1.32 C -0.814,1.32 -0.437,1.214 -0.115,0.998"
         style="fill:#231f20;fill-opacity:1;fill-rule:nonzero;stroke:none"
         id="path2542" /></g><g
       id="g2544"
       transform="matrix(2.3552653,0,0,2.3552653,300.20473,22.329844)"><path
         d="M 0,0 C 0.633,0 1.084,0.182 1.354,0.546 C 1.524,0.775 1.608,1.055 1.608,1.381 C 1.608,1.93 1.361,2.303 0.866,2.504 C 0.604,2.61 0.255,2.663 -0.177,2.663 L -2.227,2.663 L -2.227,0 L 0,0 z M -0.344,3.488 C 0.092,3.488 0.432,3.549 0.675,3.668 C 1.056,3.859 1.247,4.202 1.247,4.697 C 1.247,5.194 1.044,5.529 0.639,5.703 C 0.41,5.799 0.07,5.848 -0.38,5.848 L -2.227,5.848 L -2.227,3.488 L -0.344,3.488 z M -3.225,6.701 L 0.051,6.701 C 0.944,6.701 1.579,6.435 1.957,5.905 C 2.178,5.591 2.289,5.229 2.289,4.82 C 2.289,4.34 2.151,3.947 1.875,3.641 C 1.732,3.479 1.526,3.33 1.257,3.197 C 1.649,3.049 1.942,2.881 2.136,2.695 C 2.479,2.365 2.651,1.91 2.651,1.33 C 2.651,0.841 2.497,0.4 2.19,0.004 C 1.729,-0.588 0.998,-0.883 -0.005,-0.883 L -3.225,-0.883 L -3.225,6.701"
         style="fill:#231f20;fill-opacity:1;fill-rule:nonzero;stroke:none"
         id="path2546" /></g><g
       id="g2548"
       transform="matrix(2.3552653,0,0,2.3552653,312.81483,22.228568)"><path
         d="M 0,0 C 0.198,-0.155 0.432,-0.233 0.702,-0.233 C 1.031,-0.233 1.35,-0.156 1.659,-0.005 C 2.179,0.248 2.439,0.657 2.439,1.225 L 2.439,1.972 C 2.326,1.896 2.179,1.836 2.001,1.785 C 1.822,1.736 1.647,1.701 1.475,1.682 L 0.912,1.616 C 0.575,1.574 0.319,1.506 0.146,1.41 C -0.149,1.248 -0.297,0.989 -0.297,0.635 C -0.297,0.367 -0.197,0.154 0,0 z M 1.974,2.507 C 2.188,2.533 2.331,2.624 2.403,2.775 C 2.446,2.855 2.468,2.975 2.468,3.127 C 2.468,3.441 2.356,3.669 2.13,3.811 C 1.904,3.952 1.582,4.023 1.161,4.023 C 0.676,4.023 0.331,3.893 0.129,3.634 C 0.015,3.491 -0.059,3.277 -0.094,2.996 L -0.962,2.996 C -0.945,3.678 -0.724,4.151 -0.299,4.418 C 0.125,4.685 0.618,4.819 1.178,4.819 C 1.829,4.819 2.357,4.693 2.762,4.441 C 3.164,4.19 3.365,3.805 3.365,3.283 L 3.365,0.115 C 3.365,0.018 3.385,-0.059 3.424,-0.117 C 3.463,-0.174 3.546,-0.203 3.672,-0.203 C 3.713,-0.203 3.759,-0.201 3.81,-0.197 C 3.861,-0.191 3.915,-0.183 3.973,-0.173 L 3.973,-0.862 C 3.83,-0.905 3.72,-0.93 3.645,-0.941 C 3.57,-0.951 3.467,-0.956 3.337,-0.956 C 3.019,-0.956 2.788,-0.842 2.645,-0.615 C 2.569,-0.493 2.517,-0.322 2.486,-0.101 C 2.296,-0.35 2.024,-0.568 1.669,-0.753 C 1.314,-0.936 0.923,-1.029 0.496,-1.029 C -0.018,-1.029 -0.438,-0.873 -0.763,-0.562 C -1.089,-0.25 -1.252,0.139 -1.252,0.608 C -1.252,1.121 -1.092,1.517 -0.771,1.801 C -0.45,2.082 -0.03,2.256 0.49,2.322 L 1.974,2.507"
         style="fill:#231f20;fill-opacity:1;fill-rule:nonzero;stroke:none"
         id="path2550" /></g><g
       id="g2552"
       transform="matrix(2.3552653,0,0,2.3552653,325.83473,38.147806)"><path
         d="M 0,0 L 0.926,0 L 0.926,-2.817 C 1.147,-2.54 1.344,-2.345 1.519,-2.231 C 1.819,-2.037 2.192,-1.939 2.639,-1.939 C 3.441,-1.939 3.983,-2.22 4.27,-2.781 C 4.424,-3.087 4.502,-3.513 4.502,-4.056 L 4.502,-7.599 L 3.547,-7.599 L 3.547,-4.112 C 3.547,-3.707 3.495,-3.409 3.391,-3.219 C 3.223,-2.917 2.907,-2.765 2.442,-2.765 C 2.057,-2.765 1.708,-2.898 1.396,-3.163 C 1.083,-3.429 0.926,-3.929 0.926,-4.666 L 0.926,-7.599 L 0,-7.599 L 0,0"
         style="fill:#231f20;fill-opacity:1;fill-rule:nonzero;stroke:none"
         id="path2554" /></g><g
       id="g2556"
       transform="matrix(2.3552653,0,0,2.3552653,341.18871,33.272407)"><path
         d="M 0,0 L 0.883,0 L 0.883,-0.796 C 1.144,-0.472 1.421,-0.237 1.712,-0.097 C 2.004,0.046 2.329,0.116 2.687,0.116 C 3.47,0.116 4,-0.157 4.274,-0.703 C 4.425,-1.003 4.502,-1.431 4.502,-1.987 L 4.502,-5.529 L 3.575,-5.529 L 3.575,-2.053 C 3.575,-1.716 3.525,-1.444 3.424,-1.239 C 3.257,-0.896 2.956,-0.724 2.521,-0.724 C 2.299,-0.724 2.117,-0.746 1.975,-0.79 C 1.719,-0.866 1.494,-1.017 1.3,-1.244 C 1.144,-1.425 1.043,-1.613 0.996,-1.808 C 0.949,-2.002 0.927,-2.279 0.927,-2.64 L 0.927,-5.529 L 0,-5.529 L 0,0"
         style="fill:#231f20;fill-opacity:1;fill-rule:nonzero;stroke:none"
         id="path2558" /></g><g
       id="g2560"
       transform="matrix(2.3552653,0,0,2.3552653,320.566,116.22014)"><path
         d="M 0,0 C 0.032,0.889 -0.254,1.555 -0.825,2.029 C -1.365,2.506 -2.188,2.758 -3.266,2.758 C -4.725,2.758 -5.994,1.807 -5.994,0.664 C -5.994,-1.018 -3.964,-1.555 -2.284,-1.998 C 1.553,-2.982 7.134,-3.362 7.134,-9.543 C 7.134,-14.365 2.379,-16.646 -2.918,-16.646 C -8.245,-16.646 -12.938,-15.095 -13.034,-8.88 L -6.692,-8.88 C -6.723,-11.035 -5.138,-12.209 -2.854,-12.209 C -1.395,-12.209 0.475,-11.448 0.475,-9.927 C 0.475,-6.816 -4.216,-7.485 -9.196,-5.298 C -11.511,-4.282 -12.654,-2.187 -12.654,0.285 C -12.399,5.708 -7.643,7.197 -2.854,7.197 C 1.87,7.197 6.722,5.518 6.341,0 L 0,0"
         style="fill:#ee312c;fill-opacity:1;fill-rule:nonzero;stroke:none"
         id="path2562" /></g><g
       id="g2564"
       transform="matrix(2.3552653,0,0,2.3552653,342.52179,78.128435)"><path
         d="M 0,0 L 0,4.439 L 12.05,18.456 L 0.634,18.456 L 0.634,22.895 L 17.916,22.895 L 17.916,17.187 L 6.848,4.439 L 19.533,4.439 L 19.533,0 L 0,0"
         style="fill:#ee312c;fill-opacity:1;fill-rule:nonzero;stroke:none"
         id="path2566" /></g><g
       id="g2568"
       transform="matrix(2.3552653,0,0,2.3552653,447.30754,132.04988)"><path
         d="M 0,0 L 0,-14.489 C -0.064,-20.864 -5.168,-23.368 -10.94,-23.368 C -16.711,-23.368 -21.817,-20.864 -21.88,-14.489 L -21.88,0 L -15.538,0 L -15.538,-14.175 C -15.445,-17.092 -13.921,-18.931 -10.94,-18.931 C -7.96,-18.931 -6.438,-17.092 -6.342,-14.175 L -6.342,0 L 0,0"
         style="fill:#ee312c;fill-opacity:1;fill-rule:nonzero;stroke:none"
         id="path2570" /></g><g
       id="g2572"
       transform="matrix(2.3552653,0,0,2.3552653,187.76201,111.61324)"><path
         d="M 0,0 L 0,-2.217 L 12.776,-2.217 L 17.737,2.742 L 22.694,-2.217 L 35.472,-2.217 L 35.472,0 L 23.611,0 L 17.74,5.881 L 11.857,0 L 0,0"
         style="fill:#ee312c;fill-opacity:1;fill-rule:nonzero;stroke:none"
         id="path2574" /></g><g
       id="g2576"
       transform="matrix(2.3552653,0,0,2.3552653,187.76201,99.60139)"><path
         d="M 0,0 L 0,2.216 L 12.776,2.216 L 17.737,-2.742 L 22.694,2.216 L 35.472,2.216 L 35.472,0 L 23.611,0 L 17.74,-5.882 L 11.857,0 L 0,0"
         style="fill:#ee312c;fill-opacity:1;fill-rule:nonzero;stroke:none"
         id="path2578" /></g><g
       id="g2580"
       transform="matrix(2.3552653,0,0,2.3552653,320.49299,116.22014)"><path
         d="M 0,0 C 0.032,0.889 -0.254,1.555 -0.824,2.029 C -1.364,2.506 -2.187,2.758 -3.266,2.758 C -4.725,2.758 -5.994,1.807 -5.994,0.664 C -5.994,-1.018 -3.963,-1.555 -2.284,-1.998 C 1.553,-2.982 7.135,-3.362 7.135,-9.543 C 7.135,-14.365 2.379,-16.646 -2.917,-16.646 C -8.244,-16.646 -12.938,-15.095 -13.034,-8.88 L -6.691,-8.88 C -6.723,-11.035 -5.138,-12.209 -2.854,-12.209 C -1.395,-12.209 0.475,-11.448 0.475,-9.927 C 0.475,-6.816 -4.216,-7.485 -9.196,-5.298 C -11.511,-4.282 -12.653,-2.187 -12.653,0.285 C -12.398,5.708 -7.643,7.197 -2.854,7.197 C 1.871,7.197 6.722,5.518 6.341,0 L 0,0"
         style="fill:#ee312c;fill-opacity:1;fill-rule:nonzero;stroke:none"
         id="path2582" /></g><g
       id="g2584"
       transform="matrix(2.3552653,0,0,2.3552653,342.44877,78.128435)"><path
         d="M 0,0 L 0,4.439 L 12.051,18.456 L 0.634,18.456 L 0.634,22.895 L 17.916,22.895 L 17.916,17.187 L 6.849,4.439 L 19.533,4.439 L 19.533,0 L 0,0"
         style="fill:#ee312c;fill-opacity:1;fill-rule:nonzero;stroke:none"
         id="path2586" /></g><g
       id="g2588"
       transform="matrix(2.3552653,0,0,2.3552653,447.23453,132.04988)"><path
         d="M 0,0 L 0,-14.489 C -0.064,-20.864 -5.168,-23.368 -10.94,-23.368 C -16.711,-23.368 -21.819,-20.864 -21.882,-14.489 L -21.882,0 L -15.539,0 L -15.539,-14.175 C -15.445,-17.092 -13.922,-18.931 -10.94,-18.931 C -7.96,-18.931 -6.438,-17.092 -6.342,-14.175 L -6.342,0 L 0,0"
         style="fill:#ee312c;fill-opacity:1;fill-rule:nonzero;stroke:none"
         id="path2590" /></g><g
       id="g2592"
       transform="matrix(2.3552653,0,0,2.3552653,187.689,111.61324)"><path
         d="M 0,0 L 0,-2.217 L 12.777,-2.217 L 17.737,2.742 L 22.694,-2.217 L 35.472,-2.217 L 35.472,0 L 23.611,0 L 17.741,5.881 L 11.857,0 L 0,0"
         style="fill:#ee312c;fill-opacity:1;fill-rule:nonzero;stroke:none"
         id="path2594" /></g><g
       id="g2596"
       transform="matrix(2.3552653,0,0,2.3552653,187.689,99.60139)"><path
         d="M 0,0 L 0,2.216 L 12.777,2.216 L 17.737,-2.742 L 22.694,2.216 L 35.472,2.216 L 35.472,0 L 23.611,0 L 17.741,-5.882 L 11.857,0 L 0,0"
         style="fill:#ee312c;fill-opacity:1;fill-rule:nonzero;stroke:none"
         id="path2598" /></g></g></svg>